MerriweatherSans-BoldItalic.ufo
<glyph name="exclam" format="2">
  <advance width="670.0"/>
  <unicode hex="0021"/>
  <note>
exclam
</note>
  <outline>
    <contour>
      <point x="208.89393939393938" y="477.04545454545456" type="line"/>
      <point x="432.3181818181818" y="477.04545454545456" type="line"/>
      <point x="664.3939393939394" y="1736.0" type="line"/>
      <point x="348.1212121212121" y="1736.0" type="line"/>
    </contour>
    <contour>
      <point x="245.65151515151516" y="-17.651515151515152" type="curve" smooth="yes"/>
      <point x="362.5909090909091" y="-17.651515151515152"/>
      <point x="442.5" y="64.16666666666667"/>
      <point x="443.54545454545456" y="180.75757575757575" type="curve" smooth="yes"/>
      <point x="444.5909090909091" y="260.74242424242425"/>
      <point x="396.07575757575756" y="313.8636363636364"/>
      <point x="297.04545454545456" y="313.8636363636364" type="curve" smooth="yes"/>
      <point x="186.1060606060606" y="313.8636363636364"/>
      <point x="102.8030303030303" y="224.4848484848485"/>
      <point x="102.10606060606061" y="118.15151515151516" type="curve" smooth="yes"/>
      <point x="101.4090909090909" y="37.46969696969697"/>
      <point x="158.36363636363637" y="-17.651515151515152"/>
    </contour>
  </outline>
</glyph>
<glyph name="numbersign" format="2">
  <advance width="1372.0"/>
  <unicode hex="0023"/>
  <note>
numbersign
</note>
  <outline>
    <contour>
      <point x="233.15151515151516" y="0.0" type="line"/>
      <point x="446.5" y="0.0" type="line"/>
      <point x="505.54545454545456" y="326.1969696969697" type="line"/>
      <point x="754.5454545454545" y="326.1969696969697" type="line"/>
      <point x="707.1515151515151" y="0.0" type="line"/>
      <point x="918.5" y="0.0" type="line"/>
      <point x="971.5454545454545" y="326.1969696969697" type="line"/>
      <point x="1177.0454545454545" y="326.1969696969697" type="line"/>
      <point x="1193.560606060606" y="519.969696969697" type="line"/>
      <point x="1000.060606060606" y="519.969696969697" type="line"/>
      <point x="1053.8939393939395" y="843.5909090909091" type="line"/>
      <point x="1263.7424242424242" y="843.5909090909091" type="line"/>
      <point x="1280.2575757575758" y="1032.7575757575758" type="line"/>
      <point x="1080.7575757575758" y="1032.7575757575758" type="line"/>
      <point x="1129.1969696969697" y="1326.0" type="line"/>
      <point x="913.1515151515151" y="1326.0" type="line"/>
      <point x="862.1060606060606" y="1032.7575757575758" type="line"/>
      <point x="613.1060606060606" y="1032.7575757575758" type="line"/>
      <point x="659.1969696969697" y="1326.0" type="line"/>
      <point x="443.1515151515151" y="1326.0" type="line"/>
      <point x="395.4090909090909" y="1032.7575757575758" type="line"/>
      <point x="196.25757575757575" y="1032.7575757575758" type="line"/>
      <point x="181.04545454545453" y="843.5909090909091" type="line"/>
      <point x="368.8939393939394" y="843.5909090909091" type="line"/>
      <point x="314.7121212121212" y="519.969696969697" type="line"/>
      <point x="123.21212121212122" y="519.969696969697" type="line"/>
      <point x="106.6969696969697" y="326.1969696969697" type="line"/>
      <point x="288.1969696969697" y="326.1969696969697" type="line"/>
    </contour>
    <contour>
      <point x="532.7575757575758" y="519.969696969697" type="line"/>
      <point x="586.2424242424242" y="843.5909090909091" type="line"/>
      <point x="834.8939393939394" y="843.5909090909091" type="line"/>
      <point x="782.7121212121212" y="519.969696969697" type="line"/>
    </contour>
  </outline>
</glyph>
<glyph name="dollar" format="2">
  <advance width="1176.0"/>
  <unicode hex="0024"/>
  <note>
dollar
</note>
  <outline>
    <contour>
      <point x="348.45454545454544" y="-255.45454545454547" type="line"/>
      <point x="565.7272727272727" y="-255.45454545454547" type="line"/>
      <point x="609.5454545454545" y="-7.484848484848483" type="line"/>
      <point x="863.8030303030303" y="29.121212121212125"/>
      <point x="1013.3787878787879" y="180.6818181818182"/>
      <point x="1012.0757575757576" y="429.8030303030303" type="curve" smooth="yes"/>
      <point x="1010.7727272727273" y="610.939393939394"/>
      <point x="898.0757575757576" y="722.2424242424242"/>
      <point x="725.1969696969697" y="850.8484848484849" type="curve" smooth="yes"/>
      <point x="603.2878787878788" y="942.9242424242424"/>
      <point x="518.0454545454545" y="1028.7121212121212"/>
      <point x="519.439393939394" y="1127.8484848484848" type="curve" smooth="yes"/>
      <point x="520.8333333333334" y="1221.8939393939395"/>
      <point x="604.8636363636364" y="1274.2424242424242"/>
      <point x="728.6212121212121" y="1274.2424242424242" type="curve" smooth="yes"/>
      <point x="822.530303030303" y="1274.2424242424242"/>
      <point x="943.7424242424242" y="1238.0757575757575"/>
      <point x="992.530303030303" y="1188.939393939394" type="curve"/>
      <point x="1085.9848484848485" y="1426.0" type="line"/>
      <point x="1033.8939393939395" y="1465.0454545454545"/>
      <point x="947.7272727272727" y="1496.2575757575758"/>
      <point x="835.3030303030303" y="1504.9545454545455" type="curve"/>
      <point x="874.1666666666666" y="1731.878787878788" type="line"/>
      <point x="656.5454545454545" y="1731.878787878788" type="line"/>
      <point x="616.7272727272727" y="1497.1363636363637" type="line"/>
      <point x="397.5909090909091" y="1457.409090909091"/>
      <point x="235.07575757575756" y="1310.8939393939395"/>
      <point x="235.07575757575756" y="1088.8939393939395" type="curve" smooth="yes"/>
      <point x="235.07575757575756" y="919.6515151515151"/>
      <point x="332.8333333333333" y="780.530303030303"/>
      <point x="511.969696969697" y="651.6666666666666" type="curve" smooth="yes"/>
      <point x="645.1212121212121" y="555.8333333333334"/>
      <point x="705.2878787878788" y="483.56060606060606"/>
      <point x="705.2878787878788" y="383.9848484848485" type="curve" smooth="yes"/>
      <point x="705.2878787878788" y="270.72727272727275"/>
      <point x="603.5757575757575" y="217.4090909090909"/>
      <point x="466.0151515151515" y="217.4090909090909" type="curve" smooth="yes"/>
      <point x="369.92424242424244" y="217.4090909090909"/>
      <point x="242.5909090909091" y="262.4545454545455"/>
      <point x="181.65151515151516" y="314.0151515151515" type="curve"/>
      <point x="86.37878787878788" y="73.21212121212122" type="line"/>
      <point x="124.72727272727272" y="42.16666666666667"/>
      <point x="263.3181818181818" y="0.8636363636363651"/>
      <point x="390.969696969697" y="-12.439393939393938" type="curve"/>
    </contour>
  </outline>
</glyph>
<glyph name="percent" format="2">
  <advance width="939.9609848484848"/>
  <unicode hex="0025"/>
  <note>
percent
</note>
  <outline>
    <contour>
      <point x="231.62954545454545" y="0.0" type="line"/>
      <point x="340.589393939394" y="0.0" type="line"/>
      <point x="719.7931818181819" y="747.0" type="line"/>
      <point x="618.0367424242424" y="747.0" type="line"/>
    </contour>
    <contour>
      <point x="219.93257575757576" y="339.1583333333333" type="curve" smooth="yes"/>
      <point x="350.7469696969697" y="339.1583333333333"/>
      <point x="437.65606060606063" y="450.1401515151515"/>
      <point x="437.65606060606063" y="579.7647727272728" type="curve" smooth="yes"/>
      <point x="437.65606060606063" y="678.5753787878788"/>
      <point x="382.7594696969697" y="740.6469696969697"/>
      <point x="278.66439393939396" y="740.6469696969697" type="curve" smooth="yes"/>
      <point x="151.4435606060606" y="740.6469696969697"/>
      <point x="60.23522727272727" y="631.6109848484848"/>
      <point x="60.23522727272727" y="507.9185606060606" type="curve" smooth="yes"/>
      <point x="60.23522727272727" y="403.9143939393939"/>
      <point x="121.95075757575758" y="339.1583333333333"/>
    </contour>
    <contour>
      <point x="231.29848484848486" y="428.24886363636364" type="curve" smooth="yes"/>
      <point x="189.78257575757576" y="428.24886363636364"/>
      <point x="164.7284090909091" y="462.1810606060606"/>
      <point x="164.7284090909091" y="514.5837121212121" type="curve" smooth="yes"/>
      <point x="164.7284090909091" y="576.2215909090909"/>
      <point x="199.95113636363638" y="652.4344696969697"/>
      <point x="267.29848484848486" y="652.4344696969697" type="curve" smooth="yes"/>
      <point x="305.57916666666665" y="652.4344696969697"/>
      <point x="329.0496212121212" y="620.0859848484848"/>
      <point x="329.0496212121212" y="569.3348484848485" type="curve" smooth="yes"/>
      <point x="329.0496212121212" y="508.0"/>
      <point x="294.2848484848485" y="428.24886363636364"/>
    </contour>
    <contour>
      <point x="691.1833333333334" y="29.58371212121212" type="curve" smooth="yes"/>
      <point x="821.119696969697" y="29.58371212121212"/>
      <point x="908.7935606060606" y="140.5655303030303"/>
      <point x="908.7935606060606" y="270.0768939393939" type="curve" smooth="yes"/>
      <point x="908.7935606060606" y="368.8875"/>
      <point x="853.8969696969697" y="431.0723484848485"/>
      <point x="749.9151515151515" y="431.0723484848485" type="curve" smooth="yes"/>
      <point x="621.8162878787879" y="431.0723484848485"/>
      <point x="531.4859848484848" y="321.27159090909095"/>
      <point x="531.4859848484848" y="198.99545454545455" type="curve" smooth="yes"/>
      <point x="531.4859848484848" y="94.22651515151514"/>
      <point x="605.4670454545454" y="29.58371212121212"/>
    </contour>
    <contour>
      <point x="702.5492424242424" y="118.67424242424244" type="curve" smooth="yes"/>
      <point x="660.9200757575758" y="118.67424242424244"/>
      <point x="635.8659090909091" y="152.6064393939394"/>
      <point x="635.8659090909091" y="205.0090909090909" type="curve" smooth="yes"/>
      <point x="635.8659090909091" y="267.29848484848486"/>
      <point x="670.5503787878788" y="342.7465909090909"/>
      <point x="738.5492424242425" y="342.7465909090909" type="curve" smooth="yes"/>
      <point x="776.8299242424242" y="342.7465909090909"/>
      <point x="800.3003787878788" y="311.81439393939394"/>
      <point x="800.3003787878788" y="259.76022727272726" type="curve" smooth="yes"/>
      <point x="800.3003787878788" y="198.53863636363636"/>
      <point x="765.5356060606061" y="118.67424242424244"/>
    </contour>
  </outline>
</glyph>
<glyph name="ampersand" format="2">
  <advance width="1519.2878787878788"/>
  <unicode hex="0026"/>
  <note>
ampersand
</note>
  <outline>
    <contour>
      <point x="608.969696969697" y="-16.0" type="curve" smooth="yes"/>
      <point x="733.4090909090909" y="-16.0"/>
      <point x="843.6666666666666" y="2.4393939393939394"/>
      <point x="946.1818181818181" y="39.92424242424242" type="curve"/>
      <point x="1021.7424242424242" y="2.4393939393939386"/>
      <point x="1116.878787878788" y="-17.045454545454547"/>
      <point x="1190.969696969697" y="-17.045454545454547" type="curve" smooth="yes"/>
      <point x="1267.2121212121212" y="-17.045454545454547"/>
      <point x="1369.6060606060605" y="-8.787878787878787"/>
      <point x="1408.6515151515152" y="3.81818181818182" type="curve"/>
      <point x="1443.4242424242425" y="163.0909090909091" type="line"/>
      <point x="1353.3030303030303" y="160.13636363636363"/>
      <point x="1274.621212121212" y="166.4848484848485"/>
      <point x="1205.9242424242425" y="194.66666666666669" type="curve"/>
      <point x="1284.378787878788" y="274.42424242424244"/>
      <point x="1329.8636363636365" y="374.9848484848485"/>
      <point x="1342.8939393939395" y="495.1212121212121" type="curve" smooth="yes"/>
      <point x="1348.1060606060605" y="531.2878787878788"/>
      <point x="1349.6666666666667" y="568.060606060606"/>
      <point x="1347.5757575757575" y="605.7878787878788" type="curve"/>
      <point x="1497.8333333333333" y="605.7878787878788" type="line"/>
      <point x="1515.0454545454545" y="810.0" type="line"/>
      <point x="1124.3484848484848" y="810.0" type="line" smooth="yes"/>
      <point x="1055.5757575757575" y="810.0"/>
      <point x="1002.3484848484849" y="799.8333333333334"/>
      <point x="976.9545454545455" y="769.8333333333334" type="curve"/>
      <point x="966.9545454545455" y="576.5757575757575" type="line"/>
      <point x="988.9545454545455" y="590.8333333333333"/>
      <point x="1026.439393939394" y="600.1363636363636"/>
      <point x="1068.7878787878788" y="603.7878787878788" type="curve"/>
      <point x="1073.9242424242425" y="572.560606060606"/>
      <point x="1073.8333333333333" y="544.3787878787879"/>
      <point x="1073.8333333333333" y="514.6212121212121" type="curve" smooth="yes"/>
      <point x="1073.8333333333333" y="442.24242424242425"/>
      <point x="1053.3030303030303" y="380.04545454545456"/>
      <point x="1011.1969696969697" y="328.6363636363636" type="curve"/>
      <point x="903.439393939394" y="430.3030303030303"/>
      <point x="802.560606060606" y="558.7575757575758"/>
      <point x="704.6363636363636" y="718.3484848484849" type="curve"/>
      <point x="959.8181818181819" y="865.8484848484849"/>
      <point x="1117.969696969697" y="991.5757575757576"/>
      <point x="1117.969696969697" y="1208.0" type="curve" smooth="yes"/>
      <point x="1117.969696969697" y="1387.0757575757575"/>
      <point x="975.6515151515151" y="1510.0"/>
      <point x="737.560606060606" y="1510.0" type="curve" smooth="yes"/>
      <point x="470.45454545454544" y="1510.0"/>
      <point x="276.9090909090909" y="1342.6060606060605"/>
      <point x="276.9090909090909" y="1087.9242424242425" type="curve" smooth="yes"/>
      <point x="276.9090909090909" y="994.439393939394"/>
      <point x="310.3030303030303" y="871.3030303030303"/>
      <point x="357.3484848484849" y="764.2575757575758" type="curve"/>
      <point x="127.65151515151514" y="662.7878787878788"/>
      <point x="29.787878787878782" y="542.3484848484849"/>
      <point x="29.787878787878782" y="354.43939393939394" type="curve" smooth="yes"/>
      <point x="29.787878787878782" y="102.25757575757575"/>
      <point x="252.40909090909088" y="-16.0"/>
    </contour>
    <contour>
      <point x="630.530303030303" y="185.16666666666669" type="curve" smooth="yes"/>
      <point x="450.7878787878788" y="185.16666666666669"/>
      <point x="328.6666666666667" y="238.04545454545456"/>
      <point x="328.6666666666667" y="376.77272727272725" type="curve" smooth="yes"/>
      <point x="328.6666666666667" y="449.75757575757575"/>
      <point x="377.030303030303" y="533.9242424242424"/>
      <point x="463.3181818181818" y="574.3939393939394" type="curve"/>
      <point x="560.8181818181818" y="416.530303030303"/>
      <point x="625.0909090909091" y="321.72727272727275"/>
      <point x="750.6818181818181" y="197.87878787878788" type="curve"/>
      <point x="714.5757575757575" y="189.95454545454547"/>
      <point x="674.7272727272727" y="185.16666666666669"/>
    </contour>
    <contour>
      <point x="605.8787878787879" y="897.9545454545455" type="curve"/>
      <point x="573.0909090909091" y="975.0909090909091"/>
      <point x="556.0454545454545" y="1048.060606060606"/>
      <point x="556.0454545454545" y="1116.5151515151515" type="curve" smooth="yes"/>
      <point x="556.0454545454545" y="1229.6666666666667"/>
      <point x="616.5" y="1319.090909090909"/>
      <point x="706.969696969697" y="1319.090909090909" type="curve" smooth="yes"/>
      <point x="796.030303030303" y="1319.090909090909"/>
      <point x="840.0454545454545" y="1266.6363636363637"/>
      <point x="840.0454545454545" y="1175.2272727272727" type="curve" smooth="yes"/>
      <point x="840.0454545454545" y="1062.590909090909"/>
      <point x="752.6212121212121" y="982.060606060606"/>
    </contour>
  </outline>
</glyph>
<glyph name="quotesingle" format="2">
  <advance width="539.1969696969697"/>
  <unicode hex="0027"/>
  <note>
quotesingle
</note>
  <outline>
    <contour>
      <point x="212.43939393939394" y="944.0" type="line"/>
      <point x="411.0" y="944.0" type="line"/>
      <point x="585.4242424242425" y="1648.0" type="line"/>
      <point x="294.0" y="1648.0" type="line"/>
    </contour>
  </outline>
</glyph>
<glyph name="parenright" format="2">
  <advance width="831.3939393939394"/>
  <unicode hex="0029"/>
  <note>
parenright
</note>
  <outline>
    <contour>
      <point x="130.06060606060606" y="-340.06060606060606" type="line"/>
      <point x="456.4848484848485" y="-137.03030303030303"/>
      <point x="723.0909090909091" y="399.8484848484849"/>
      <point x="723.0909090909091" y="868.6969696969697" type="curve" smooth="yes"/>
      <point x="723.0909090909091" y="1207.3939393939395"/>
      <point x="606.3939393939394" y="1545.3939393939395"/>
      <point x="379.969696969697" y="1728.939393939394" type="curve"/>
      <point x="210.78787878787878" y="1636.7878787878788" type="line"/>
      <point x="350.030303030303" y="1469.2424242424242"/>
      <point x="450.3636363636364" y="1192.3939393939395"/>
      <point x="450.3636363636364" y="874.5151515151515" type="curve" smooth="yes"/>
      <point x="450.3636363636364" y="416.27272727272725"/>
      <point x="283.6363636363636" y="50.18181818181819"/>
      <point x="-27.21212121212121" y="-240.78787878787878" type="curve"/>
    </contour>
  </outline>
</glyph>
<glyph name="asterisk" format="2">
  <advance width="639.0"/>
  <unicode hex="002A"/>
  <note>
asterisk
</note>
  <outline>
    <contour>
      <point x="274.0859848484848" y="292.6878787878788" type="line"/>
      <point x="386.42992424242425" y="292.5746212121212" type="line"/>
      <point x="382.067803030303" y="448.1992424242424" type="line"/>
      <point x="377.66515151515154" y="517.0181818181818" type="line"/>
      <point x="427.42992424242425" y="473.9185606060606" type="line"/>
      <point x="541.5113636363636" y="379.58825757575755" type="line"/>
      <point x="609.6064393939394" y="474.86439393939395" type="line"/>
      <point x="469.9140151515152" y="535.932196969697" type="line"/>
      <point x="410.81439393939394" y="561.0" type="line"/>
      <point x="474.9140151515152" y="586.1810606060606" type="line"/>
      <point x="627.9094696969697" y="648.2488636363637" type="line"/>
      <point x="583.592803030303" y="744.1765151515151" type="line"/>
      <point x="445.8462121212121" y="649.0814393939394" type="line"/>
      <point x="386.8462121212121" y="607.7465909090909" type="line"/>
      <point x="404.24886363636364" y="674.9140151515152" type="line"/>
      <point x="439.6787878787879" y="830.4253787878788" type="line"/>
      <point x="330.0996212121212" y="830.4253787878788" type="line"/>
      <point x="332.5837121212121" y="674.9140151515152" type="line"/>
      <point x="333.9185606060606" y="607.7465909090909" type="line"/>
      <point x="285.68333333333334" y="649.0814393939394" type="line"/>
      <point x="165.40719696969697" y="743.4117424242424" type="line"/>
      <point x="104.2715909090909" y="648.2488636363637" type="line"/>
      <point x="244.08598484848486" y="586.1810606060606" type="line"/>
      <point x="303.18560606060606" y="562.0" type="line"/>
      <point x="238.4344696969697" y="535.932196969697" type="line"/>
      <point x="86.0905303030303" y="474.86439393939395" type="line"/>
      <point x="133.7693181818182" y="378.82348484848484" type="line"/>
      <point x="266.3125" y="472.6155303030303" type="line"/>
      <point x="324.5022727272727" y="517.0181818181818" type="line"/>
      <point x="308.75113636363636" y="448.1992424242424" type="line"/>
    </contour>
  </outline>
</glyph>
<glyph name="plus" format="2">
  <advance width="662.0996212121212"/>
  <unicode hex="002B"/>
  <note>
plus
</note>
  <outline>
    <contour>
      <point x="251.17196969696968" y="128.42083333333335" type="line"/>
      <point x="370.7465909090909" y="128.42083333333335" type="line"/>
      <point x="386.81439393939394" y="258.4026515151515" type="line"/>
      <point x="390.1628787878788" y="328.6018939393939" type="line"/>
      <point x="439.4977272727273" y="324.6018939393939" type="line"/>
      <point x="570.814393939394" y="324.6018939393939" type="line"/>
      <point x="585.2443181818181" y="438.660606060606" type="line"/>
      <point x="453.5113636363636" y="438.660606060606" type="line"/>
      <point x="403.8280303030303" y="433.660606060606" type="line"/>
      <point x="416.41174242424245" y="504.39810606060604" type="line"/>
      <point x="429.41174242424245" y="633.5068181818182" type="line"/>
      <point x="309.8371212121212" y="633.5068181818182" type="line"/>
      <point x="295.42083333333335" y="504.39810606060604" type="line"/>
      <point x="290.4886363636364" y="432.660606060606" type="line"/>
      <point x="230.57007575757575" y="438.660606060606" type="line"/>
      <point x="111.83712121212122" y="438.660606060606" type="line"/>
      <point x="97.52045454545454" y="324.6018939393939" type="line"/>
      <point x="215.2534090909091" y="324.6018939393939" type="line"/>
      <point x="278.3530303030303" y="328.6018939393939" type="line"/>
      <point x="266.23977272727274" y="258.4026515151515" type="line"/>
    </contour>
  </outline>
</glyph>
<glyph name="comma" format="2">
  <advance width="514.0"/>
  <unicode hex="002C"/>
  <note>
comma
</note>
  <outline>
    <contour>
      <point x="60.0" y="-501.469696969697" type="line"/>
      <point x="191.46969696969697" y="-460.77272727272725"/>
      <point x="291.72727272727275" y="-363.56060606060606"/>
      <point x="345.9848484848485" y="-236.34848484848484" type="curve" smooth="yes"/>
      <point x="371.9848484848485" y="-171.74242424242425"/>
      <point x="385.2878787878788" y="-104.43939393939394"/>
      <point x="385.2878787878788" y="-33.13636363636363" type="curve" smooth="yes"/>
      <point x="385.2878787878788" y="87.56060606060606"/>
      <point x="326.42424242424244" y="227.9848484848485"/>
      <point x="192.07575757575756" y="279.2878787878788" type="curve"/>
      <point x="52.71212121212121" y="112.71212121212122" type="line"/>
      <point x="46.71212121212121" y="60.712121212121204" type="line"/>
      <point x="95.5" y="42.712121212121204"/>
      <point x="133.84848484848484" y="-29.121212121212125"/>
      <point x="133.84848484848484" y="-112.86363636363637" type="curve" smooth="yes"/>
      <point x="133.84848484848484" y="-214.53030303030303"/>
      <point x="70.01515151515152" y="-320.530303030303"/>
      <point x="-22.075757575757578" y="-367.92424242424244" type="curve"/>
      <point x="-26.075757575757578" y="-387.92424242424244" type="line"/>
    </contour>
  </outline>
</glyph>
<glyph name="hyphen" format="2">
  <advance width="1215.6363636363637"/>
  <unicode hex="002D"/>
  <note>
hyphen
</note>
  <outline>
    <contour>
      <point x="207.13636363636363" y="605.2424242424242" type="line"/>
      <point x="1018.7727272727273" y="605.2424242424242" type="line"/>
      <point x="1049.5454545454545" y="823.1060606060606" type="line"/>
      <point x="237.9090909090909" y="823.1060606060606" type="line"/>
    </contour>
  </outline>
</glyph>
<glyph name="period" format="2">
  <advance width="514.0"/>
  <unicode hex="002E"/>
  <note>
period
</note>
  <outline>
    <contour>
      <point x="188.27272727272728" y="-26.257575757575758" type="curve" smooth="yes"/>
      <point x="304.8636363636364" y="-26.257575757575758"/>
      <point x="380.24242424242425" y="52.07575757575758"/>
      <point x="380.24242424242425" y="169.36363636363637" type="curve" smooth="yes"/>
      <point x="380.24242424242425" y="250.3939393939394"/>
      <point x="335.030303030303" y="304.90909090909093"/>
      <point x="234.43939393939394" y="304.90909090909093" type="curve" smooth="yes"/>
      <point x="124.19696969696969" y="304.90909090909093"/>
      <point x="46.37878787878787" y="215.1818181818182"/>
      <point x="46.37878787878787" y="110.5909090909091" type="curve" smooth="yes"/>
      <point x="46.37878787878787" y="29.560606060606062"/>
      <point x="102.63636363636363" y="-26.257575757575758"/>
    </contour>
  </outline>
</glyph>
<glyph name="zero" format="2">
  <advance width="659.8333333333334"/>
  <unicode hex="0030"/>
  <outline>
    <contour>
      <point x="292.8484848484849" y="-8.0" type="curve" smooth="yes"/>
      <point x="496.43939393939394" y="-8.0"/>
      <point x="631.3939393939394" y="208.6969696969697"/>
      <point x="631.3939393939394" y="458.8636363636364" type="curve" smooth="yes"/>
      <point x="631.3939393939394" y="626.9090909090909"/>
      <point x="546.8030303030303" y="752.560606060606"/>
      <point x="392.8939393939394" y="752.560606060606" type="curve" smooth="yes"/>
      <point x="192.13636363636363" y="752.560606060606"/>
      <point x="52.78787878787879" y="544.3181818181819"/>
      <point x="52.78787878787879" y="285.8333333333333" type="curve" smooth="yes"/>
      <point x="52.78787878787879" y="122.36363636363636"/>
      <point x="138.93939393939394" y="-8.0"/>
    </contour>
    <contour>
      <point x="306.54545454545456" y="106.31818181818183" type="curve" smooth="yes"/>
      <point x="243.1818181818182" y="106.31818181818183"/>
      <point x="208.83333333333334" y="175.04545454545456"/>
      <point x="208.83333333333334" y="296.22727272727275" type="curve" smooth="yes"/>
      <point x="208.83333333333334" y="433.530303030303"/>
      <point x="254.92424242424244" y="639.2878787878788"/>
      <point x="377.030303030303" y="638.2424242424242" type="curve" smooth="yes"/>
      <point x="440.6969696969697" y="637.8939393939394"/>
      <point x="474.3030303030303" y="584.9090909090909"/>
      <point x="474.3030303030303" y="450.72727272727275" type="curve" smooth="yes"/>
      <point x="474.3030303030303" y="297.27272727272725"/>
      <point x="423.6363636363636" y="106.31818181818183"/>
    </contour>
  </outline>
</glyph>
<glyph name="one" format="2">
  <advance width="894.8787878787879"/>
  <unicode hex="0031"/>
  <outline>
    <contour>
      <point x="263.75757575757575" y="0.0" type="line"/>
      <point x="569.5909090909091" y="0.0" type="line"/>
      <point x="782.7272727272727" y="1484.6969696969697" type="line"/>
      <point x="606.8787878787879" y="1507.3030303030303" type="line"/>
      <point x="598.3636363636364" y="1507.3030303030303" type="line"/>
      <point x="478.72727272727275" y="1404.3636363636363"/>
      <point x="271.5151515151515" y="1302.2727272727273"/>
      <point x="135.5151515151515" y="1270.2727272727273" type="curve"/>
      <point x="168.12121212121212" y="1078.8484848484848" type="line"/>
      <point x="254.12121212121212" y="1085.5454545454545"/>
      <point x="352.030303030303" y="1107.7272727272727"/>
      <point x="428.3787878787879" y="1138.6818181818182" type="curve"/>
    </contour>
  </outline>
</glyph>
<glyph name="two" format="2">
  <advance width="1214.5757575757575"/>
  <unicode hex="0032"/>
  <outline>
    <contour>
      <point x="64.60606060606061" y="0.0" type="line"/>
      <point x="1055.090909090909" y="0.0" type="line"/>
      <point x="1055.6969696969697" y="226.3939393939394" type="line"/>
      <point x="400.42424242424244" y="199.51515151515153" type="line"/>
      <point x="679.5151515151515" y="383.33333333333337"/>
      <point x="1111.090909090909" y="689.6969696969697"/>
      <point x="1111.090909090909" y="1070.1818181818182" type="curve" smooth="yes"/>
      <point x="1111.090909090909" y="1284.1515151515152"/>
      <point x="977.4848484848485" y="1506.0"/>
      <point x="635.969696969697" y="1506.0" type="curve" smooth="yes"/>
      <point x="428.75757575757575" y="1506.0"/>
      <point x="244.78787878787878" y="1407.7272727272727"/>
      <point x="154.36363636363637" y="1294.4545454545455" type="curve"/>
      <point x="283.8787878787879" y="1143.6969696969697" type="line"/>
      <point x="360.4848484848485" y="1203.6969696969697"/>
      <point x="452.6666666666667" y="1267.3636363636363"/>
      <point x="578.6060606060606" y="1267.3636363636363" type="curve" smooth="yes"/>
      <point x="730.9090909090909" y="1267.3636363636363"/>
      <point x="790.8181818181818" y="1173.1515151515152"/>
      <point x="790.8181818181818" y="1046.7272727272727" type="curve" smooth="yes"/>
      <point x="790.8181818181818" y="739.969696969697"/>
      <point x="367.75757575757575" y="384.21212121212125"/>
      <point x="18.18181818181818" y="148.06060606060606" type="curve"/>
    </contour>
  </outline>
</glyph>
<glyph name="three" format="2">
  <advance width="1159.4545454545455"/>
  <unicode hex="0033"/>
  <outline>
    <contour>
      <point x="303.0909090909091" y="-14.696969696969697" type="curve" smooth="yes"/>
      <point x="706.8787878787879" y="-14.696969696969697"/>
      <point x="1039.3333333333333" y="174.6060606060606"/>
      <point x="1039.3333333333333" y="474.6060606060606" type="curve" smooth="yes"/>
      <point x="1039.3333333333333" y="620.7878787878788"/>
      <point x="921.3333333333334" y="762.969696969697"/>
      <point x="689.4848484848485" y="775.2121212121212" type="curve"/>
      <point x="902.5151515151515" y="849.7272727272727"/>
      <point x="1045.4242424242425" y="994.7878787878788"/>
      <point x="1045.4242424242425" y="1191.3030303030303" type="curve" smooth="yes"/>
      <point x="1045.4242424242425" y="1390.2727272727273"/>
      <point x="868.5757575757576" y="1506.6969696969697"/>
      <point x="648.1515151515151" y="1506.6969696969697" type="curve" smooth="yes"/>
      <point x="438.8484848484849" y="1506.6969696969697"/>
      <point x="250.5151515151515" y="1436.1515151515152"/>
      <point x="140.9090909090909" y="1326.5454545454545" type="curve"/>
      <point x="255.8181818181818" y="1164.2121212121212" type="line"/>
      <point x="308.54545454545456" y="1211.878787878788"/>
      <point x="407.93939393939394" y="1285.090909090909"/>
      <point x="554.2727272727273" y="1285.090909090909" type="curve" smooth="yes"/>
      <point x="673.6060606060606" y="1285.090909090909"/>
      <point x="736.6363636363636" y="1228.909090909091"/>
      <point x="736.6363636363636" y="1126.909090909091" type="curve" smooth="yes"/>
      <point x="736.6363636363636" y="969.2424242424242"/>
      <point x="504.0" y="854.6060606060606"/>
      <point x="323.2121212121212" y="825.1212121212121" type="curve"/>
      <point x="307.2121212121212" y="611.2424242424242" type="line"/>
      <point x="484.4848484848485" y="661.4848484848485" type="line"/>
      <point x="645.6666666666666" y="658.1818181818181"/>
      <point x="713.9393939393939" y="553.2424242424242"/>
      <point x="713.9393939393939" y="466.5151515151515" type="curve" smooth="yes"/>
      <point x="713.9393939393939" y="298.4848484848485"/>
      <point x="558.3030303030303" y="202.8181818181818"/>
      <point x="255.3030303030303" y="202.8181818181818" type="curve" smooth="yes"/>
      <point x="210.5151515151515" y="202.8181818181818"/>
      <point x="144.0909090909091" y="206.8181818181818"/>
      <point x="85.3030303030303" y="212.8181818181818" type="curve"/>
      <point x="57.484848484848484" y="-2.696969696969697" type="line"/>
      <point x="130.27272727272728" y="-8.696969696969697"/>
      <point x="204.0" y="-14.696969696969697"/>
    </contour>
  </outline>
</glyph>
<glyph name="four" format="2">
  <advance width="1255.6363636363637"/>
  <unicode hex="0034"/>
  <outline>
    <contour>
      <point x="625.4848484848485" y="0.0" type="line"/>
      <point x="898.030303030303" y="0.0" type="line"/>
      <point x="934.6363636363636" y="299.3030303030303" type="line"/>
      <point x="1162.4848484848485" y="299.3030303030303" type="line"/>
      <point x="1195.6060606060605" y="543.3333333333334" type="line"/>
      <point x="967.060606060606" y="530.6363636363636" type="line"/>
      <point x="1029.6666666666667" y="968.6363636363636" type="line"/>
      <point x="760.939393939394" y="933.2424242424242" type="line"/>
      <point x="696.5151515151515" y="521.939393939394" type="line"/>
      <point x="331.1515151515152" y="504.6363636363636" type="line"/>
      <point x="408.54545454545456" y="597.4242424242424" type="line"/>
      <point x="925.7272727272727" y="1428.3333333333333" type="line"/>
      <point x="846.7272727272727" y="1494.0" type="line"/>
      <point x="585.3939393939394" y="1494.0" type="line"/>
      <point x="403.6060606060606" y="1116.909090909091"/>
      <point x="200.4848484848485" y="734.8787878787879"/>
      <point x="14.969696969696969" y="441.1818181818182" type="curve"/>
      <point x="81.12121212121212" y="299.3030303030303" type="line"/>
      <point x="665.3939393939394" y="299.3030303030303" type="line"/>
    </contour>
  </outline>
</glyph>
<glyph name="five" format="2">
  <advance width="1180.0"/>
  <unicode hex="0035"/>
  <outline>
    <contour>
      <point x="207.06060606060606" y="-14.606060606060606" type="curve" smooth="yes"/>
      <point x="693.8181818181819" y="-14.606060606060606"/>
      <point x="1056.939393939394" y="208.45454545454544"/>
      <point x="1056.939393939394" y="580.7878787878788" type="curve" smooth="yes"/>
      <point x="1056.939393939394" y="845.7878787878788"/>
      <point x="890.5454545454545" y="963.6363636363636"/>
      <point x="673.1818181818182" y="963.6363636363636" type="curve" smooth="yes"/>
      <point x="591.5454545454545" y="963.6363636363636"/>
      <point x="504.1515151515151" y="947.7272727272727"/>
      <point x="460.4848484848485" y="931.030303030303" type="curve"/>
      <point x="544.8484848484849" y="1254.5757575757575" type="line"/>
      <point x="1021.7575757575758" y="1254.5757575757575" type="line"/>
      <point x="1089.909090909091" y="1510.0" type="line"/>
      <point x="923.5757575757576" y="1510.0" type="line"/>
      <point x="903.5757575757576" y="1494.0" type="line"/>
      <point x="313.5151515151515" y="1494.0" type="line"/>
      <point x="161.42424242424244" y="825.1212121212121" type="line"/>
      <point x="271.4848484848485" y="709.1515151515151" type="line"/>
      <point x="327.1515151515151" y="737.2424242424242"/>
      <point x="430.54545454545456" y="761.1515151515151"/>
      <point x="501.24242424242425" y="761.1515151515151" type="curve" smooth="yes"/>
      <point x="663.4242424242424" y="761.1515151515151"/>
      <point x="728.5757575757575" y="673.2424242424242"/>
      <point x="728.5757575757575" y="542.7878787878788" type="curve" smooth="yes"/>
      <point x="728.5757575757575" y="287.6363636363636"/>
      <point x="413.030303030303" y="197.60606060606062"/>
      <point x="189.57575757575756" y="197.60606060606062" type="curve" smooth="yes"/>
      <point x="166.87878787878788" y="197.60606060606062"/>
      <point x="142.87878787878788" y="198.3030303030303"/>
      <point x="112.87878787878788" y="204.3030303030303" type="curve"/>
      <point x="80.36363636363636" y="1.3939393939393936" type="line"/>
      <point x="119.06060606060606" y="-12.606060606060606"/>
      <point x="175.06060606060606" y="-14.606060606060606"/>
    </contour>
  </outline>
</glyph>
<glyph name="six" format="2">
  <advance width="1259.969696969697"/>
  <unicode hex="0036"/>
  <outline>
    <contour>
      <point x="577.469696969697" y="-16.0" type="curve" smooth="yes"/>
      <point x="969.2727272727273" y="-16.0"/>
      <point x="1151.878787878788" y="287.75757575757575"/>
      <point x="1151.878787878788" y="571.7575757575758" type="curve" smooth="yes"/>
      <point x="1151.878787878788" y="784.0909090909091"/>
      <point x="1016.4090909090909" y="980.6060606060606"/>
      <point x="772.3181818181819" y="980.6060606060606" type="curve" smooth="yes"/>
      <point x="672.969696969697" y="980.6060606060606"/>
      <point x="563.6666666666667" y="949.4545454545455"/>
      <point x="496.3636363636364" y="900.5757575757576" type="curve"/>
      <point x="539.1818181818182" y="1021.969696969697"/>
      <point x="705.2121212121212" y="1227.6060606060605"/>
      <point x="1003.1212121212121" y="1329.6969696969697" type="curve"/>
      <point x="936.1818181818181" y="1509.909090909091" type="line"/>
      <point x="424.54545454545456" y="1381.8181818181818"/>
      <point x="111.06060606060606" y="986.7878787878788"/>
      <point x="111.06060606060606" y="497.90909090909093" type="curve" smooth="yes"/>
      <point x="111.06060606060606" y="214.1818181818182"/>
      <point x="266.530303030303" y="-16.0"/>
    </contour>
    <contour>
      <point x="599.9848484848485" y="189.5151515151515" type="curve" smooth="yes"/>
      <point x="471.6666666666667" y="189.5151515151515"/>
      <point x="396.21212121212125" y="310.24242424242425"/>
      <point x="396.21212121212125" y="500.06060606060606" type="curve" smooth="yes"/>
      <point x="396.21212121212125" y="552.5151515151515"/>
      <point x="406.72727272727275" y="606.5151515151515"/>
      <point x="426.72727272727275" y="668.1818181818181" type="curve"/>
      <point x="456.90909090909093" y="704.969696969697"/>
      <point x="530.5757575757576" y="764.3030303030303"/>
      <point x="653.5" y="764.6515151515151" type="curve" smooth="yes"/>
      <point x="770.969696969697" y="765.0"/>
      <point x="860.8181818181818" y="699.5151515151515"/>
      <point x="860.8181818181818" y="541.1515151515151" type="curve" smooth="yes"/>
      <point x="860.8181818181818" y="386.8484848484849"/>
      <point x="779.3030303030303" y="189.5151515151515"/>
    </contour>
  </outline>
</glyph>
<glyph name="seven" format="2">
  <advance width="1096.2121212121212"/>
  <unicode hex="0037"/>
  <outline>
    <contour>
      <point x="165.84848484848484" y="0.0" type="line"/>
      <point x="513.8484848484849" y="0.0" type="line"/>
      <point x="1145.7575757575758" y="1436.2727272727273" type="line"/>
      <point x="1102.6363636363637" y="1494.0" type="line"/>
      <point x="161.72727272727272" y="1494.0" type="line"/>
      <point x="128.6969696969697" y="1257.969696969697" type="line"/>
      <point x="806.3636363636364" y="1258.6666666666667" type="line"/>
    </contour>
  </outline>
</glyph>
<glyph name="eight" format="2">
  <advance width="1252.8484848484848"/>
  <unicode hex="0038"/>
  <outline>
    <contour>
      <point x="566.8484848484849" y="-18.606060606060606" type="curve" smooth="yes"/>
      <point x="862.6666666666666" y="-18.606060606060606"/>
      <point x="1112.8181818181818" y="134.6969696969697"/>
      <point x="1112.8181818181818" y="394.6969696969697" type="curve" smooth="yes"/>
      <point x="1112.8181818181818" y="565.9090909090909"/>
      <point x="965.2727272727273" y="684.3333333333334"/>
      <point x="831.7878787878788" y="785.6363636363636" type="curve"/>
      <point x="999.7878787878788" y="844.2424242424242"/>
      <point x="1159.1818181818182" y="967.060606060606"/>
      <point x="1159.1818181818182" y="1184.090909090909" type="curve" smooth="yes"/>
      <point x="1159.1818181818182" y="1380.090909090909"/>
      <point x="976.1515151515151" y="1510.6060606060605"/>
      <point x="729.3939393939394" y="1509.909090909091" type="curve" smooth="yes"/>
      <point x="470.45454545454544" y="1509.2121212121212"/>
      <point x="246.54545454545456" y="1371.3030303030303"/>
      <point x="246.54545454545456" y="1106.090909090909" type="curve" smooth="yes"/>
      <point x="246.54545454545456" y="963.3030303030303"/>
      <point x="329.06060606060606" y="844.8787878787879"/>
      <point x="425.8484848484849" y="756.8787878787879" type="curve"/>
      <point x="240.45454545454544" y="693.3030303030303"/>
      <point x="86.45454545454545" y="573.6363636363636"/>
      <point x="87.75757575757575" y="349.2121212121212" type="curve" smooth="yes"/>
      <point x="87.75757575757575" y="116.42424242424242"/>
      <point x="301.24242424242425" y="-18.606060606060606"/>
    </contour>
    <contour>
      <point x="596.2424242424242" y="171.0909090909091" type="curve" smooth="yes"/>
      <point x="479.0" y="171.0909090909091"/>
      <point x="381.0" y="259.3636363636364"/>
      <point x="381.0" y="382.42424242424244" type="curve"/>
      <point x="381.0" y="523.3939393939394"/>
      <point x="463.3636363636364" y="604.4545454545455"/>
      <point x="562.0" y="663.9393939393939" type="curve"/>
      <point x="695.939393939394" y="564.3636363636364"/>
      <point x="807.2424242424242" y="480.3636363636364"/>
      <point x="807.2424242424242" y="363.90909090909093" type="curve" smooth="yes"/>
      <point x="807.2424242424242" y="248.84848484848484"/>
      <point x="720.7878787878788" y="171.0909090909091"/>
    </contour>
    <contour>
      <point x="710.8484848484849" y="877.3636363636364" type="curve"/>
      <point x="609.8787878787879" y="954.8484848484849"/>
      <point x="532.3939393939394" y="1028.4242424242425"/>
      <point x="532.3939393939394" y="1123.060606060606" type="curve" smooth="yes"/>
      <point x="532.3939393939394" y="1241.939393939394"/>
      <point x="606.1515151515151" y="1327.5151515151515"/>
      <point x="719.2121212121212" y="1327.5151515151515" type="curve" smooth="yes"/>
      <point x="808.8787878787879" y="1327.5151515151515"/>
      <point x="887.1515151515151" y="1270.030303030303"/>
      <point x="887.1515151515151" y="1158.2727272727273" type="curve" smooth="yes"/>
      <point x="887.1515151515151" y="1025.909090909091"/>
      <point x="808.0909090909091" y="934.060606060606"/>
    </contour>
  </outline>
</glyph>
<glyph name="nine" format="2">
  <advance width="1254.7575757575758"/>
  <unicode hex="0039"/>
  <outline>
    <contour>
      <point x="360.4848484848485" y="-16.696969696969695" type="line"/>
      <point x="870.030303030303" y="111.39393939393939"/>
      <point x="1186.1212121212122" y="493.90909090909093"/>
      <point x="1186.1212121212122" y="981.4848484848485" type="curve" smooth="yes"/>
      <point x="1186.1212121212122" y="1264.5151515151515"/>
      <point x="1033.090909090909" y="1494.6969696969697"/>
      <point x="718.6666666666666" y="1494.6969696969697" type="curve" smooth="yes"/>
      <point x="331.3939393939394" y="1494.6969696969697"/>
      <point x="150.42424242424244" y="1219.909090909091"/>
      <point x="150.42424242424244" y="928.939393939394" type="curve" smooth="yes"/>
      <point x="150.42424242424244" y="715.9090909090909"/>
      <point x="285.54545454545456" y="498.6060606060606"/>
      <point x="535.2121212121212" y="498.6060606060606" type="curve" smooth="yes"/>
      <point x="630.7272727272727" y="498.6060606060606"/>
      <point x="738.3030303030303" y="523.5757575757576"/>
      <point x="804.2121212121212" y="568.5454545454545" type="curve"/>
      <point x="761.3939393939394" y="449.1515151515151"/>
      <point x="592.1515151515151" y="265.6060606060606"/>
      <point x="292.24242424242425" y="163.51515151515153" type="curve"/>
    </contour>
    <contour>
      <point x="633.6969696969697" y="713.5151515151515" type="curve" smooth="yes"/>
      <point x="532.6363636363636" y="713.5151515151515"/>
      <point x="440.8787878787879" y="794.2121212121212"/>
      <point x="440.8787878787879" y="959.5454545454545" type="curve" smooth="yes"/>
      <point x="440.8787878787879" y="1110.3636363636363"/>
      <point x="511.6060606060606" y="1294.3939393939395"/>
      <point x="691.3636363636364" y="1294.3939393939395" type="curve" smooth="yes"/>
      <point x="815.060606060606" y="1294.3939393939395"/>
      <point x="899.6666666666666" y="1170.1818181818182"/>
      <point x="899.6666666666666" y="981.060606060606" type="curve" smooth="yes"/>
      <point x="899.6666666666666" y="920.8787878787879"/>
      <point x="893.2424242424242" y="870.6969696969697"/>
      <point x="873.939393939394" y="804.4242424242424" type="curve"/>
      <point x="844.4545454545455" y="769.5454545454545"/>
      <point x="753.4848484848485" y="713.5151515151515"/>
    </contour>
  </outline>
</glyph>
<glyph name="less" format="2">
  <advance width="1354.6818181818182"/>
  <unicode hex="003C"/>
  <note>
less
</note>
  <outline>
    <contour>
      <point x="1075.378787878788" y="174.95454545454547" type="line"/>
      <point x="1098.3333333333333" y="420.6363636363636" type="line"/>
      <point x="524.9545454545455" y="732.5151515151515" type="line"/>
      <point x="1175.2121212121212" y="1040.4848484848485" type="line"/>
      <point x="1207.7272727272727" y="1310.6818181818182" type="line"/>
      <point x="208.95454545454547" y="805.469696969697" type="line"/>
      <point x="192.95454545454547" y="679.8181818181819" type="line"/>
    </contour>
  </outline>
</glyph>
<glyph name="equal" format="2">
  <advance width="526.7329545454545"/>
  <unicode hex="003D"/>
  <note>
equal
</note>
  <outline>
    <contour>
      <point x="79.58371212121212" y="400.4886363636364" type="line"/>
      <point x="486.0814393939394" y="400.4886363636364" type="line"/>
      <point x="501.5113636363636" y="508.6469696969697" type="line"/>
      <point x="94.9003787878788" y="508.6469696969697" type="line"/>
    </contour>
    <contour>
      <point x="50.48409090909091" y="157.50227272727273" type="line"/>
      <point x="457.0950757575758" y="157.50227272727273" type="line"/>
      <point x="472.41174242424245" y="265.4253787878788" type="line"/>
      <point x="65.91401515151514" y="265.4253787878788" type="line"/>
    </contour>
  </outline>
</glyph>
<glyph name="greater" format="2">
  <advance width="1354.6818181818182"/>
  <unicode hex="003E"/>
  <note>
greater
</note>
  <outline>
    <contour>
      <point x="248.25757575757575" y="176.95454545454547" type="line"/>
      <point x="1247.030303030303" y="682.1666666666666" type="line"/>
      <point x="1262.6818181818182" y="809.469696969697" type="line"/>
      <point x="380.25757575757575" y="1314.3333333333333" type="line"/>
      <point x="357.3030303030303" y="1067.3484848484848" type="line"/>
      <point x="931.030303030303" y="756.7727272727273" type="line"/>
      <point x="280.77272727272725" y="447.5" type="line"/>
    </contour>
  </outline>
</glyph>
<glyph name="question" format="2">
  <advance width="456.2094696969697"/>
  <unicode hex="003F"/>
  <note>
question
</note>
  <outline>
    <contour>
      <point x="113.27272727272727" y="255.6969696969697" type="curve"/>
      <point x="207.0" y="257.0" type="line"/>
      <point x="204.0" y="270.92424242424244"/>
      <point x="200.15" y="293.8681818181818"/>
      <point x="200.61174242424244" y="315.46060606060604" type="curve" smooth="yes"/>
      <point x="201.64848484848486" y="372.39204545454544"/>
      <point x="274.79924242424244" y="426.13219696969696"/>
      <point x="331.56401515151515" y="456.59393939393937" type="curve" smooth="yes"/>
      <point x="441.6454545454545" y="516.0015151515152"/>
      <point x="490.43030303030304" y="584.6382575757576"/>
      <point x="490.43030303030304" y="671.0454545454545" type="curve" smooth="yes"/>
      <point x="490.43030303030304" y="811.5886363636364"/>
      <point x="383.032196969697" y="868.0"/>
      <point x="227.77348484848486" y="868.0" type="curve" smooth="yes"/>
      <point x="186.5431818181818" y="868.0"/>
      <point x="139.1810606060606" y="856.7647727272728"/>
      <point x="123.23522727272727" y="842.9409090909091" type="curve"/>
      <point x="99.38030303030303" y="742.4931818181818" type="line"/>
      <point x="132.17689393939395" y="751.3575757575758"/>
      <point x="163.6155303030303" y="755.2443181818181"/>
      <point x="201.78295454545454" y="755.2443181818181" type="curve" smooth="yes"/>
      <point x="291.5693181818182" y="755.2443181818181"/>
      <point x="351.57575757575756" y="718.1030303030303"/>
      <point x="351.57575757575756" y="658.6969696969697" type="curve" smooth="yes"/>
      <point x="351.57575757575756" y="586.5863636363637"/>
      <point x="279.2534090909091" y="544.3098484848484"/>
      <point x="186.18560606060606" y="473.7140151515151" type="curve" smooth="yes"/>
      <point x="132.62878787878788" y="436.9901515151515"/>
      <point x="92.72083333333333" y="392.5556818181818"/>
      <point x="92.72083333333333" y="342.9003787878788" type="curve" smooth="yes"/>
      <point x="92.72083333333333" y="300.3098484848485"/>
      <point x="101.08674242424243" y="277.9962121212121"/>
    </contour>
    <contour>
      <point x="148.2719696969697" y="-8.651515151515152" type="curve" smooth="yes"/>
      <point x="206.60227272727272" y="-8.651515151515152"/>
      <point x="244.33522727272728" y="30.610984848484847"/>
      <point x="244.33522727272728" y="89.28977272727273" type="curve" smooth="yes"/>
      <point x="244.33522727272728" y="129.67424242424244"/>
      <point x="221.85113636363636" y="157.03636363636366"/>
      <point x="171.40757575757576" y="157.03636363636366" type="curve" smooth="yes"/>
      <point x="115.95530303030303" y="157.03636363636366"/>
      <point x="77.52537878787878" y="112.19015151515151"/>
      <point x="77.52537878787878" y="59.859848484848484" type="curve" smooth="yes"/>
      <point x="77.52537878787878" y="19.248863636363637"/>
      <point x="105.59318181818182" y="-8.651515151515152"/>
    </contour>
  </outline>
</glyph>
<glyph name="at" format="2">
  <advance width="981.592803030303"/>
  <unicode hex="0040"/>
  <note>
at
</note>
  <outline>
    <contour>
      <point x="452.27613636363634" y="-215.0" type="curve" smooth="yes"/>
      <point x="535.9276515151515" y="-215.0"/>
      <point x="614.6246212121213" y="-193.0"/>
      <point x="660.9276515151515" y="-158.0" type="curve"/>
      <point x="635.6651515151515" y="-85.50681818181818" type="line"/>
      <point x="596.6428030303031" y="-103.80984848484849"/>
      <point x="535.9909090909091" y="-119.32575757575758"/>
      <point x="462.34393939393937" y="-119.32575757575758" type="curve" smooth="yes"/>
      <point x="269.5473484848485" y="-119.32575757575758"/>
      <point x="158.49318181818182" y="-1.7693181818181785"/>
      <point x="158.49318181818182" y="201.0814393939394" type="curve" smooth="yes"/>
      <point x="158.49318181818182" y="444.7965909090909"/>
      <point x="325.3662878787879" y="667.339393939394"/>
      <point x="569.9140151515152" y="667.339393939394" type="curve" smooth="yes"/>
      <point x="731.8325757575758" y="667.339393939394"/>
      <point x="836.5837121212121" y="601.7693181818181"/>
      <point x="836.5837121212121" y="419.7647727272727" type="curve" smooth="yes"/>
      <point x="836.5837121212121" y="301.31666666666666"/>
      <point x="777.525" y="103.51136363636364"/>
      <point x="689.9094696969697" y="103.51136363636364" type="curve" smooth="yes"/>
      <point x="686.0905303030303" y="103.51136363636364"/>
      <point x="684.2037878787879" y="113.91401515151516"/>
      <point x="684.2037878787879" y="131.7871212121212" type="curve" smooth="yes"/>
      <point x="684.2037878787879" y="217.96325757575758"/>
      <point x="724.3481060606061" y="480.03068181818185"/>
      <point x="736.728409090909" y="528.0814393939394" type="curve"/>
      <point x="645.2761363636364" y="514.0814393939394" type="line"/>
      <point x="621.1628787878788" y="530.3166666666666"/>
      <point x="571.1628787878788" y="540.0814393939394"/>
      <point x="538.1628787878788" y="540.0814393939394" type="curve" smooth="yes"/>
      <point x="370.6787878787879" y="540.0814393939394"/>
      <point x="264.24886363636364" y="383.0814393939394"/>
      <point x="264.24886363636364" y="208.24886363636364" type="curve" smooth="yes"/>
      <point x="264.24886363636364" y="106.03674242424242"/>
      <point x="327.53143939393937" y="3.0"/>
      <point x="410.1628787878788" y="3.0" type="curve" smooth="yes"/>
      <point x="479.1628787878788" y="3.0"/>
      <point x="543.1628787878788" y="73.0"/>
      <point x="590.1628787878788" y="181.0" type="curve"/>
      <point x="586.3981060606061" y="151.2159090909091"/>
      <point x="584.1628787878788" y="110.30757575757576"/>
      <point x="584.1628787878788" y="89.40719696969697" type="curve" smooth="yes"/>
      <point x="584.1628787878788" y="39.632954545454545"/>
      <point x="599.6655303030303" y="5.0"/>
      <point x="638.0768939393939" y="5.0" type="curve" smooth="yes"/>
      <point x="824.5746212121212" y="5.0"/>
      <point x="946.339393939394" y="228.2352272727273"/>
      <point x="946.339393939394" y="441.0814393939394" type="curve" smooth="yes"/>
      <point x="946.339393939394" y="637.4299242424242"/>
      <point x="803.525" y="754.0"/>
      <point x="593.1628787878788" y="754.0" type="curve" smooth="yes"/>
      <point x="273.01363636363635" y="754.0"/>
      <point x="52.68333333333334" y="516.0136363636364"/>
      <point x="52.68333333333334" y="183.0" type="curve" smooth="yes"/>
      <point x="52.68333333333334" y="-59.36212121212121"/>
      <point x="209.7784090909091" y="-215.0"/>
    </contour>
    <contour>
      <point x="440.0905303030303" y="125.38901515151517" type="curve" smooth="yes"/>
      <point x="404.832196969697" y="125.38901515151517"/>
      <point x="391.9049242424243" y="162.27651515151516"/>
      <point x="391.9049242424243" y="230.8598484848485" type="curve" smooth="yes"/>
      <point x="391.9049242424243" y="311.13219696969696"/>
      <point x="444.37045454545455" y="443.02272727272725"/>
      <point x="522.8325757575758" y="443.02272727272725" type="curve" smooth="yes"/>
      <point x="548.1674242424242" y="443.02272727272725"/>
      <point x="578.0723484848485" y="434.9231060606061"/>
      <point x="591.7693181818181" y="417.58825757575755" type="curve"/>
      <point x="582.0723484848485" y="337.5295454545454"/>
      <point x="495.9818181818182" y="125.38901515151517"/>
    </contour>
  </outline>
</glyph>
<glyph name="A" format="2">
  <advance width="645.5609848484848"/>
  <unicode hex="0041"/>
  <note>
A
</note>
  <anchor x="286.1628787878788" y="0.0" name="bottom"/>
  <anchor x="605.7333333333333" y="0.0" name="ogonek"/>
  <anchor x="399.4962121212121" y="747.3397727272727" name="top"/>
  <outline>
    <contour>
      <point x="-53.343939393939394" y="0.0" type="line"/>
      <point x="111.32121212121213" y="0.0" type="line"/>
      <point x="178.19886363636363" y="155.525" type="line"/>
      <point x="443.5837121212121" y="155.525" type="line"/>
      <point x="463.6018939393939" y="0.0" type="line"/>
      <point x="615.0723484848485" y="0.0" type="line"/>
      <point x="495.66515151515154" y="747.0" type="line"/>
      <point x="308.58825757575755" y="747.0" type="line"/>
    </contour>
    <contour>
      <point x="221.5746212121212" y="259.9185606060606" type="line"/>
      <point x="362.53371212121215" y="592.026893939394" type="line"/>
      <point x="383.39810606060604" y="649.4344696969697" type="line"/>
      <point x="387.330303030303" y="591.9049242424243" type="line"/>
      <point x="429.932196969697" y="259.9185606060606" type="line"/>
    </contour>
  </outline>
</glyph>
<glyph name="B" format="2">
  <advance width="644.0045454545455"/>
  <unicode hex="0042"/>
  <note>
B
</note>
  <anchor x="285.17651515151516" y="0.0" name="bottom"/>
  <anchor x="384.17651515151516" y="747.3397727272727" name="top"/>
  <outline>
    <contour>
      <point x="249.25795454545454" y="-7.651515151515151" type="curve" smooth="yes"/>
      <point x="472.9136363636364" y="-7.651515151515151"/>
      <point x="602.094696969697" y="68.47045454545454"/>
      <point x="601.3890151515152" y="238.66022727272727" type="curve" smooth="yes"/>
      <point x="600.9185606060606" y="319.16742424242426"/>
      <point x="548.8867424242425" y="375.62916666666666"/>
      <point x="462.16742424242426" y="392.6515151515151" type="curve"/>
      <point x="557.7647727272728" y="415.80530303030304"/>
      <point x="610.4026515151515" y="486.5159090909091"/>
      <point x="610.4026515151515" y="586.4026515151515" type="curve" smooth="yes"/>
      <point x="610.4026515151515" y="693.9314393939394"/>
      <point x="534.8515151515152" y="754.3484848484849"/>
      <point x="370.5746212121212" y="754.3484848484849" type="curve" smooth="yes"/>
      <point x="355.9534090909091" y="754.3484848484849"/>
      <point x="230.75151515151515" y="747.0"/>
      <point x="212.77386363636364" y="747.0" type="curve" smooth="yes"/>
      <point x="143.75113636363636" y="747.0" type="line"/>
      <point x="40.48863636363636" y="0.0" type="line"/>
      <point x="107.49772727272727" y="0.0" type="line" smooth="yes"/>
      <point x="124.45492424242424" y="0.0"/>
      <point x="231.16515151515154" y="-7.651515151515151"/>
    </contour>
    <contour>
      <point x="272.32575757575756" y="98.82348484848487" type="curve" smooth="yes"/>
      <point x="248.43030303030304" y="98.82348484848487"/>
      <point x="221.66098484848487" y="100.64242424242425"/>
      <point x="205.7375" y="103.57462121212122" type="curve"/>
      <point x="236.60189393939396" y="332.23977272727274" type="line"/>
      <point x="256.72462121212124" y="333.58825757575755"/>
      <point x="279.28106060606063" y="334.58825757575755"/>
      <point x="303.2625" y="334.58825757575755" type="curve" smooth="yes"/>
      <point x="396.4617424242424" y="334.58825757575755"/>
      <point x="441.7375" y="308.0541666666667"/>
      <point x="441.7375" y="229.01363636363638" type="curve" smooth="yes"/>
      <point x="441.7375" y="147.64053030303032"/>
      <point x="362.2280303030303" y="98.82348484848487"/>
    </contour>
    <contour>
      <point x="251.38901515151514" y="436.9276515151515" type="curve"/>
      <point x="280.669696969697" y="647.592803030303" type="line"/>
      <point x="298.0151515151515" y="649.2897727272727"/>
      <point x="321.1727272727273" y="650.525"/>
      <point x="341.9094696969697" y="650.4117424242424" type="curve" smooth="yes"/>
      <point x="419.5382575757576" y="649.5056818181818"/>
      <point x="456.0996212121212" y="628.0363636363636"/>
      <point x="456.0996212121212" y="569.4344696969697" type="curve" smooth="yes"/>
      <point x="456.0996212121212" y="480.0"/>
      <point x="401.27613636363634" y="435.27613636363634"/>
      <point x="306.8280303030303" y="435.27613636363634" type="curve" smooth="yes"/>
      <point x="282.71515151515155" y="435.27613636363634"/>
      <point x="267.4518939393939" y="435.9276515151515"/>
    </contour>
  </outline>
</glyph>
<glyph name="C" format="2">
  <advance width="574.7602272727273"/>
  <unicode hex="0043"/>
  <note>
C
</note>
  <anchor x="302.0" y="0.0" name="bottom"/>
  <anchor x="424.4931818181818" y="747.3397727272727" name="top"/>
  <outline>
    <contour>
      <point x="303.01363636363635" y="-8.0" type="curve" smooth="yes"/>
      <point x="386.09356060606063" y="-8.0"/>
      <point x="487.5113636363636" y="25.837500000000002"/>
      <point x="518.5113636363636" y="50.91401515151515" type="curve"/>
      <point x="498.0814393939394" y="160.23977272727274" type="line"/>
      <point x="469.4473484848485" y="138.8912878787879"/>
      <point x="400.5299242424242" y="113.66969696969699"/>
      <point x="340.4931818181818" y="113.66969696969699" type="curve" smooth="yes"/>
      <point x="239.63863636363638" y="113.66969696969699"/>
      <point x="197.7375" y="186.02613636363637"/>
      <point x="197.7375" y="310.9503787878788" type="curve" smooth="yes"/>
      <point x="197.7375" y="417.47992424242426"/>
      <point x="225.5564393939394" y="519.2037878787878"/>
      <point x="290.1719696969697" y="581.525" type="curve" smooth="yes"/>
      <point x="322.1583333333333" y="612.8598484848485"/>
      <point x="362.8416666666667" y="628.0272727272727"/>
      <point x="412.23068181818184" y="628.0272727272727" type="curve" smooth="yes"/>
      <point x="477.7465909090909" y="628.0272727272727"/>
      <point x="517.4981060606061" y="606.3030303030303"/>
      <point x="548.6064393939394" y="581.864393939394" type="curve"/>
      <point x="593.8234848484849" y="720.6428030303031" type="line"/>
      <point x="521.0159090909091" y="746.9371212121213"/>
      <point x="478.0905303030303" y="755.0"/>
      <point x="425.9094696969697" y="755.0" type="curve" smooth="yes"/>
      <point x="280.5655303030303" y="755.0"/>
      <point x="159.0" y="670.9185606060606"/>
      <point x="93.75113636363636" y="534.6696969696969" type="curve" smooth="yes"/>
      <point x="60.57007575757576" y="466.3666666666667"/>
      <point x="44.15378787878788" y="391.0181818181818"/>
      <point x="44.15378787878788" y="308.8507575757576" type="curve" smooth="yes"/>
      <point x="44.15378787878788" y="195.85075757575757"/>
      <point x="74.15378787878788" y="96.98636363636363"/>
      <point x="151.40265151515152" y="36.93219696969697" type="curve" smooth="yes"/>
      <point x="189.58371212121213" y="7.235227272727272"/>
      <point x="240.41628787878787" y="-8.0"/>
    </contour>
  </outline>
</glyph>
<glyph name="D" format="2">
  <advance width="1376.7575757575758"/>
  <unicode hex="0044"/>
  <note>
D
</note>
  <anchor x="615.030303030303" y="0.0" name="bottom"/>
  <anchor x="715.030303030303" y="748.3484848484849" name="center"/>
  <anchor x="813.030303030303" y="1494.6969696969697" name="top"/>
  <outline>
    <contour>
      <point x="543.8030303030303" y="-16.0" type="curve" smooth="yes"/>
      <point x="1044.9848484848485" y="-18.78787878787879"/>
      <point x="1348.8939393939395" y="377.74242424242425"/>
      <point x="1348.8939393939395" y="899.8939393939394" type="curve" smooth="yes"/>
      <point x="1348.8939393939395" y="1284.1666666666667"/>
      <point x="1174.8939393939395" y="1510.0"/>
      <point x="781.939393939394" y="1510.0" type="curve" smooth="yes"/>
      <point x="736.2575757575758" y="1510.0"/>
      <point x="458.25757575757575" y="1494.0"/>
      <point x="423.45454545454544" y="1494.0" type="curve"/>
      <point x="287.4848484848485" y="1494.0" type="line"/>
      <point x="81.15151515151516" y="0.0" type="line"/>
      <point x="208.95454545454547" y="0.0" type="line" smooth="yes"/>
      <point x="282.06060606060606" y="0.0"/>
      <point x="427.7121212121212" y="-14.954545454545455"/>
    </contour>
    <contour>
      <point x="588.3181818181819" y="206.63636363636365" type="curve" smooth="yes"/>
      <point x="523.0909090909091" y="205.93939393939394"/>
      <point x="460.54545454545456" y="213.33333333333334"/>
      <point x="415.3181818181818" y="229.42424242424244" type="curve"/>
      <point x="558.1060606060606" y="1273.0151515151515" type="line"/>
      <point x="596.4545454545455" y="1281.3636363636363"/>
      <point x="668.3787878787879" y="1287.4545454545455"/>
      <point x="715.4242424242424" y="1287.4545454545455" type="curve" smooth="yes"/>
      <point x="870.6818181818181" y="1287.4545454545455"/>
      <point x="959.4848484848485" y="1245.7878787878788"/>
      <point x="1004.7121212121212" y="1134.5454545454545" type="curve" smooth="yes"/>
      <point x="1027.1515151515152" y="1077.2272727272727"/>
      <point x="1038.1969696969697" y="1000.5151515151515"/>
      <point x="1038.1969696969697" y="901.3636363636364" type="curve" smooth="yes"/>
      <point x="1038.1969696969697" y="649.5454545454545"/>
      <point x="974.0151515151515" y="430.22727272727275"/>
      <point x="839.3030303030303" y="303.6060606060606" type="curve" smooth="yes"/>
      <point x="771.469696969697" y="240.12121212121212"/>
      <point x="687.8939393939394" y="207.6818181818182"/>
    </contour>
  </outline>
</glyph>
<glyph name="E" format="2">
  <advance width="1157.1818181818182"/>
  <unicode hex="0045"/>
  <note>
E
</note>
  <anchor x="576.0" y="0.0" name="bottom"/>
  <anchor x="971.2727272727273" y="20.0" name="ogonek"/>
  <anchor x="732.3181818181819" y="1494.0" name="top"/>
  <anchor x="164.0" y="1494.6969696969697" name="topleft"/>
  <outline>
    <contour>
      <point x="81.15151515151516" y="0.0" type="line"/>
      <point x="1022.060606060606" y="0.0" type="line"/>
      <point x="1051.7878787878788" y="241.24242424242425" type="line"/>
      <point x="414.27272727272725" y="229.84848484848487" type="line"/>
      <point x="473.1515151515151" y="657.3333333333334" type="line"/>
      <point x="890.1212121212121" y="646.8939393939394" type="line"/>
      <point x="919.1515151515151" y="885.1818181818182" type="line"/>
      <point x="503.92424242424244" y="879.1818181818182" type="line"/>
      <point x="556.4545454545455" y="1263.1969696969697" type="line"/>
      <point x="1110.378787878788" y="1259.4545454545455" type="line"/>
      <point x="1137.6666666666667" y="1494.0" type="line"/>
      <point x="287.4848484848485" y="1494.0" type="line"/>
    </contour>
  </outline>
</glyph>
<glyph name="F" format="2">
  <advance width="523.8462121212121"/>
  <unicode hex="0046"/>
  <note>
F
</note>
  <anchor x="225.24886363636364" y="0.0" name="bottom"/>
  <anchor x="340.6488636363636" y="747.3397727272727" name="top"/>
  <outline>
    <contour>
      <point x="40.48863636363636" y="0.0" type="line"/>
      <point x="191.0723484848485" y="0.0" type="line"/>
      <point x="233.7693181818182" y="311.592803030303" type="line"/>
      <point x="451.0768939393939" y="307.0768939393939" type="line"/>
      <point x="465.5746212121212" y="431.6787878787879" type="line"/>
      <point x="250.50227272727273" y="428.330303030303" type="line"/>
      <point x="278.2534090909091" y="632.2761363636364" type="line"/>
      <point x="536.2625" y="629.6924242424242" type="line"/>
      <point x="553.0632575757576" y="747.0" type="line"/>
      <point x="143.75113636363636" y="747.0" type="line"/>
    </contour>
  </outline>
</glyph>
<glyph name="G" format="2">
  <advance width="684.5068181818182"/>
  <unicode hex="0047"/>
  <note>
G
</note>
  <anchor x="305.57916666666665" y="0.0" name="bottom"/>
  <anchor x="404.57916666666665" y="747.3397727272727" name="top"/>
  <outline>
    <contour>
      <point x="321.0768939393939" y="-8.0" type="curve" smooth="yes"/>
      <point x="395.06742424242424" y="-8.0"/>
      <point x="455.9977272727273" y="6.982575757575757"/>
      <point x="527.530303030303" y="26.99128787878788" type="curve" smooth="yes"/>
      <point x="554.1583333333333" y="34.51590909090909"/>
      <point x="571.9143939393939" y="38.86439393939394"/>
      <point x="588.3257575757576" y="40.986363636363635" type="curve"/>
      <point x="636.8234848484849" y="397.83712121212125" type="line"/>
      <point x="377.0723484848485" y="397.83712121212125" type="line"/>
      <point x="362.1719696969697" y="278.0" type="line"/>
      <point x="481.4886363636364" y="278.0" type="line"/>
      <point x="459.4886363636364" y="128.07689393939393" type="line"/>
      <point x="428.30795454545455" y="112.68787878787879"/>
      <point x="379.41174242424245" y="106.23977272727274"/>
      <point x="343.74204545454546" y="106.23977272727274" type="curve" smooth="yes"/>
      <point x="242.01818181818183" y="106.23977272727274"/>
      <point x="193.60189393939393" y="185.47916666666666"/>
      <point x="193.60189393939393" y="310.60189393939396" type="curve" smooth="yes"/>
      <point x="193.60189393939393" y="413.9367424242424"/>
      <point x="222.40719696969697" y="518.8416666666667"/>
      <point x="291.25795454545454" y="584.1087121212121" type="curve" smooth="yes"/>
      <point x="325.8958333333333" y="616.5113636363636"/>
      <point x="369.6469696969697" y="632.4435606060606"/>
      <point x="422.9818181818182" y="632.4435606060606" type="curve" smooth="yes"/>
      <point x="489.04848484848486" y="632.4435606060606"/>
      <point x="578.855303030303" y="600.6515151515151"/>
      <point x="608.9231060606061" y="577.6969696969697" type="curve"/>
      <point x="643.1719696969698" y="714.2670454545455" type="line"/>
      <point x="545.1715909090909" y="747.4162878787879"/>
      <point x="512.6742424242424" y="755.0"/>
      <point x="426.39810606060604" y="755.0" type="curve" smooth="yes"/>
      <point x="282.77840909090907" y="755.0"/>
      <point x="159.58371212121213" y="674.4704545454546"/>
      <point x="91.57007575757575" y="536.4026515151515" type="curve" smooth="yes"/>
      <point x="57.7375" y="466.75113636363636"/>
      <point x="40.66969696969697" y="387.44810606060605"/>
      <point x="41.018181818181816" y="298.9185606060606" type="curve" smooth="yes"/>
      <point x="41.72386363636363" y="192.98636363636362"/>
      <point x="76.66969696969697" y="94.93219696969697"/>
      <point x="160.34848484848484" y="36.34848484848485" type="curve" smooth="yes"/>
      <point x="202.01363636363638" y="7.0"/>
      <point x="255.51136363636363" y="-8.0"/>
    </contour>
  </outline>
</glyph>
<glyph name="H" format="2">
  <advance width="719.1583333333333"/>
  <unicode hex="0048"/>
  <note>
H
</note>
  <anchor x="319.5568181818182" y="0.0" name="bottom"/>
  <anchor x="417.0359848484849" y="747.0" name="top"/>
  <outline>
    <contour>
      <point x="36.3530303030303" y="0.0" type="line"/>
      <point x="186.82348484848484" y="0.0" type="line"/>
      <point x="230.58825757575758" y="314.1583333333333" type="line"/>
      <point x="490.1041666666667" y="314.1583333333333" type="line"/>
      <point x="447.1041666666667" y="0.0" type="line"/>
      <point x="598.5746212121212" y="0.0" type="line"/>
      <point x="701.8371212121212" y="747.0" type="line"/>
      <point x="549.6018939393939" y="747.0" type="line"/>
      <point x="504.76931818181816" y="419.73295454545456" type="line"/>
      <point x="245.14015151515153" y="419.73295454545456" type="line"/>
      <point x="290.3212121212121" y="747.0" type="line"/>
      <point x="139.50227272727273" y="747.0" type="line"/>
    </contour>
  </outline>
</glyph>
<glyph name="I" format="2">
  <advance width="326.9049242424243"/>
  <unicode hex="0049"/>
  <note>
I
</note>
  <anchor x="126.89583333333334" y="0.0" name="bottom"/>
  <anchor x="259.6560606060606" y="10.0" name="ogonek"/>
  <anchor x="229.53863636363636" y="747.0" name="top"/>
  <anchor x="82.0" y="747.3397727272727" name="topleft"/>
  <outline>
    <contour>
      <point x="52.08598484848485" y="0.0" type="line"/>
      <point x="202.90492424242424" y="0.0" type="line"/>
      <point x="306.16742424242426" y="747.0" type="line"/>
      <point x="155.34848484848484" y="747.0" type="line"/>
    </contour>
  </outline>
</glyph>
<glyph name="J" format="2">
  <advance width="647.5909090909091"/>
  <unicode hex="004A"/>
  <note>
J
</note>
  <anchor x="249.96969696969697" y="0.0" name="bottom"/>
  <anchor x="484.4848484848485" y="1494.6969696969697" name="top"/>
  <outline>
    <contour>
      <point x="-132.0" y="-336.5" type="line"/>
      <point x="126.5" y="-325.3484848484849"/>
      <point x="326.8030303030303" y="-211.7878787878788"/>
      <point x="403.75757575757575" y="74.0" type="curve" smooth="yes"/>
      <point x="412.54545454545456" y="106.62121212121212"/>
      <point x="430.469696969697" y="200.4242424242424"/>
      <point x="451.43939393939394" y="356.4545454545454" type="curve" smooth="yes"/>
      <point x="608.7878787878788" y="1494.0" type="line"/>
      <point x="306.43939393939394" y="1494.0" type="line"/>
      <point x="249.71212121212122" y="1081.2121212121212"/>
      <point x="187.84848484848484" y="456.1060606060606"/>
      <point x="108.01515151515152" y="84.0" type="curve" smooth="yes"/>
      <point x="87.31818181818181" y="-28.954545454545453"/>
      <point x="-57.651515151515156" y="-199.46969696969697"/>
      <point x="-172.86363636363637" y="-230.5151515151515" type="curve"/>
    </contour>
  </outline>
</glyph>
<glyph name="K" format="2">
  <advance width="635.5"/>
  <unicode hex="004B"/>
  <note>
K
</note>
  <anchor x="318.42424242424244" y="0.0" name="bottom"/>
  <anchor x="378.1212121212121" y="747.3484848484849" name="top"/>
  <outline>
    <contour>
      <point x="36.31818181818181" y="0.0" type="line"/>
      <point x="182.01515151515153" y="0.0" type="line"/>
      <point x="212.36363636363637" y="217.06060606060606" type="line"/>
      <point x="298.2878787878788" y="308.030303030303" type="line"/>
      <point x="370.3939393939394" y="153.87878787878788" type="line" smooth="yes"/>
      <point x="403.469696969697" y="79.56060606060606"/>
      <point x="437.969696969697" y="9.696969696969697"/>
      <point x="444.6666666666667" y="0.0" type="curve"/>
      <point x="622.5757575757576" y="0.0" type="line"/>
      <point x="595.530303030303" y="42.04545454545455"/>
      <point x="558.6060606060606" y="106.80303030303031"/>
      <point x="522.560606060606" y="177.1060606060606" type="curve" smooth="yes"/>
      <point x="444.8181818181818" y="327.0151515151515"/>
      <point x="422.92424242424244" y="372.8939393939394"/>
      <point x="398.0" y="416.95454545454544" type="curve"/>
      <point x="694.0" y="747.0" type="line"/>
      <point x="520.7424242424242" y="747.0" type="line"/>
      <point x="237.53030303030303" y="405.3636363636364" type="line"/>
      <point x="285.530303030303" y="747.0" type="line"/>
      <point x="139.48484848484847" y="747.0" type="line"/>
    </contour>
  </outline>
</glyph>
<glyph name="L" format="2">
  <advance width="506.55227272727274"/>
  <unicode hex="004C"/>
  <note>
L
</note>
  <anchor x="254.6969696969697" y="0.0" name="bottom"/>
  <anchor x="267.57916666666665" y="374.1132575757576" name="center"/>
  <anchor x="224.1969696969697" y="747.3484848484849" name="top"/>
  <anchor x="550.5068181818182" y="747.3397727272727" name="topright"/>
  <outline>
    <contour>
      <point x="40.48863636363636" y="0.0" type="line"/>
      <point x="442.9276515151515" y="0.0" type="line"/>
      <point x="461.0090909090909" y="124.07234848484849" type="line"/>
      <point x="207.7375" y="119.23977272727274" type="line"/>
      <point x="294.57007575757575" y="747.0" type="line"/>
      <point x="143.75113636363636" y="747.0" type="line"/>
    </contour>
  </outline>
</glyph>
<glyph name="M" format="2">
  <advance width="942.9818181818182"/>
  <unicode hex="004D"/>
  <note>
M
</note>
  <anchor x="434.9909090909091" y="0.0" name="bottom"/>
  <anchor x="533.9909090909091" y="747.3397727272727" name="top"/>
  <outline>
    <contour>
      <point x="360.5159090909091" y="-9.0" type="line"/>
      <point x="515.144696969697" y="-1.0" type="line"/>
      <point x="728.9094696969697" y="545.8416666666667" type="line"/>
      <point x="773.6651515151515" y="674.4344696969697" type="line"/>
      <point x="761.135606060606" y="539.0723484848485" type="line"/>
      <point x="722.7375" y="0.0" type="line"/>
      <point x="873.9049242424243" y="0.0" type="line"/>
      <point x="886.8912878787879" y="747.0" type="line"/>
      <point x="667.5791666666667" y="747.0" type="line"/>
      <point x="483.42083333333335" y="231.83257575757577" type="line"/>
      <point x="460.0723484848485" y="130.00454545454545" type="line"/>
      <point x="455.9049242424243" y="231.83257575757577" type="line"/>
      <point x="409.4795454545455" y="747.0" type="line"/>
      <point x="194.83712121212122" y="747.0" type="line"/>
      <point x="-3.909469696969701" y="0.0" type="line"/>
      <point x="145.07689393939395" y="0.0" type="line"/>
      <point x="264.67424242424244" y="540.8234848484849" type="line"/>
      <point x="290.6606060606061" y="674.4344696969697" type="line"/>
      <point x="296.5655303030303" y="542.339393939394" type="line"/>
    </contour>
  </outline>
</glyph>
<glyph name="N" format="2">
  <advance width="717.9909090909091"/>
  <unicode hex="004E"/>
  <note>
N
</note>
  <anchor x="321.99545454545455" y="0.0" name="bottom"/>
  <anchor x="420.99545454545455" y="747.3397727272727" name="top"/>
  <outline>
    <contour>
      <point x="40.48863636363636" y="0.0" type="line"/>
      <point x="183.6560606060606" y="0.0" type="line"/>
      <point x="241.40719696969697" y="432.0996212121212" type="line"/>
      <point x="244.49318181818182" y="569.3666666666667" type="line"/>
      <point x="286.0723484848485" y="441.43901515151515" type="line"/>
      <point x="471.24886363636364" y="0.0" type="line"/>
      <point x="601.4208333333333" y="0.0" type="line"/>
      <point x="704.5700757575758" y="747.0" type="line"/>
      <point x="559.5159090909091" y="747.0" type="line"/>
      <point x="508.66515151515154" y="327.6606060606061" type="line"/>
      <point x="501.19469696969696" y="202.17651515151516" type="line"/>
      <point x="465.1810606060606" y="321.7102272727273" type="line"/>
      <point x="279.5068181818182" y="747.0" type="line"/>
      <point x="143.75113636363636" y="747.0" type="line"/>
    </contour>
  </outline>
</glyph>
<glyph name="O" format="2">
  <advance width="677.9090909090909"/>
  <unicode hex="004F"/>
  <note>
O
</note>
  <anchor x="300.43939393939394" y="0.0" name="bottom"/>
  <anchor x="350.43939393939394" y="374.0" name="center"/>
  <anchor x="431.8484848484849" y="10.0" name="ogonek"/>
  <anchor x="406.3484848484849" y="747.3484848484849" name="top"/>
  <anchor x="79.48484848484848" y="747.3484848484849" name="topleft"/>
  <anchor x="718.0454545454545" y="747.3484848484849" name="topright"/>
  <outline>
    <contour>
      <point x="302.56060606060606" y="-8.0" type="curve" smooth="yes"/>
      <point x="526.3787878787879" y="-8.0"/>
      <point x="660.9848484848485" y="205.21212121212122"/>
      <point x="660.9848484848485" y="455.030303030303" type="curve" smooth="yes"/>
      <point x="660.9848484848485" y="622.7272727272727"/>
      <point x="572.2121212121212" y="755.0"/>
      <point x="403.3030303030303" y="755.0" type="curve" smooth="yes"/>
      <point x="178.87878787878788" y="755.0"/>
      <point x="41.27272727272727" y="539.7878787878788"/>
      <point x="41.27272727272727" y="290.0151515151515" type="curve" smooth="yes"/>
      <point x="41.27272727272727" y="120.62121212121212"/>
      <point x="133.6969696969697" y="-8.0"/>
    </contour>
    <contour>
      <point x="316.25757575757575" y="105.62121212121212" type="curve" smooth="yes"/>
      <point x="246.27272727272728" y="105.62121212121212"/>
      <point x="197.66666666666669" y="164.93939393939394"/>
      <point x="196.62121212121212" y="298.6666666666667" type="curve" smooth="yes"/>
      <point x="195.92424242424244" y="446.42424242424244"/>
      <point x="263.24242424242425" y="640.6818181818181"/>
      <point x="385.3484848484849" y="640.6818181818181" type="curve" smooth="yes"/>
      <point x="457.72727272727275" y="640.6818181818181"/>
      <point x="504.93939393939394" y="588.3939393939394"/>
      <point x="505.6363636363636" y="448.9848484848485" type="curve" smooth="yes"/>
      <point x="506.3333333333333" y="296.92424242424244"/>
      <point x="441.0151515151515" y="105.62121212121212"/>
    </contour>
  </outline>
</glyph>
<glyph name="P" format="2">
  <advance width="1234.1969696969697"/>
  <unicode hex="0050"/>
  <note>
P
</note>
  <anchor x="543.2727272727273" y="0.0" name="bottom"/>
  <anchor x="741.2727272727273" y="1494.6969696969697" name="top"/>
  <outline>
    <contour>
      <point x="81.15151515151516" y="0.0" type="line"/>
      <point x="382.19696969696975" y="0.0" type="line"/>
      <point x="449.8484848484849" y="489.8484848484849" type="line"/>
      <point x="485.5" y="487.75757575757575"/>
      <point x="557.4848484848485" y="485.4090909090909"/>
      <point x="613.4242424242425" y="485.4090909090909" type="curve" smooth="yes"/>
      <point x="870.0151515151515" y="485.4090909090909"/>
      <point x="1066.878787878788" y="595.9242424242424"/>
      <point x="1167.2272727272727" y="780.2727272727273" type="curve" smooth="yes"/>
      <point x="1217.2272727272727" y="870.6212121212121"/>
      <point x="1241.9242424242425" y="974.3636363636364"/>
      <point x="1241.5757575757575" y="1090.8030303030303" type="curve" smooth="yes"/>
      <point x="1241.5757575757575" y="1367.9242424242425"/>
      <point x="1065.590909090909" y="1510.0"/>
      <point x="739.2727272727273" y="1510.0" type="curve" smooth="yes"/>
      <point x="671.530303030303" y="1510.0"/>
      <point x="462.7878787878788" y="1494.0"/>
      <point x="428.3333333333333" y="1494.0" type="curve" smooth="yes"/>
      <point x="287.4848484848485" y="1494.0" type="line"/>
    </contour>
    <contour>
      <point x="616.9848484848485" y="712.3939393939394" type="curve" smooth="yes"/>
      <point x="568.6363636363636" y="712.3939393939394"/>
      <point x="509.4090909090909" y="718.3939393939394"/>
      <point x="482.27272727272725" y="725.0909090909091" type="curve"/>
      <point x="559.4090909090909" y="1284.3939393939395" type="line"/>
      <point x="601.939393939394" y="1292.4848484848485"/>
      <point x="651.969696969697" y="1297.878787878788"/>
      <point x="685.9848484848485" y="1297.878787878788" type="curve" smooth="yes"/>
      <point x="868.1666666666666" y="1297.878787878788"/>
      <point x="945.1363636363636" y="1226.3030303030303"/>
      <point x="943.7424242424242" y="1083.7575757575758" type="curve" smooth="yes"/>
      <point x="932.1818181818181" y="840.5"/>
      <point x="835.2878787878788" y="712.7424242424242"/>
    </contour>
  </outline>
</glyph>
<glyph name="Q" format="2">
  <advance width="1357.469696969697"/>
  <unicode hex="0051"/>
  <note>
Q
</note>
  <anchor x="600.8787878787879" y="0.0" name="bottom"/>
  <anchor x="700.8787878787879" y="748.0" name="center"/>
  <anchor x="863.6969696969697" y="20.0" name="ogonek"/>
  <anchor x="812.6969696969697" y="1494.6969696969697" name="top"/>
  <anchor x="158.96969696969697" y="1494.6969696969697" name="topleft"/>
  <anchor x="1436.090909090909" y="1494.6969696969697" name="topright"/>
  <outline>
    <contour>
      <point x="862.1060606060606" y="-392.92424242424244" type="curve" smooth="yes"/>
      <point x="976.8030303030303" y="-392.92424242424244"/>
      <point x="1160.6818181818182" y="-354.5"/>
      <point x="1216.5" y="-305.469696969697" type="curve"/>
      <point x="1216.5" y="-121.4090909090909" type="line"/>
      <point x="1158.939393939394" y="-139.4090909090909"/>
      <point x="1061.121212121212" y="-148.1060606060606"/>
      <point x="946.3030303030303" y="-148.1060606060606" type="curve" smooth="yes"/>
      <point x="804.7272727272727" y="-148.1060606060606"/>
      <point x="699.0454545454545" y="-132.62121212121212"/>
      <point x="699.0454545454545" y="-24.515151515151516" type="curve" smooth="yes"/>
      <point x="699.0454545454545" y="-15.46969696969697"/>
      <point x="699.0454545454545" y="11.227272727272727"/>
      <point x="699.0454545454545" y="17.227272727272727" type="curve"/>
      <point x="510.74242424242425" y="17.833333333333332" type="line"/>
      <point x="496.57575757575756" y="-25.1969696969697"/>
      <point x="489.96969696969694" y="-88.66666666666667"/>
      <point x="489.96969696969694" y="-123.0" type="curve" smooth="yes"/>
      <point x="489.96969696969694" y="-310.21212121212125"/>
      <point x="649.2575757575758" y="-392.92424242424244"/>
    </contour>
    <component base="O"/>
  </outline>
</glyph>
<glyph name="R" format="2">
  <advance width="1291.090909090909"/>
  <unicode hex="0052"/>
  <note>
R
</note>
  <anchor x="571.5454545454545" y="0.0" name="bottom"/>
  <anchor x="725.9848484848485" y="1494.0" name="top"/>
  <outline>
    <contour>
      <point x="80.45454545454545" y="0.0" type="line"/>
      <point x="381.8484848484849" y="0.0" type="line"/>
      <point x="464.4545454545455" y="582.6515151515151" type="line"/>
      <point x="630.3939393939394" y="582.3030303030303" type="line" smooth="yes"/>
      <point x="689.3787878787879" y="579.5151515151515"/>
      <point x="751.7272727272727" y="422.6363636363636"/>
      <point x="784.6969696969697" y="298.0" type="curve" smooth="yes"/>
      <point x="812.1969696969697" y="215.93939393939394"/>
      <point x="853.5" y="41.833333333333336"/>
      <point x="882.1969696969697" y="0.0" type="curve"/>
      <point x="1217.1515151515152" y="0.0" type="line"/>
      <point x="1174.4545454545455" y="61.04545454545455"/>
      <point x="1127.2121212121212" y="195.6969696969697"/>
      <point x="1065.8181818181818" y="372.6363636363636" type="curve" smooth="yes"/>
      <point x="1029.3030303030303" y="486.7878787878788"/>
      <point x="981.7272727272727" y="588.8030303030303"/>
      <point x="929.469696969697" y="636.4545454545455" type="curve"/>
      <point x="1148.5151515151515" y="703.5"/>
      <point x="1255.8333333333333" y="893.060606060606"/>
      <point x="1255.8333333333333" y="1132.969696969697" type="curve" smooth="yes"/>
      <point x="1255.8333333333333" y="1381.0454545454545"/>
      <point x="1096.439393939394" y="1510.0"/>
      <point x="742.8333333333334" y="1510.0" type="curve" smooth="yes"/>
      <point x="669.1060606060606" y="1510.0"/>
      <point x="518.030303030303" y="1494.0"/>
      <point x="454.90909090909093" y="1494.0" type="curve" smooth="yes"/>
      <point x="287.1363636363636" y="1494.0" type="line"/>
    </contour>
    <contour>
      <point x="693.939393939394" y="815.5454545454545" type="curve" smooth="yes"/>
      <point x="596.0151515151515" y="815.5454545454545"/>
      <point x="529.5757575757576" y="815.5454545454545"/>
      <point x="495.5757575757576" y="817.5454545454545" type="curve"/>
      <point x="559.4090909090909" y="1285.090909090909" type="line"/>
      <point x="591.8484848484849" y="1291.090909090909"/>
      <point x="665.1818181818182" y="1296.8333333333333"/>
      <point x="713.6212121212121" y="1296.8333333333333" type="curve" smooth="yes"/>
      <point x="871.6363636363636" y="1296.8333333333333"/>
      <point x="955.1212121212121" y="1249.3333333333333"/>
      <point x="955.469696969697" y="1114.7272727272727" type="curve" smooth="yes"/>
      <point x="957.560606060606" y="950.7727272727273"/>
      <point x="875.0151515151515" y="815.5454545454545"/>
    </contour>
  </outline>
</glyph>
<glyph name="S" format="2">
  <advance width="1028.4242424242425"/>
  <unicode hex="0053"/>
  <note>
S
</note>
  <anchor x="441.56060606060606" y="0.0" name="bottom"/>
  <anchor x="668.060606060606" y="1494.0" name="top"/>
  <outline>
    <contour>
      <point x="382.6969696969697" y="-16.0" type="curve" smooth="yes"/>
      <point x="696.939393939394" y="-16.0"/>
      <point x="936.6666666666666" y="127.21212121212122"/>
      <point x="936.6666666666666" y="434.75757575757575" type="curve" smooth="yes"/>
      <point x="936.6666666666666" y="603.7272727272727"/>
      <point x="825.969696969697" y="720.5909090909091"/>
      <point x="656.6515151515151" y="848.2424242424242" type="curve" smooth="yes"/>
      <point x="550.1212121212121" y="929.1969696969697"/>
      <point x="457.75757575757575" y="1021.8484848484849"/>
      <point x="458.4545454545455" y="1118.121212121212" type="curve" smooth="yes"/>
      <point x="460.19696969696975" y="1217.030303030303"/>
      <point x="539.969696969697" y="1274.2424242424242"/>
      <point x="667.2878787878788" y="1274.2424242424242" type="curve" smooth="yes"/>
      <point x="761.1969696969697" y="1274.2424242424242"/>
      <point x="872.939393939394" y="1238.0757575757575"/>
      <point x="921.7272727272727" y="1189.2878787878788" type="curve"/>
      <point x="1017.439393939394" y="1426.0" type="line"/>
      <point x="958.0454545454545" y="1469.3939393939395"/>
      <point x="826.7575757575758" y="1510.0"/>
      <point x="670.3181818181819" y="1510.0" type="curve" smooth="yes"/>
      <point x="384.5151515151515" y="1510.0"/>
      <point x="168.1818181818182" y="1356.621212121212"/>
      <point x="168.1818181818182" y="1080.3787878787878" type="curve" smooth="yes"/>
      <point x="168.1818181818182" y="904.969696969697"/>
      <point x="277.3181818181818" y="772.4545454545455"/>
      <point x="434.9090909090909" y="657.2272727272727" type="curve" smooth="yes"/>
      <point x="563.8787878787879" y="564.530303030303"/>
      <point x="627.2727272727273" y="495.1969696969697"/>
      <point x="627.2727272727273" y="400.6666666666667" type="curve" smooth="yes"/>
      <point x="627.2727272727273" y="286.8939393939394"/>
      <point x="546.969696969697" y="223.75757575757575"/>
      <point x="395.2121212121212" y="223.75757575757575" type="curve" smooth="yes"/>
      <point x="299.8181818181818" y="223.75757575757575"/>
      <point x="160.92424242424244" y="273.40909090909093"/>
      <point x="103.28787878787878" y="322.0151515151515" type="curve"/>
      <point x="5.4090909090909065" y="76.95454545454545" type="line"/>
      <point x="60.36363636363636" y="31.303030303030305"/>
      <point x="268.5151515151515" y="-16.0"/>
    </contour>
  </outline>
</glyph>
<glyph name="T" format="2">
  <advance width="1117.2878787878788"/>
  <unicode hex="0054"/>
  <note>
T
</note>
  <anchor x="485.469696969697" y="0.0" name="bottom"/>
  <anchor x="585.469696969697" y="748.3484848484849" name="center"/>
  <anchor x="683.469696969697" y="1494.6969696969697" name="top"/>
  <outline>
    <contour>
      <point x="325.5151515151515" y="0.0" type="line"/>
      <point x="631.1666666666667" y="0.0" type="line"/>
      <point x="805.4242424242425" y="1269.8030303030303" type="line"/>
      <point x="1168.939393939394" y="1259.4545454545455" type="line"/>
      <point x="1202.6666666666667" y="1494.0" type="line"/>
      <point x="167.9848484848485" y="1494.0" type="line"/>
      <point x="130.25757575757575" y="1259.4545454545455" type="line"/>
      <point x="501.07575757575756" y="1269.8030303030303" type="line"/>
    </contour>
  </outline>
</glyph>
<glyph name="U" format="2">
  <advance width="1384.3939393939395"/>
  <unicode hex="0055"/>
  <note>
U
</note>
  <anchor x="619.1969696969697" y="0.0" name="bottom"/>
  <anchor x="835.5909090909091" y="0.0" name="ogonek"/>
  <anchor x="813.3636363636364" y="1494.6969696969697" name="top"/>
  <anchor x="1468.3939393939395" y="1494.6969696969697" name="topright"/>
  <outline>
    <contour>
      <point x="600.7727272727273" y="-16.0" type="curve" smooth="yes"/>
      <point x="865.0909090909091" y="-16.0"/>
      <point x="1038.2121212121212" y="60.696969696969695"/>
      <point x="1142.469696969697" y="239.13636363636363" type="curve" smooth="yes"/>
      <point x="1194.1212121212122" y="326.8787878787879"/>
      <point x="1229.4242424242425" y="444.6212121212121"/>
      <point x="1249.4242424242425" y="592.0151515151515" type="curve" smooth="yes"/>
      <point x="1372.5454545454545" y="1494.0" type="line"/>
      <point x="1073.8484848484848" y="1494.0" type="line"/>
      <point x="954.3787878787879" y="622.439393939394" type="line" smooth="yes"/>
      <point x="918.5454545454545" y="380.1060606060606"/>
      <point x="832.7878787878788" y="218.63636363636365"/>
      <point x="647.1060606060606" y="218.63636363636365" type="curve" smooth="yes"/>
      <point x="493.6969696969697" y="218.63636363636365"/>
      <point x="425.5" y="282.57575757575756"/>
      <point x="425.5" y="441.56060606060606" type="curve" smooth="yes"/>
      <point x="425.5" y="505.1969696969697"/>
      <point x="433.40909090909093" y="563.8939393939394"/>
      <point x="440.1060606060606" y="622.5151515151515" type="curve" smooth="yes"/>
      <point x="560.2727272727273" y="1494.0" type="line"/>
      <point x="258.530303030303" y="1494.0" type="line"/>
      <point x="134.71212121212122" y="582.9545454545455" type="line" smooth="yes"/>
      <point x="124.7121212121212" y="513.2878787878788"/>
      <point x="120.7121212121212" y="464.1666666666667"/>
      <point x="120.7121212121212" y="423.74242424242425" type="curve" smooth="yes"/>
      <point x="122.01515151515152" y="145.3939393939394"/>
      <point x="281.92424242424244" y="-16.0"/>
    </contour>
  </outline>
</glyph>
<glyph name="V" format="2">
  <advance width="592.8958333333334"/>
  <unicode hex="0056"/>
  <note>
V
</note>
  <anchor x="259.5655303030303" y="0.0" name="bottom"/>
  <anchor x="358.5655303030303" y="747.3397727272727" name="top"/>
  <outline>
    <contour>
      <point x="167.58825757575758" y="0.0" type="line"/>
      <point x="339.75113636363636" y="0.0" type="line"/>
      <point x="667.6560606060606" y="747.0" type="line"/>
      <point x="507.3530303030303" y="747.0" type="line"/>
      <point x="317.0768939393939" y="251.48863636363637" type="line"/>
      <point x="277.9094696969697" y="129.32575757575756" type="line"/>
      <point x="268.74204545454546" y="251.48863636363637" type="line"/>
      <point x="204.3212121212121" y="747.0" type="line"/>
      <point x="53.85075757575757" y="747.0" type="line"/>
    </contour>
  </outline>
</glyph>
<glyph name="W" format="2">
  <advance width="875.9140151515152"/>
  <unicode hex="0057"/>
  <note>
W
</note>
  <anchor x="401.01363636363635" y="0.0" name="bottom"/>
  <anchor x="500.01363636363635" y="747.3397727272727" name="top"/>
  <outline>
    <contour>
      <point x="148.74204545454546" y="-1.4026515151515149" type="line"/>
      <point x="307.339393939394" y="-1.4026515151515149" type="line"/>
      <point x="423.2534090909091" y="310.19469696969696" type="line"/>
      <point x="452.4344696969697" y="392.9003787878788" type="line"/>
      <point x="460.5022727272727" y="310.19469696969696" type="line"/>
      <point x="493.9909090909091" y="-1.4026515151515149" type="line"/>
      <point x="665.9863636363636" y="-1.4026515151515149" type="line"/>
      <point x="961.0045454545455" y="747.0" type="line"/>
      <point x="806.3530303030303" y="747.0" type="line"/>
      <point x="631.5655303030303" y="252.42083333333335" type="line"/>
      <point x="602.525" y="144.58825757575758" type="line"/>
      <point x="592.5791666666667" y="252.6560606060606" type="line"/>
      <point x="555.6424242424242" y="747.0" type="line"/>
      <point x="408.9367424242424" y="747.0" type="line"/>
      <point x="424.9503787878788" y="599.1628787878788" type="line"/>
      <point x="286.9276515151515" y="252.42083333333335" type="line"/>
      <point x="254.7465909090909" y="144.58825757575758" type="line"/>
      <point x="243.3439393939394" y="252.6560606060606" type="line"/>
      <point x="203.3212121212121" y="747.0" type="line"/>
      <point x="51.4344696969697" y="747.0" type="line"/>
    </contour>
  </outline>
</glyph>
<glyph name="X" format="2">
  <advance width="1189.6060606060605"/>
  <unicode hex="0058"/>
  <note>
X
</note>
  <anchor x="521.8030303030303" y="0.0" name="bottom"/>
  <anchor x="719.8030303030303" y="1494.6969696969697" name="top"/>
  <outline>
    <contour>
      <point x="-85.1969696969697" y="0.0" type="line"/>
      <point x="256.8939393939394" y="0.0" type="line"/>
      <point x="591.8030303030303" y="543.7878787878788" type="line"/>
      <point x="801.0454545454545" y="0.0" type="line"/>
      <point x="1133.7424242424242" y="0.0" type="line"/>
      <point x="794.439393939394" y="723.2272727272727" type="line"/>
      <point x="1324.0" y="1494.0" type="line"/>
      <point x="994.0" y="1494.0" type="line"/>
      <point x="663.439393939394" y="982.3787878787879" type="line"/>
      <point x="475.1515151515152" y="1494.0" type="line"/>
      <point x="150.45454545454544" y="1494.0" type="line"/>
      <point x="463.75757575757575" y="785.469696969697" type="line"/>
    </contour>
  </outline>
</glyph>
<glyph name="Y" format="2">
  <advance width="556.6742424242424"/>
  <unicode hex="0059"/>
  <note>
Y
</note>
  <anchor x="241.51136363636363" y="0.0" name="bottom"/>
  <anchor x="340.5113636363636" y="747.3397727272727" name="top"/>
  <anchor x="82.0" y="747.3397727272727" name="topleft"/>
  <outline>
    <contour>
      <point x="163.9909090909091" y="0.0" type="line"/>
      <point x="313.1719696969697" y="0.0" type="line"/>
      <point x="353.00454545454545" y="288.0" type="line"/>
      <point x="645.0723484848485" y="747.0" type="line"/>
      <point x="478.7556818181818" y="747.0" type="line"/>
      <point x="322.3121212121212" y="467.067803030303" type="line"/>
      <point x="296.57916666666665" y="409.58825757575755" type="line"/>
      <point x="283.41174242424245" y="467.067803030303" type="line"/>
      <point x="199.2352272727273" y="747.0" type="line"/>
      <point x="41.0" y="747.0" type="line"/>
      <point x="203.82348484848484" y="288.0" type="line"/>
    </contour>
  </outline>
</glyph>
<glyph name="Z" format="2">
  <advance width="565.0"/>
  <unicode hex="005A"/>
  <note>
Z
</note>
  <anchor x="246.0" y="0.0" name="bottom"/>
  <anchor x="296.0" y="374.1132575757576" name="center"/>
  <anchor x="367.18030303030304" y="747.3397727272727" name="top"/>
  <outline>
    <contour>
      <point x="-8.090530303030306" y="0.0" type="line"/>
      <point x="489.3484848484849" y="0.0" type="line"/>
      <point x="509.42992424242425" y="125.48863636363637" type="line"/>
      <point x="188.40265151515155" y="120.14015151515153" type="line"/>
      <point x="235.23977272727274" y="166.41174242424242" type="line"/>
      <point x="603.4931818181818" y="705.0" type="line"/>
      <point x="591.9094696969697" y="747.0" type="line"/>
      <point x="126.23522727272727" y="747.0" type="line"/>
      <point x="107.50227272727273" y="624.6924242424242" type="line"/>
      <point x="408.4435606060606" y="630.2761363636364" type="line"/>
      <point x="357.4931818181818" y="584.0859848484848" type="line"/>
      <point x="-21.325757575757578" y="43.0" type="line"/>
    </contour>
  </outline>
</glyph>
<glyph name="bracketleft" format="2">
  <advance width="393.8776515151515"/>
  <unicode hex="005B"/>
  <note>
bracketleft
</note>
  <outline>
    <contour>
      <point x="135.96818181818182" y="-116.4253787878788" type="curve" smooth="yes"/>
      <point x="194.5621212121212" y="-116.4253787878788"/>
      <point x="237.13030303030303" y="-106.81931818181819"/>
      <point x="293.0450757575758" y="-90.47954545454546" type="curve"/>
      <point x="302.2939393939394" y="-18.737499999999997" type="line"/>
      <point x="174.72386363636366" y="-18.737499999999997" type="line"/>
      <point x="280.7780303030303" y="774.2670454545455" type="line"/>
      <point x="407.8098484848485" y="774.2670454545455" type="line"/>
      <point x="418.71022727272725" y="847.4253787878788" type="line"/>
      <point x="396.339393939394" y="854.1901515151516"/>
      <point x="309.38863636363635" y="870.4253787878788"/>
      <point x="267.6333333333333" y="870.4253787878788" type="curve" smooth="yes"/>
      <point x="191.26742424242425" y="870.4253787878788"/>
      <point x="159.01363636363638" y="829.040909090909"/>
      <point x="146.48409090909092" y="734.5655303030303" type="curve" smooth="yes"/>
      <point x="46.23522727272727" y="20.32121212121212" type="line" smooth="yes"/>
      <point x="43.58371212121212" y="3.094696969696969"/>
      <point x="42.34848484848485" y="-14.905303030303031"/>
      <point x="42.34848484848485" y="-33.5655303030303" type="curve" smooth="yes"/>
      <point x="42.34848484848485" y="-88.33030303030303"/>
      <point x="75.20340909090909" y="-116.4253787878788"/>
    </contour>
  </outline>
</glyph>
<glyph name="backslash" format="2">
  <advance width="834.0"/>
  <unicode hex="005C"/>
  <note>
backslash
</note>
  <outline>
    <contour>
      <point x="573.9242424242424" y="-354.0" type="line"/>
      <point x="810.3939393939394" y="-354.0" type="line"/>
      <point x="246.3939393939394" y="1560.0" type="line"/>
      <point x="11.924242424242422" y="1560.0" type="line"/>
    </contour>
  </outline>
</glyph>
<glyph name="asciicircum" format="2">
  <advance width="1332.0"/>
  <unicode hex="005E"/>
  <note>
asciicircum
</note>
  <outline>
    <contour>
      <point x="137.93939393939394" y="498.0" type="line"/>
      <point x="377.3636363636364" y="498.0" type="line"/>
      <point x="744.439393939394" y="1182.878787878788" type="line"/>
      <point x="912.6363636363636" y="498.0" type="line"/>
      <point x="1149.3636363636365" y="498.0" type="line"/>
      <point x="890.8484848484849" y="1495.6515151515152" type="line"/>
      <point x="650.0151515151515" y="1495.6515151515152" type="line"/>
    </contour>
  </outline>
</glyph>
<glyph name="grave" format="2">
  <advance width="532.2575757575758"/>
  <unicode hex="0060"/>
  <note>
grave
</note>
  <anchor x="72.0" y="1114.0" name="_top"/>
  <anchor x="134.0" y="1584.0" name="top"/>
  <outline>
    <contour>
      <point x="402.1818181818182" y="1207.060606060606" type="curve"/>
      <point x="512.6818181818182" y="1294.6969696969697" type="line"/>
      <point x="199.57575757575756" y="1719.4545454545455" type="line"/>
      <point x="11.606060606060602" y="1542.878787878788" type="line"/>
      <point x="53.09090909090908" y="1462.439393939394"/>
      <point x="302.0151515151515" y="1244.3636363636363"/>
    </contour>
  </outline>
</glyph>
<glyph name="a" format="2">
  <advance width="1194.030303030303"/>
  <unicode hex="0061"/>
  <note>
a
</note>
  <anchor x="528.5757575757576" y="0.0" name="bottom"/>
  <anchor x="1001.2424242424242" y="20.0" name="ogonek"/>
  <anchor x="734.4848484848485" y="1114.0" name="top"/>
  <outline>
    <contour>
      <point x="392.1666666666667" y="-16.0" type="curve" smooth="yes"/>
      <point x="536.7727272727273" y="-16.0"/>
      <point x="651.560606060606" y="90.68181818181819"/>
      <point x="721.1363636363636" y="225.27272727272728" type="curve"/>
      <point x="709.0454545454545" y="0.0" type="line"/>
      <point x="979.2272727272727" y="0.0" type="line"/>
      <point x="1134.530303030303" y="1128.0" type="line"/>
      <point x="975.6969696969697" y="1087.4848484848485" type="line"/>
      <point x="906.7424242424242" y="1109.7424242424242"/>
      <point x="812.8333333333334" y="1128.0"/>
      <point x="738.6666666666666" y="1128.0" type="curve" smooth="yes"/>
      <point x="338.07575757575756" y="1128.0"/>
      <point x="71.48484848484848" y="807.469696969697"/>
      <point x="71.48484848484848" y="403.04545454545456" type="curve" smooth="yes"/>
      <point x="71.48484848484848" y="150.5151515151515"/>
      <point x="170.53030303030303" y="-16.0"/>
    </contour>
    <contour>
      <point x="488.3787878787879" y="192.9090909090909" type="curve" smooth="yes"/>
      <point x="413.6515151515152" y="192.9090909090909"/>
      <point x="386.3484848484849" y="287.04545454545456"/>
      <point x="386.3484848484849" y="424.43939393939394" type="curve" smooth="yes"/>
      <point x="386.3484848484849" y="591.1363636363636"/>
      <point x="435.4848484848485" y="762.7121212121212"/>
      <point x="534.1969696969697" y="866.6363636363636" type="curve" smooth="yes"/>
      <point x="582.7272727272727" y="917.7727272727273"/>
      <point x="642.6515151515151" y="943.5151515151515"/>
      <point x="713.2727272727273" y="943.5151515151515" type="curve" smooth="yes"/>
      <point x="749.8939393939394" y="943.5151515151515"/>
      <point x="782.8636363636364" y="939.7727272727273"/>
      <point x="809.9242424242424" y="931.9393939393939" type="curve"/>
      <point x="752.7727272727273" y="527.8787878787879" type="line"/>
      <point x="704.1363636363636" y="400.6515151515151"/>
      <point x="596.1363636363636" y="192.9090909090909"/>
    </contour>
  </outline>
</glyph>
<glyph name="b" format="2">
  <advance width="1223.7575757575758"/>
  <unicode hex="0062"/>
  <note>
b
</note>
  <anchor x="537.8787878787879" y="0.0" name="bottom"/>
  <anchor x="839.1515151515151" y="1114.0" name="top"/>
  <outline>
    <contour>
      <point x="477.1666666666667" y="-16.0" type="curve" smooth="yes"/>
      <point x="765.939393939394" y="-16.0"/>
      <point x="971.7575757575758" y="140.53030303030303"/>
      <point x="1073.5757575757575" y="361.92424242424244" type="curve" smooth="yes"/>
      <point x="1123.8333333333333" y="471.92424242424244"/>
      <point x="1148.7878787878788" y="586.530303030303"/>
      <point x="1148.7878787878788" y="708.0" type="curve" smooth="yes"/>
      <point x="1148.7878787878788" y="959.8333333333334"/>
      <point x="1049.7424242424242" y="1128.0"/>
      <point x="828.4545454545455" y="1128.0" type="curve" smooth="yes"/>
      <point x="672.7272727272727" y="1128.0"/>
      <point x="554.8939393939394" y="1008.6363636363636"/>
      <point x="485.22727272727275" y="863.969696969697" type="curve"/>
      <point x="509.75757575757575" y="1002.4393939393939" type="line"/>
      <point x="583.7424242424242" y="1597.0454545454545" type="line"/>
      <point x="294.0" y="1597.0454545454545" type="line"/>
      <point x="76.43939393939394" y="-4.530303030303029" type="line"/>
      <point x="235.87878787878788" y="27.81818181818182" type="line"/>
      <point x="302.22727272727275" y="4.257575757575758"/>
      <point x="402.6515151515151" y="-16.0"/>
    </contour>
    <contour>
      <point x="502.90909090909093" y="170.83333333333334" type="curve" smooth="yes"/>
      <point x="463.33333333333337" y="170.83333333333334"/>
      <point x="430.0151515151515" y="174.57575757575756"/>
      <point x="404.0" y="181.71212121212122" type="curve"/>
      <point x="458.1060606060606" y="573.6969696969697" type="line"/>
      <point x="501.3484848484849" y="691.9545454545455"/>
      <point x="618.4090909090909" y="916.4848484848485"/>
      <point x="730.5909090909091" y="916.4848484848485" type="curve" smooth="yes"/>
      <point x="803.2272727272727" y="916.4848484848485"/>
      <point x="832.2727272727273" y="829.3181818181818"/>
      <point x="832.2727272727273" y="685.6515151515151" type="curve" smooth="yes"/>
      <point x="832.2727272727273" y="521.560606060606"/>
      <point x="781.7424242424242" y="349.2878787878788"/>
      <point x="684.3333333333334" y="247.36363636363637" type="curve" smooth="yes"/>
      <point x="633.8030303030303" y="196.5757575757576"/>
      <point x="573.8787878787879" y="170.83333333333334"/>
    </contour>
  </outline>
</glyph>
<glyph name="c" format="2">
  <advance width="919.3636363636364"/>
  <unicode hex="0063"/>
  <note>
c
</note>
  <anchor x="478.5" y="0.0" name="bottom"/>
  <anchor x="654.1666666666666" y="1114.0" name="top"/>
  <outline>
    <contour>
      <point x="469.030303030303" y="-16.0" type="curve" smooth="yes"/>
      <point x="643.8484848484849" y="-16.0"/>
      <point x="799.439393939394" y="81.22727272727272"/>
      <point x="860.9090909090909" y="174.77272727272728" type="curve"/>
      <point x="781.8787878787879" y="323.9545454545455" type="line"/>
      <point x="719.2424242424242" y="259.06060606060606"/>
      <point x="623.9545454545455" y="204.9848484848485"/>
      <point x="543.8636363636364" y="204.9848484848485" type="curve" smooth="yes"/>
      <point x="423.93939393939394" y="204.9848484848485"/>
      <point x="384.0909090909091" y="294.8939393939394"/>
      <point x="384.0909090909091" y="473.8030303030303" type="curve" smooth="yes"/>
      <point x="384.0909090909091" y="611.7727272727273"/>
      <point x="436.8939393939394" y="743.8939393939394"/>
      <point x="510.5757575757576" y="821.8181818181818" type="curve" smooth="yes"/>
      <point x="551.8030303030303" y="868.0757575757575"/>
      <point x="600.2424242424242" y="895.2878787878788"/>
      <point x="646.0757575757576" y="895.2878787878788" type="curve" smooth="yes"/>
      <point x="714.1666666666666" y="895.2878787878788"/>
      <point x="795.4545454545455" y="843.2272727272727"/>
      <point x="836.939393939394" y="803.2272727272727" type="curve"/>
      <point x="910.8333333333334" y="1087.7424242424242" type="line"/>
      <point x="857.8787878787879" y="1112.439393939394"/>
      <point x="748.3333333333334" y="1128.0"/>
      <point x="669.9848484848485" y="1128.0" type="curve" smooth="yes"/>
      <point x="436.5909090909091" y="1128.0"/>
      <point x="248.77272727272728" y="994.8484848484849"/>
      <point x="150.0" y="781.1060606060606" type="curve" smooth="yes"/>
      <point x="100.43939393939394" y="674.060606060606"/>
      <point x="75.48484848484848" y="556.2424242424242"/>
      <point x="75.48484848484848" y="429.56060606060606" type="curve" smooth="yes"/>
      <point x="75.48484848484848" y="168.5909090909091"/>
      <point x="225.03030303030303" y="-16.0"/>
    </contour>
  </outline>
</glyph>
<glyph name="d" format="2">
  <advance width="606.0045454545455"/>
  <unicode hex="0064"/>
  <note>
d
</note>
  <anchor x="266.17651515151516" y="0.0" name="bottom"/>
  <anchor x="303.17651515151516" y="279.0" name="center"/>
  <anchor x="265.0" y="557.0" name="top"/>
  <anchor x="623.0045454545455" y="557.0" name="topright"/>
  <outline>
    <contour>
      <point x="195.6651515151515" y="-8.0" type="curve" smooth="yes"/>
      <point x="272.9818181818182" y="-8.0"/>
      <point x="331.42992424242425" y="52.23068181818182"/>
      <point x="366.5837121212121" y="123.6375" type="curve"/>
      <point x="358.5837121212121" y="0.0" type="line"/>
      <point x="493.9185606060606" y="0.0" type="line"/>
      <point x="598.3212121212122" y="798.5837121212121" type="line"/>
      <point x="451.68333333333334" y="798.5837121212121" type="line"/>
      <point x="419.33484848484846" y="560.5973484848485" type="line"/>
      <point x="402.37083333333334" y="562.7647727272728"/>
      <point x="385.8007575757576" y="564.0"/>
      <point x="370.57916666666665" y="564.0" type="curve" smooth="yes"/>
      <point x="228.09507575757576" y="564.0"/>
      <point x="124.24886363636364" y="486.66515151515154"/>
      <point x="74.0" y="375.66515151515154" type="curve" smooth="yes"/>
      <point x="48.16742424242424" y="319.66515151515154"/>
      <point x="35.51590909090909" y="261.5973484848485"/>
      <point x="35.51590909090909" y="201.58371212121213" type="curve" smooth="yes"/>
      <point x="35.51590909090909" y="75.24886363636364"/>
      <point x="84.98636363636363" y="-8.0"/>
    </contour>
    <contour>
      <point x="243.82348484848484" y="97.92310606060606" type="curve" smooth="yes"/>
      <point x="207.56628787878788" y="97.92310606060606"/>
      <point x="193.0" y="141.70871212121213"/>
      <point x="193.0" y="212.16742424242423" type="curve" smooth="yes"/>
      <point x="193.0" y="295.16742424242426"/>
      <point x="218.22159090909093" y="381.4344696969697"/>
      <point x="267.89128787878786" y="433.3530303030303" type="curve" smooth="yes"/>
      <point x="292.339393939394" y="458.8689393939394"/>
      <point x="322.25795454545454" y="471.6878787878788"/>
      <point x="357.76022727272726" y="471.6878787878788" type="curve" smooth="yes"/>
      <point x="375.4977272727273" y="471.6878787878788"/>
      <point x="391.3484848484849" y="469.7556818181818"/>
      <point x="405.8507575757576" y="465.00454545454545" type="curve"/>
      <point x="379.13560606060605" y="269.3973484848485" type="line"/>
      <point x="355.92386363636365" y="208.71098484848486"/>
      <point x="297.7594696969697" y="97.92310606060606"/>
    </contour>
  </outline>
</glyph>
<glyph name="e" format="2">
  <advance width="1063.6969696969697"/>
  <unicode hex="0065"/>
  <note>
e
</note>
  <anchor x="503.3787878787879" y="0.0" name="bottom"/>
  <anchor x="751.8939393939394" y="20.0" name="ogonek"/>
  <anchor x="686.8484848484849" y="1114.0" name="top"/>
  <outline>
    <contour>
      <point x="486.6818181818182" y="-16.0" type="curve" smooth="yes"/>
      <point x="654.0454545454545" y="-16.0"/>
      <point x="866.3939393939394" y="86.01515151515152"/>
      <point x="951.5" y="203.28787878787878" type="curve"/>
      <point x="872.3030303030303" y="353.5151515151515" type="line"/>
      <point x="801.2272727272727" y="272.4545454545455"/>
      <point x="661.4242424242425" y="194.9090909090909"/>
      <point x="553.8636363636364" y="194.9090909090909" type="curve" smooth="yes"/>
      <point x="443.22727272727275" y="194.9090909090909"/>
      <point x="399.3030303030303" y="254.77272727272728"/>
      <point x="393.04545454545456" y="356.8030303030303" type="curve" smooth="yes"/>
      <point x="393.04545454545456" y="365.8484848484849"/>
      <point x="393.04545454545456" y="375.8484848484849"/>
      <point x="393.04545454545456" y="386.1969696969697" type="curve"/>
      <point x="719.7272727272727" y="453.030303030303"/>
      <point x="1004.469696969697" y="601.560606060606"/>
      <point x="1004.469696969697" y="875.4848484848485" type="curve" smooth="yes"/>
      <point x="1004.469696969697" y="1017.469696969697"/>
      <point x="900.3030303030303" y="1128.0"/>
      <point x="690.5909090909091" y="1128.0" type="curve" smooth="yes"/>
      <point x="460.6818181818182" y="1128.0"/>
      <point x="264.95454545454544" y="1001.2121212121212"/>
      <point x="158.0909090909091" y="786.8636363636364" type="curve" smooth="yes"/>
      <point x="103.83333333333333" y="680.1666666666666"/>
      <point x="75.83333333333333" y="560.1666666666666"/>
      <point x="75.48484848484848" y="428.8636363636364" type="curve" smooth="yes"/>
      <point x="75.13636363636364" y="268.25757575757575"/>
      <point x="130.0909090909091" y="127.65151515151516"/>
      <point x="254.6060606060606" y="45.65151515151515" type="curve" smooth="yes"/>
      <point x="315.56060606060606" y="4.0"/>
      <point x="393.1212121212121" y="-16.0"/>
    </contour>
    <contour>
      <point x="391.83333333333337" y="548.6969696969697" type="curve"/>
      <point x="397.31818181818187" y="635.1666666666666"/>
      <point x="422.04545454545456" y="760.6666666666666"/>
      <point x="490.24242424242425" y="851.0151515151515" type="curve" smooth="yes"/>
      <point x="533.2878787878788" y="909.6969696969697"/>
      <point x="571.560606060606" y="951.2424242424242"/>
      <point x="623.0454545454545" y="951.2424242424242" type="curve" smooth="yes"/>
      <point x="684.0151515151515" y="951.2424242424242"/>
      <point x="710.9848484848485" y="920.5454545454545"/>
      <point x="710.9848484848485" y="846.7121212121212" type="curve" smooth="yes"/>
      <point x="710.9848484848485" y="694.6969696969697"/>
      <point x="536.3939393939394" y="556.0"/>
    </contour>
  </outline>
</glyph>
<glyph name="f" format="2">
  <advance width="363.7284090909091"/>
  <unicode hex="0066"/>
  <note>
f
</note>
  <anchor x="144.98181818181817" y="0.0" name="bottom"/>
  <anchor x="295.1363636363636" y="793.8787878787879" name="top"/>
  <outline>
    <contour>
      <point x="59.25340909090909" y="0.0" type="line"/>
      <point x="207.42083333333335" y="0.0" type="line"/>
      <point x="270.23977272727274" y="459.5204545454545" type="line"/>
      <point x="366.14469696969695" y="459.5204545454545" type="line"/>
      <point x="377.1583333333333" y="557.0" type="line"/>
      <point x="282.00454545454545" y="557.0" type="line"/>
      <point x="294.72386363636366" y="632.8325757575758" type="line" smooth="yes"/>
      <point x="303.7151515151515" y="691.8556818181818"/>
      <point x="328.03636363636366" y="720.5068181818182"/>
      <point x="367.9412878787879" y="720.5068181818182" type="curve" smooth="yes"/>
      <point x="393.9276515151515" y="720.7420454545454"/>
      <point x="418.3121212121212" y="708.5386363636363"/>
      <point x="427.8280303030303" y="699.4931818181818" type="curve"/>
      <point x="456.4253787878788" y="804.5159090909091" type="line"/>
      <point x="435.5386363636364" y="812.7511363636363"/>
      <point x="407.9412878787879" y="816.7511363636363"/>
      <point x="373.5113636363636" y="816.7511363636363" type="curve" smooth="yes"/>
      <point x="290.02234848484846" y="816.7511363636363"/>
      <point x="224.99507575757576" y="781.1083333333333"/>
      <point x="184.09469696969697" y="718.9359848484848" type="curve" smooth="yes"/>
      <point x="163.5564393939394" y="686.4655303030303"/>
      <point x="149.669696969697" y="648.9409090909091"/>
      <point x="144.08598484848486" y="606.4840909090909" type="curve" smooth="yes"/>
      <point x="135.01818181818183" y="557.0" type="line"/>
      <point x="78.0996212121212" y="557.0" type="line"/>
      <point x="59.85075757575757" y="459.5204545454545" type="line"/>
      <point x="122.07234848484849" y="459.5204545454545" type="line"/>
    </contour>
  </outline>
</glyph>
<glyph name="g" format="2">
  <advance width="1207.939393939394"/>
  <unicode hex="0067"/>
  <note>
g
</note>
  <anchor x="457.969696969697" y="-546.0" name="bottom"/>
  <anchor x="736.8484848484849" y="1114.0" name="top"/>
  <outline>
    <contour>
      <point x="382.95454545454544" y="-500.8636363636364" type="curve" smooth="yes"/>
      <point x="577.3484848484849" y="-500.8636363636364"/>
      <point x="753.5" y="-448.95454545454544"/>
      <point x="867.060606060606" y="-316.1818181818182" type="curve" smooth="yes"/>
      <point x="923.6666666666666" y="-247.66666666666666"/>
      <point x="963.2272727272727" y="-158.54545454545453"/>
      <point x="978.530303030303" y="-46.12121212121211" type="curve" smooth="yes"/>
      <point x="1140.2727272727273" y="1128.0" type="line"/>
      <point x="977.1818181818182" y="1087.4848484848485" type="line"/>
      <point x="909.7878787878788" y="1109.7424242424242"/>
      <point x="815.6212121212121" y="1128.0"/>
      <point x="741.1060606060606" y="1128.0" type="curve" smooth="yes"/>
      <point x="456.24242424242425" y="1128.0"/>
      <point x="248.5151515151515" y="973.469696969697"/>
      <point x="148.0" y="751.469696969697" type="curve" smooth="yes"/>
      <point x="96.43939393939394" y="639.469696969697"/>
      <point x="71.13636363636364" y="523.2121212121212"/>
      <point x="71.13636363636364" y="403.04545454545456" type="curve" smooth="yes"/>
      <point x="71.13636363636364" y="150.5151515151515"/>
      <point x="169.83333333333334" y="-16.0"/>
      <point x="391.469696969697" y="-16.0" type="curve" smooth="yes"/>
      <point x="539.9848484848485" y="-16.0"/>
      <point x="653.560606060606" y="94.93939393939394"/>
      <point x="725.4848484848485" y="230.83333333333334" type="curve"/>
      <point x="667.6666666666666" y="-94.0" type="line" smooth="yes"/>
      <point x="641.2272727272727" y="-239.4090909090909"/>
      <point x="579.3030303030303" y="-313.93939393939394"/>
      <point x="440.5909090909091" y="-313.93939393939394" type="curve" smooth="yes"/>
      <point x="347.8939393939394" y="-313.93939393939394"/>
      <point x="214.27272727272728" y="-268.0454545454545"/>
      <point x="168.95454545454544" y="-236.39393939393938" type="curve"/>
      <point x="119.65151515151516" y="-459.6515151515151" type="line"/>
      <point x="160.95454545454547" y="-479.56060606060606"/>
      <point x="294.0" y="-500.8636363636364"/>
    </contour>
    <contour>
      <point x="487.6818181818182" y="195.86363636363637" type="curve" smooth="yes"/>
      <point x="415.04545454545456" y="195.86363636363637"/>
      <point x="386.0" y="283.469696969697"/>
      <point x="386.0" y="424.43939393939394" type="curve" smooth="yes"/>
      <point x="386.0" y="590.439393939394"/>
      <point x="436.53030303030306" y="762.7121212121212"/>
      <point x="535.939393939394" y="866.6363636363636" type="curve" smooth="yes"/>
      <point x="584.8181818181819" y="917.7727272727273"/>
      <point x="644.3939393939394" y="943.5151515151515"/>
      <point x="715.3636363636364" y="943.5151515151515" type="curve" smooth="yes"/>
      <point x="751.3787878787879" y="943.5151515151515"/>
      <point x="782.6969696969697" y="939.7727272727273"/>
      <point x="810.0151515151515" y="933.5909090909091" type="curve"/>
      <point x="754.5151515151515" y="528.8333333333334" type="line"/>
      <point x="705.1818181818181" y="401.9545454545455"/>
      <point x="592.3030303030303" y="195.86363636363637"/>
    </contour>
  </outline>
</glyph>
<glyph name="h" format="2">
  <advance width="1250.5454545454545"/>
  <unicode hex="0068"/>
  <note>
h
</note>
  <anchor x="551.6212121212121" y="0.0" name="bottom"/>
  <anchor x="681.6212121212121" y="984.0" name="center"/>
  <anchor x="435.0" y="1516.0" name="top"/>
  <outline>
    <contour>
      <point x="79.13636363636364" y="0.0" type="line"/>
      <point x="375.22727272727275" y="0.0" type="line"/>
      <point x="468.6212121212121" y="688.6212121212121" type="line"/>
      <point x="531.2424242424242" y="795.1363636363636"/>
      <point x="650.8636363636364" y="891.0909090909091"/>
      <point x="732.6212121212121" y="891.0909090909091" type="curve" smooth="yes"/>
      <point x="793.1515151515151" y="891.0909090909091"/>
      <point x="820.1969696969697" y="865.7878787878788"/>
      <point x="818.8939393939394" y="789.5151515151515" type="curve" smooth="yes"/>
      <point x="817.5909090909091" y="741.1666666666666"/>
      <point x="807.5909090909091" y="653.9545454545455"/>
      <point x="790.8939393939394" y="521.3484848484849" type="curve" smooth="yes"/>
      <point x="770.3636363636364" y="368.78787878787875"/>
      <point x="749.7575757575758" y="218.12121212121212"/>
      <point x="718.0151515151515" y="0.0" type="curve"/>
      <point x="1020.7121212121212" y="0.0" type="line"/>
      <point x="1058.5757575757575" y="236.60606060606057"/>
      <point x="1131.7575757575758" y="785.469696969697"/>
      <point x="1131.7575757575758" y="837.4848484848485" type="curve" smooth="yes"/>
      <point x="1131.7575757575758" y="1044.6969696969697"/>
      <point x="1044.7272727272727" y="1128.0"/>
      <point x="877.439393939394" y="1128.0" type="curve" smooth="yes"/>
      <point x="726.3939393939394" y="1128.0"/>
      <point x="585.939393939394" y="1039.469696969697"/>
      <point x="489.22727272727275" y="896.8636363636364" type="curve"/>
      <point x="520.0151515151515" y="1071.090909090909" type="line"/>
      <point x="586.439393939394" y="1597.0454545454545" type="line"/>
      <point x="291.3030303030303" y="1597.0454545454545" type="line"/>
    </contour>
  </outline>
</glyph>
<glyph name="k" format="2">
  <advance width="1145.030303030303"/>
  <unicode hex="006B"/>
  <note>
k
</note>
  <anchor x="499.1666666666667" y="0.0" name="bottom"/>
  <anchor x="759.1666666666666" y="1966.0" name="top"/>
  <outline>
    <contour>
      <point x="79.13636363636364" y="0.0" type="line"/>
      <point x="375.22727272727275" y="0.0" type="line"/>
      <point x="587.7424242424242" y="1597.0454545454545" type="line"/>
      <point x="291.3030303030303" y="1597.0454545454545" type="line"/>
    </contour>
    <contour>
      <point x="762.5909090909091" y="1.0454545454545452" type="line"/>
      <point x="1108.6666666666667" y="1.0454545454545452" type="line"/>
      <point x="781.5151515151515" y="601.7272727272727" type="line"/>
      <point x="956.3939393939395" y="696.0757575757576"/>
      <point x="1131.378787878788" y="912.0"/>
      <point x="1142.8636363636365" y="1114.0" type="curve"/>
      <point x="846.2575757575758" y="1114.0" type="line"/>
      <point x="791.9848484848485" y="921.3939393939394"/>
      <point x="641.0909090909091" y="701.5"/>
      <point x="489.92424242424244" y="617.0454545454545" type="curve"/>
    </contour>
  </outline>
</glyph>
<glyph name="l" format="2">
  <advance width="313.32575757575756"/>
  <unicode hex="006C"/>
  <note>
l
</note>
  <anchor x="124.7378787878788" y="0.0" name="bottom"/>
  <anchor x="185.16287878787878" y="492.0" name="center"/>
  <anchor x="226.27613636363637" y="781.9090909090909" name="top"/>
  <anchor x="349.9431818181818" y="711.0" name="topright"/>
  <outline>
    <contour>
      <point x="46.83712121212121" y="0.5837121212121211" type="line"/>
      <point x="197.83712121212122" y="0.5837121212121211" type="line"/>
      <point x="306.0723484848485" y="798.5837121212121" type="line"/>
      <point x="154.42083333333335" y="798.5837121212121" type="line"/>
    </contour>
  </outline>
</glyph>
<glyph name="m" format="2">
  <advance width="931.3303030303031"/>
  <unicode hex="006D"/>
  <note>
m
</note>
  <anchor x="428.9909090909091" y="0.0" name="bottom"/>
  <anchor x="502.9909090909091" y="557.0" name="top"/>
  <outline>
    <contour>
      <point x="38.16742424242425" y="0.5837121212121211" type="line"/>
      <point x="189.16742424242426" y="0.5837121212121211" type="line"/>
      <point x="237.16742424242426" y="347.44810606060605" type="line"/>
      <point x="268.4848484848485" y="399.6484848484848"/>
      <point x="325.76022727272726" y="445.6064393939394"/>
      <point x="364.2625" y="445.6064393939394" type="curve" smooth="yes"/>
      <point x="394.71931818181815" y="445.6064393939394"/>
      <point x="408.3030303030303" y="432.71969696969694"/>
      <point x="407.6515151515151" y="394.6791666666667" type="curve" smooth="yes"/>
      <point x="407.0" y="372.9617424242424"/>
      <point x="401.6515151515151" y="325.75757575757575"/>
      <point x="393.7647727272727" y="261.0924242424242" type="curve" smooth="yes"/>
      <point x="383.43863636363636" y="179.68068181818182"/>
      <point x="368.95378787878786" y="76.08522727272728"/>
      <point x="357.66515151515154" y="0.5837121212121211" type="curve"/>
      <point x="508.66515151515154" y="0.5837121212121211" type="line"/>
      <point x="515.657196969697" y="44.04015151515151"/>
      <point x="537.4977272727273" y="197.55227272727274"/>
      <point x="550.5935606060607" y="292.6935606060606" type="curve" smooth="yes"/>
      <point x="554.769696969697" y="323.71363636363634"/>
      <point x="557.5973484848485" y="346.71628787878785"/>
      <point x="559.067803030303" y="358.8602272727273" type="curve"/>
      <point x="593.0181818181818" y="411.03636363636366"/>
      <point x="639.6742424242424" y="445.6064393939394"/>
      <point x="675.0090909090909" y="445.6064393939394" type="curve" smooth="yes"/>
      <point x="705.7011363636364" y="445.6064393939394"/>
      <point x="719.0496212121212" y="432.9549242424242"/>
      <point x="718.3981060606061" y="394.6791666666667" type="curve" smooth="yes"/>
      <point x="717.7465909090909" y="368.0295454545454"/>
      <point x="711.4261363636364" y="319.1155303030303"/>
      <point x="703.7030303030302" y="260.68295454545455" type="curve" smooth="yes"/>
      <point x="691.5386363636363" y="170.7189393939394"/>
      <point x="680.7477272727273" y="94.03522727272728"/>
      <point x="668.1765151515151" y="0.5837121212121211" type="curve"/>
      <point x="819.2984848484848" y="0.5837121212121211" type="line"/>
      <point x="833.032196969697" y="93.04507575757576"/>
      <point x="843.7969696969698" y="170.89621212121213"/>
      <point x="854.882196969697" y="249.58371212121213" type="curve" smooth="yes"/>
      <point x="867.882196969697" y="343.1897727272727"/>
      <point x="874.2306818181819" y="399.425"/>
      <point x="874.2306818181819" y="418.75113636363636" type="curve" smooth="yes"/>
      <point x="874.2306818181819" y="522.3484848484849"/>
      <point x="831.7329545454545" y="564.0"/>
      <point x="749.6515151515151" y="564.0" type="curve" smooth="yes"/>
      <point x="677.0318181818182" y="564.0"/>
      <point x="610.1674242424242" y="522.3484848484849"/>
      <point x="562.135606060606" y="455.68333333333334" type="curve"/>
      <point x="553.3708333333334" y="532.5837121212121"/>
      <point x="511.0541666666667" y="564.0"/>
      <point x="439.5564393939394" y="564.0" type="curve" smooth="yes"/>
      <point x="366.42083333333335" y="564.0"/>
      <point x="300.69204545454545" y="523.135606060606"/>
      <point x="251.58371212121213" y="456.3621212121212" type="curve"/>
      <point x="259.40265151515155" y="557.0" type="line"/>
      <point x="113.93219696969697" y="557.0" type="line"/>
    </contour>
  </outline>
</glyph>
<glyph name="n" format="2">
  <advance width="1252.4545454545455"/>
  <unicode hex="006E"/>
  <note>
n
</note>
  <anchor x="552.5757575757576" y="0.0" name="bottom"/>
  <anchor x="700.5757575757576" y="1114.0" name="top"/>
  <outline>
    <contour>
      <point x="75.74242424242425" y="0.0" type="line"/>
      <point x="377.74242424242425" y="0.0" type="line"/>
      <point x="473.74242424242425" y="687.2272727272727" type="line"/>
      <point x="537.0606060606061" y="795.1363636363636"/>
      <point x="656.3333333333334" y="891.0909090909091"/>
      <point x="738.439393939394" y="891.0909090909091" type="curve" smooth="yes"/>
      <point x="799.6666666666666" y="891.0909090909091"/>
      <point x="826.0151515151515" y="865.7878787878788"/>
      <point x="824.7121212121212" y="789.5151515151515" type="curve" smooth="yes"/>
      <point x="823.4090909090909" y="738.7272727272727"/>
      <point x="812.7121212121212" y="644.1969696969697"/>
      <point x="793.9242424242424" y="499.04545454545456" type="curve" smooth="yes"/>
      <point x="769.2121212121212" y="318.6060606060606"/>
      <point x="746.5151515151515" y="151.21212121212122"/>
      <point x="724.1818181818181" y="0.0" type="curve"/>
      <point x="1026.530303030303" y="0.0" type="line"/>
      <point x="1045.5151515151515" y="116.09090909090907"/>
      <point x="1088.2727272727273" y="428.42424242424244"/>
      <point x="1098.2727272727273" y="500.3484848484849" type="curve" smooth="yes"/>
      <point x="1117.7575757575758" y="639.3484848484849"/>
      <point x="1138.2727272727273" y="792.439393939394"/>
      <point x="1138.2727272727273" y="837.4848484848485" type="curve" smooth="yes"/>
      <point x="1138.2727272727273" y="1044.6969696969697"/>
      <point x="1050.8939393939395" y="1128.0"/>
      <point x="883.6060606060606" y="1128.0" type="curve" smooth="yes"/>
      <point x="735.5151515151515" y="1128.0"/>
      <point x="599.7575757575758" y="1043.469696969697"/>
      <point x="501.04545454545456" y="907.1212121212121" type="curve"/>
      <point x="517.1363636363636" y="1114.0" type="line"/>
      <point x="227.74242424242425" y="1114.0" type="line"/>
    </contour>
  </outline>
</glyph>
<glyph name="o" format="2">
  <advance width="570.2306818181819"/>
  <unicode hex="006F"/>
  <note>
o
</note>
  <anchor x="248.49772727272727" y="0.0" name="bottom"/>
  <anchor x="285.4977272727273" y="279.0" name="center"/>
  <anchor x="366.8003787878788" y="10.0" name="ogonek"/>
  <anchor x="326.6340909090909" y="557.0" name="top"/>
  <anchor x="587.2306818181819" y="557.0" name="topright"/>
  <outline>
    <contour>
      <point x="234.65151515151516" y="-8.0" type="curve" smooth="yes"/>
      <point x="358.8280303030303" y="-8.0"/>
      <point x="451.4931818181818" y="59.16742424242424"/>
      <point x="499.25795454545454" y="162.0996212121212" type="curve" smooth="yes"/>
      <point x="522.2579545454546" y="213.3348484848485"/>
      <point x="534.2579545454545" y="269.0996212121212"/>
      <point x="534.2579545454545" y="329.5159090909091" type="curve" smooth="yes"/>
      <point x="534.2579545454545" y="470.4344696969697"/>
      <point x="470.1988636363636" y="564.0"/>
      <point x="336.5113636363636" y="564.0" type="curve" smooth="yes"/>
      <point x="212.3348484848485" y="564.0"/>
      <point x="118.7375" y="497.5973484848485"/>
      <point x="71.50227272727273" y="395.01363636363635" type="curve" smooth="yes"/>
      <point x="47.26704545454545" y="343.42992424242425"/>
      <point x="35.26704545454545" y="287.66515151515154"/>
      <point x="35.26704545454545" y="227.59734848484848" type="curve" smooth="yes"/>
      <point x="35.26704545454545" y="88.12310606060606"/>
      <point x="100.17121212121212" y="-8.0"/>
    </contour>
    <contour>
      <point x="255.31666666666666" y="87.4253787878788" type="curve" smooth="yes"/>
      <point x="209.5746212121212" y="87.4253787878788"/>
      <point x="186.90492424242424" y="130.3844696969697"/>
      <point x="186.90492424242424" y="214.1314393939394" type="curve" smooth="yes"/>
      <point x="186.90492424242424" y="319.73333333333335"/>
      <point x="223.25795454545454" y="469.6878787878788"/>
      <point x="313.66515151515154" y="469.6878787878788" type="curve" smooth="yes"/>
      <point x="365.6871212121212" y="469.6878787878788"/>
      <point x="381.0905303030303" y="415.0556818181818"/>
      <point x="381.0905303030303" y="339.9227272727273" type="curve" smooth="yes"/>
      <point x="381.0905303030303" y="228.05454545454546"/>
      <point x="346.3125" y="87.4253787878788"/>
    </contour>
  </outline>
</glyph>
<glyph name="p" format="2">
  <advance width="1221.2424242424242"/>
  <unicode hex="0070"/>
  <note>
p
</note>
  <anchor x="537.6212121212121" y="0.0" name="bottom"/>
  <anchor x="685.6212121212121" y="1114.0" name="top"/>
  <outline>
    <contour>
      <point x="9.742424242424242" y="-485.92424242424244" type="line"/>
      <point x="309.1363636363636" y="-485.92424242424244" type="line"/>
      <point x="375.1363636363636" y="-7.212121212121213" type="line"/>
      <point x="410.4545454545455" y="-12.954545454545455"/>
      <point x="444.03030303030306" y="-16.0"/>
      <point x="473.8636363636364" y="-16.0" type="curve" smooth="yes"/>
      <point x="760.030303030303" y="-16.0"/>
      <point x="968.4545454545455" y="140.53030303030303"/>
      <point x="1068.969696969697" y="364.530303030303" type="curve" smooth="yes"/>
      <point x="1119.2272727272727" y="474.8787878787879"/>
      <point x="1144.1818181818182" y="591.1363636363636"/>
      <point x="1144.1818181818182" y="712.2575757575758" type="curve" smooth="yes"/>
      <point x="1144.1818181818182" y="964.439393939394"/>
      <point x="1046.439393939394" y="1128.0"/>
      <point x="823.8484848484849" y="1128.0" type="curve" smooth="yes"/>
      <point x="679.8484848484849" y="1128.0"/>
      <point x="567.5757575757576" y="1027.5757575757575"/>
      <point x="496.0" y="898.8939393939394" type="curve"/>
      <point x="501.83333333333337" y="1114.0" type="line"/>
      <point x="227.04545454545453" y="1114.0" type="line"/>
    </contour>
    <contour>
      <point x="499.6060606060606" y="170.83333333333334" type="curve" smooth="yes"/>
      <point x="461.33333333333337" y="170.83333333333334"/>
      <point x="428.71212121212125" y="174.57575757575756"/>
      <point x="402.3484848484849" y="180.40909090909093" type="curve"/>
      <point x="456.8030303030303" y="575.090909090909" type="line"/>
      <point x="498.3939393939394" y="694.6515151515151"/>
      <point x="619.7121212121212" y="916.4848484848485"/>
      <point x="727.2878787878788" y="916.4848484848485" type="curve" smooth="yes"/>
      <point x="807.7424242424242" y="916.4848484848485"/>
      <point x="828.969696969697" y="817.5909090909091"/>
      <point x="828.969696969697" y="690.8636363636364" type="curve" smooth="yes"/>
      <point x="828.969696969697" y="524.5151515151515"/>
      <point x="778.439393939394" y="351.8939393939394"/>
      <point x="681.030303030303" y="248.66666666666669" type="curve" smooth="yes"/>
      <point x="630.5" y="196.57575757575756"/>
      <point x="570.5757575757576" y="170.83333333333334"/>
    </contour>
  </outline>
</glyph>
<glyph name="q" format="2">
  <advance width="1214.1969696969697"/>
  <unicode hex="0071"/>
  <note>
q
</note>
  <anchor x="533.2727272727273" y="0.0" name="bottom"/>
  <anchor x="681.2727272727273" y="1114.0" name="top"/>
  <outline>
    <contour>
      <point x="625.4848484848485" y="-484.1818181818182" type="line"/>
      <point x="923.2272727272727" y="-484.1818181818182" type="line"/>
      <point x="1137.9242424242425" y="1129.7424242424242" type="line"/>
      <point x="978.9090909090909" y="1088.530303030303" type="line"/>
      <point x="914.2121212121212" y="1110.439393939394"/>
      <point x="815.8787878787879" y="1128.0"/>
      <point x="741.1060606060606" y="1128.0" type="curve" smooth="yes"/>
      <point x="339.8181818181818" y="1128.0"/>
      <point x="71.13636363636364" y="807.469696969697"/>
      <point x="71.13636363636364" y="403.04545454545456" type="curve" smooth="yes"/>
      <point x="71.13636363636364" y="150.5151515151515"/>
      <point x="169.83333333333334" y="-16.0"/>
      <point x="391.469696969697" y="-16.0" type="curve" smooth="yes"/>
      <point x="544.5909090909091" y="-16.0"/>
      <point x="661.7272727272727" y="103.10606060606061"/>
      <point x="731.0454545454545" y="244.56060606060606" type="curve"/>
      <point x="690.1818181818181" y="1.0454545454545467" type="line"/>
    </contour>
    <contour>
      <point x="487.6818181818182" y="195.86363636363637" type="curve" smooth="yes"/>
      <point x="415.04545454545456" y="195.86363636363637"/>
      <point x="386.0" y="283.469696969697"/>
      <point x="386.0" y="424.43939393939394" type="curve" smooth="yes"/>
      <point x="386.0" y="661.2424242424242"/>
      <point x="492.72727272727275" y="943.5151515151515"/>
      <point x="715.3636363636364" y="943.5151515151515" type="curve" smooth="yes"/>
      <point x="748.6818181818181" y="943.5151515151515"/>
      <point x="780.3484848484849" y="939.7727272727273"/>
      <point x="807.6666666666666" y="933.9393939393939" type="curve"/>
      <point x="751.560606060606" y="519.0151515151515" type="line"/>
      <point x="699.8787878787879" y="393.439393939394"/>
      <point x="589.3484848484849" y="195.86363636363637"/>
    </contour>
  </outline>
</glyph>
<glyph name="r" format="2">
  <advance width="425.0723484848485"/>
  <unicode hex="0072"/>
  <note>
r
</note>
  <anchor x="116.31704545454545" y="0.0" name="bottom"/>
  <anchor x="289.592803030303" y="557.0" name="top"/>
  <outline>
    <contour>
      <point x="38.583712121212116" y="0.0" type="line"/>
      <point x="189.58371212121213" y="0.0" type="line"/>
      <point x="238.60606060606062" y="344.12613636363636" type="line"/>
      <point x="272.0727272727273" y="385.3541666666667"/>
      <point x="310.39962121212125" y="414.19469696969696"/>
      <point x="359.3935606060606" y="414.19469696969696" type="curve" smooth="yes"/>
      <point x="379.56098484848485" y="414.19469696969696"/>
      <point x="400.9909090909091" y="410.12689393939394"/>
      <point x="407.1583333333333" y="403.1810606060606" type="curve"/>
      <point x="435.58825757575755" y="558.0" type="line"/>
      <point x="430.82348484848484" y="562.0"/>
      <point x="418.7556818181818" y="564.0"/>
      <point x="402.7556818181818" y="564.0" type="curve" smooth="yes"/>
      <point x="332.1905303030303" y="564.0"/>
      <point x="275.32613636363635" y="504.8151515151515"/>
      <point x="251.58371212121213" y="446.1314393939394" type="curve"/>
      <point x="260.16742424242426" y="557.0" type="line"/>
      <point x="114.58371212121212" y="557.0" type="line"/>
    </contour>
  </outline>
</glyph>
<glyph name="s" format="2">
  <advance width="924.3787878787879"/>
  <unicode hex="0073"/>
  <note>
s
</note>
  <anchor x="385.8787878787879" y="0.0" name="bottom"/>
  <anchor x="589.6969696969697" y="1114.0" name="top"/>
  <outline>
    <contour>
      <point x="364.06060606060606" y="-16.0" type="curve" smooth="yes"/>
      <point x="604.2121212121212" y="-16.0"/>
      <point x="803.4090909090909" y="78.34848484848484"/>
      <point x="803.4090909090909" y="313.54545454545456" type="curve" smooth="yes"/>
      <point x="803.4090909090909" y="442.8484848484849"/>
      <point x="724.0" y="533.3939393939394"/>
      <point x="601.8333333333334" y="626.2575757575758" type="curve" smooth="yes"/>
      <point x="535.0151515151515" y="685.060606060606"/>
      <point x="442.6212121212121" y="741.9242424242424"/>
      <point x="442.6212121212121" y="821.1515151515151" type="curve" smooth="yes"/>
      <point x="442.6212121212121" y="879.6969696969697"/>
      <point x="496.1212121212121" y="916.5757575757575"/>
      <point x="584.8333333333334" y="916.5757575757575" type="curve" smooth="yes"/>
      <point x="673.1818181818182" y="916.5757575757575"/>
      <point x="773.0909090909091" y="873.3636363636364"/>
      <point x="809.6060606060606" y="832.7575757575758" type="curve"/>
      <point x="847.6060606060606" y="1091.6515151515152" type="line"/>
      <point x="811.1666666666666" y="1108.0"/>
      <point x="690.9242424242424" y="1128.0"/>
      <point x="590.3939393939394" y="1128.0" type="curve" smooth="yes"/>
      <point x="356.93939393939394" y="1128.0"/>
      <point x="161.74242424242425" y="1025.6515151515152"/>
      <point x="161.74242424242425" y="809.9242424242424" type="curve" smooth="yes"/>
      <point x="161.74242424242425" y="675.6515151515151"/>
      <point x="226.1969696969697" y="590.9545454545455"/>
      <point x="327.5151515151515" y="506.07575757575756" type="curve" smooth="yes"/>
      <point x="456.9090909090909" y="403.9848484848485"/>
      <point x="517.2272727272727" y="365.8939393939394"/>
      <point x="517.2272727272727" y="295.8030303030303" type="curve" smooth="yes"/>
      <point x="517.2272727272727" y="224.04545454545456"/>
      <point x="455.9090909090909" y="198.72727272727275"/>
      <point x="361.2878787878788" y="198.72727272727275" type="curve" smooth="yes"/>
      <point x="285.6212121212121" y="198.72727272727275"/>
      <point x="150.78787878787878" y="247.06060606060606"/>
      <point x="101.2878787878788" y="291.8484848484849" type="curve"/>
      <point x="50.515151515151516" y="48.86363636363637" type="line"/>
      <point x="96.68181818181819" y="14.954545454545455"/>
      <point x="248.22727272727275" y="-16.0"/>
    </contour>
  </outline>
</glyph>
<glyph name="t" format="2">
  <advance width="789.3333333333334"/>
  <unicode hex="0074"/>
  <note>
t
</note>
  <anchor x="312.6666666666667" y="0.0" name="bottom"/>
  <anchor x="386.6666666666667" y="558.0" name="center"/>
  <anchor x="482.6363636363636" y="1294.3636363636363" name="top"/>
  <anchor x="816.7272727272727" y="1114.0" name="topright"/>
  <outline>
    <contour>
      <point x="335.6363636363636" y="-18.606060606060606" type="curve" smooth="yes"/>
      <point x="486.6363636363636" y="-18.606060606060606"/>
      <point x="635.6060606060606" y="54.78787878787879"/>
      <point x="722.1818181818182" y="130.6060606060606" type="curve"/>
      <point x="677.2424242424242" y="279.1818181818182" type="line"/>
      <point x="633.1515151515151" y="239.1818181818182"/>
      <point x="538.7878787878788" y="194.3030303030303"/>
      <point x="496.0909090909091" y="194.3030303030303" type="curve" smooth="yes"/>
      <point x="445.5757575757576" y="194.3030303030303"/>
      <point x="432.27272727272725" y="223.87878787878788"/>
      <point x="432.27272727272725" y="270.1515151515151" type="curve" smooth="yes"/>
      <point x="432.27272727272725" y="308.6666666666667"/>
      <point x="443.1515151515151" y="378.1515151515151"/>
      <point x="516.3636363636364" y="918.7272727272727" type="curve"/>
      <point x="748.1212121212121" y="918.7272727272727" type="line"/>
      <point x="770.1212121212121" y="1114.0" type="line"/>
      <point x="540.969696969697" y="1114.0" type="line"/>
      <point x="578.2727272727273" y="1383.3939393939395" type="line"/>
      <point x="346.24242424242425" y="1383.3939393939395" type="line"/>
      <point x="260.6969696969697" y="1114.0" type="line"/>
      <point x="158.0" y="1114.0" type="line"/>
      <point x="120.60606060606061" y="918.7272727272727" type="line"/>
      <point x="211.66666666666666" y="918.7272727272727" type="line"/>
      <point x="138.1818181818182" y="359.42424242424244" type="line" smooth="yes"/>
      <point x="128.87878787878788" y="289.5151515151515"/>
      <point x="120.96969696969697" y="201.72727272727272"/>
      <point x="120.96969696969697" y="180.93939393939394" type="curve" smooth="yes"/>
      <point x="120.96969696969697" y="49.72727272727273"/>
      <point x="204.0909090909091" y="-18.606060606060606"/>
    </contour>
  </outline>
</glyph>
<glyph name="u" format="2">
  <advance width="1221.6818181818182"/>
  <unicode hex="0075"/>
  <note>
u
</note>
  <anchor x="534.4090909090909" y="0.0" name="bottom"/>
  <anchor x="1025.0757575757575" y="20.0" name="ogonek"/>
  <anchor x="690.560606060606" y="1114.0" name="top"/>
  <anchor x="1255.6818181818182" y="1114.0" name="topright"/>
  <outline>
    <contour>
      <point x="375.03030303030306" y="-20.0" type="curve" smooth="yes"/>
      <point x="520.7727272727273" y="-20.0"/>
      <point x="652.2575757575758" y="72.34848484848484"/>
      <point x="736.0151515151515" y="196.27272727272725" type="curve"/>
      <point x="725.4848484848485" y="0.0" type="line"/>
      <point x="996.8030303030303" y="0.0" type="line"/>
      <point x="1147.7575757575758" y="1114.0" type="line"/>
      <point x="845.7575757575758" y="1114.0" type="line"/>
      <point x="748.8030303030303" y="406.95454545454544" type="line"/>
      <point x="679.6515151515151" y="292.75757575757575"/>
      <point x="580.8333333333334" y="204.65151515151516"/>
      <point x="503.33333333333337" y="204.65151515151516" type="curve" smooth="yes"/>
      <point x="448.9545454545455" y="204.65151515151516"/>
      <point x="416.5151515151515" y="237.60606060606062"/>
      <point x="416.5151515151515" y="310.06060606060606" type="curve" smooth="yes"/>
      <point x="416.5151515151515" y="348.8484848484849"/>
      <point x="424.1666666666667" y="428.6666666666667"/>
      <point x="440.0757575757576" y="549.5151515151515" type="curve" smooth="yes"/>
      <point x="461.2878787878788" y="710.6969696969697"/>
      <point x="496.1818181818182" y="974.7727272727273"/>
      <point x="515.3030303030304" y="1114.0" type="curve"/>
      <point x="214.25757575757575" y="1114.0" type="line"/>
      <point x="189.21212121212122" y="932.1666666666666"/>
      <point x="161.37878787878788" y="729.4242424242425"/>
      <point x="137.37878787878788" y="552.8181818181819" type="curve" smooth="yes"/>
      <point x="116.86363636363636" y="409.8030303030303"/>
      <point x="106.25757575757575" y="305.90909090909093"/>
      <point x="106.25757575757575" y="244.71212121212122" type="curve" smooth="yes"/>
      <point x="106.25757575757575" y="59.74242424242424"/>
      <point x="210.15151515151516" y="-20.0"/>
    </contour>
  </outline>
</glyph>
<glyph name="v" format="2">
  <advance width="537.3212121212122"/>
  <unicode hex="0076"/>
  <note>
v
</note>
  <anchor x="231.66060606060606" y="0.0" name="bottom"/>
  <anchor x="305.6606060606061" y="557.0" name="top"/>
  <outline>
    <contour>
      <point x="124.91856060606061" y="-9.416287878787879" type="line"/>
      <point x="246.0905303030303" y="-3.416287878787879" type="line"/>
      <point x="417.0568181818182" y="148.92310606060605"/>
      <point x="520.2128787878788" y="315.9352272727273"/>
      <point x="524.6560606060606" y="482.5022727272727" type="curve" smooth="yes"/>
      <point x="524.8912878787879" y="527.3034090909091"/>
      <point x="520.8689393939394" y="547.1636363636363"/>
      <point x="520.407196969697" y="557.0" type="curve"/>
      <point x="380.8371212121212" y="557.0" type="line"/>
      <point x="380.8371212121212" y="514.8787878787879"/>
      <point x="373.0181818181818" y="440.3666666666667"/>
      <point x="365.4344696969697" y="404.2534090909091" type="curve" smooth="yes"/>
      <point x="349.8189393939394" y="313.1761363636364"/>
      <point x="314.9875" y="228.15681818181818"/>
      <point x="267.5628787878788" y="157.82613636363638" type="curve" smooth="yes"/>
      <point x="236.72386363636366" y="117.01818181818183" type="line"/>
      <point x="230.0723484848485" y="215.42083333333335" type="line"/>
      <point x="199.2534090909091" y="557.0" type="line"/>
      <point x="46.51590909090909" y="557.0" type="line"/>
      <point x="97.68333333333334" y="173.58371212121213" type="line"/>
    </contour>
  </outline>
</glyph>
<glyph name="w" format="2">
  <advance width="1693.4242424242425"/>
  <unicode hex="0077"/>
  <note>
w
</note>
  <anchor x="773.3636363636364" y="0.0" name="bottom"/>
  <anchor x="921.3636363636364" y="1114.0" name="top"/>
  <outline>
    <contour>
      <point x="252.71212121212122" y="-11.651515151515152" type="line"/>
      <point x="492.1363636363636" y="-6.954545454545455" type="line"/>
      <point x="642.0909090909091" y="141.98484848484847"/>
      <point x="729.8333333333334" y="257.8484848484848"/>
      <point x="808.0909090909091" y="403.78787878787875" type="curve"/>
      <point x="828.8787878787879" y="257.1363636363636" type="line"/>
      <point x="870.8939393939394" y="-11.651515151515152" type="line"/>
      <point x="1100.5" y="-6.954545454545455" type="line"/>
      <point x="1472.3030303030303" y="339.6212121212121"/>
      <point x="1653.409090909091" y="640.030303030303"/>
      <point x="1659.3333333333333" y="970.5454545454545" type="curve" smooth="yes"/>
      <point x="1659.6818181818182" y="1036.0757575757575"/>
      <point x="1653.5151515151515" y="1090.3333333333333"/>
      <point x="1653.1666666666667" y="1114.0" type="curve"/>
      <point x="1378.3636363636363" y="1114.0" type="line"/>
      <point x="1378.7121212121212" y="1030.8030303030303"/>
      <point x="1371.1515151515152" y="910.6363636363636"/>
      <point x="1358.7121212121212" y="827.060606060606" type="curve" smooth="yes"/>
      <point x="1328.530303030303" y="641.3030303030303"/>
      <point x="1261.6666666666667" y="477.25757575757575"/>
      <point x="1170.0757575757575" y="332.25757575757575" type="curve" smooth="yes"/>
      <point x="1091.8636363636365" y="227.93939393939394" type="line"/>
      <point x="1078.469696969697" y="430.8939393939394" type="line"/>
      <point x="1025.2424242424242" y="1114.0" type="line"/>
      <point x="727.4848484848485" y="1114.0" type="line"/>
      <point x="759.8333333333334" y="822.6666666666666" type="line"/>
      <point x="728.9545454545455" y="649.1666666666666"/>
      <point x="651.6515151515151" y="480.56060606060606"/>
      <point x="557.8030303030303" y="334.0" type="curve" smooth="yes"/>
      <point x="478.8939393939394" y="227.93939393939394" type="line"/>
      <point x="467.24242424242425" y="430.8939393939394" type="line"/>
      <point x="405.75757575757575" y="1114.0" type="line"/>
      <point x="94.53030303030303" y="1114.0" type="line"/>
      <point x="197.66666666666666" y="347.04545454545456" type="line"/>
    </contour>
  </outline>
</glyph>
<glyph name="x" format="2">
  <advance width="499.7556818181818"/>
  <unicode hex="0078"/>
  <note>
x
</note>
  <anchor x="212.99545454545455" y="0.0" name="bottom"/>
  <anchor x="286.99545454545455" y="557.0" name="top"/>
  <outline>
    <contour>
      <point x="-43.76022727272728" y="0.5837121212121211" type="line"/>
      <point x="112.82348484848485" y="0.5837121212121211" type="line"/>
      <point x="227.81439393939394" y="176.59280303030303" type="line"/>
      <point x="302.0814393939394" y="0.5837121212121211" type="line"/>
      <point x="475.7465909090909" y="0.5837121212121211" type="line"/>
      <point x="325.4026515151515" y="274.0541666666667" type="line"/>
      <point x="531.4026515151515" y="557.0" type="line"/>
      <point x="377.83257575757574" y="557.0" type="line"/>
      <point x="271.74204545454546" y="389.2261363636364" type="line"/>
      <point x="207.40719696969697" y="557.0" type="line"/>
      <point x="32.506818181818176" y="557.0" type="line"/>
      <point x="172.85075757575757" y="291.9458333333333" type="line"/>
    </contour>
  </outline>
</glyph>
<glyph name="y" format="2">
  <advance width="1088.2121212121212"/>
  <unicode hex="0079"/>
  <note>
y
</note>
  <anchor x="867.1969696969697" y="0.0" name="bottom"/>
  <anchor x="600.3333333333334" y="1114.0" name="top"/>
  <outline>
    <contour>
      <point x="100.92424242424246" y="-500.1666666666667" type="curve" smooth="yes"/>
      <point x="257.8030303030303" y="-500.1666666666667"/>
      <point x="369.469696969697" y="-439.8939393939394"/>
      <point x="446.0" y="-359.1060606060606" type="curve" smooth="yes"/>
      <point x="600.5151515151515" y="-190.86363636363637"/>
      <point x="770.5909090909091" y="72.4090909090909"/>
      <point x="871.1969696969697" y="294.72727272727275" type="curve" smooth="yes"/>
      <point x="983.1363636363636" y="537.6212121212121"/>
      <point x="1040.8939393939395" y="762.1666666666666"/>
      <point x="1045.4242424242425" y="969.9242424242424" type="curve" smooth="yes"/>
      <point x="1046.1212121212122" y="1037.030303030303"/>
      <point x="1045.1666666666667" y="1090.1666666666667"/>
      <point x="1041.8636363636365" y="1114.0" type="curve"/>
      <point x="766.1060606060606" y="1114.0" type="line"/>
      <point x="765.4090909090909" y="1056.8939393939395"/>
      <point x="764.7121212121212" y="1004.8787878787879"/>
      <point x="761.4090909090909" y="963.3181818181819" type="curve"/>
      <point x="743.8333333333334" y="725.969696969697"/>
      <point x="710.060606060606" y="568.0757575757576"/>
      <point x="623.2424242424242" y="371.54545454545456" type="curve" smooth="yes"/>
      <point x="591.3333333333334" y="282.27272727272725"/>
      <point x="555.0757575757576" y="195.77272727272728"/>
      <point x="513.4242424242425" y="111.00000000000001" type="curve"/>
      <point x="478.3787878787879" y="416.8181818181818" type="line"/>
      <point x="403.24242424242425" y="1114.0" type="line"/>
      <point x="97.92424242424242" y="1114.0" type="line"/>
      <point x="208.1818181818182" y="347.04545454545456" type="line"/>
      <point x="264.969696969697" y="-18.954545454545453" type="line"/>
      <point x="442.92424242424244" y="-18.954545454545453" type="line"/>
      <point x="350.03030303030306" y="-159.33333333333331"/>
      <point x="233.34848484848487" y="-276.04545454545456"/>
      <point x="111.9848484848485" y="-276.04545454545456" type="curve" smooth="yes"/>
      <point x="60.93939393939394" y="-276.04545454545456"/>
      <point x="-1.3030303030302974" y="-252.48484848484847"/>
      <point x="-41.37878787878786" y="-226.06060606060606" type="curve"/>
      <point x="-119.27272727272725" y="-440.7121212121212" type="line"/>
      <point x="-58.68181818181817" y="-473.04545454545456"/>
      <point x="23.04545454545456" y="-500.1666666666667"/>
    </contour>
  </outline>
</glyph>
<glyph name="z" format="2">
  <advance width="954.7727272727273"/>
  <unicode hex="007A"/>
  <note>
z
</note>
  <anchor x="403.56060606060606" y="0.0" name="bottom"/>
  <anchor x="477.56060606060606" y="558.0" name="center"/>
  <anchor x="586.4090909090909" y="1114.0" name="top"/>
  <outline>
    <contour>
      <point x="1.8484848484848442" y="0.0" type="line"/>
      <point x="829.2727272727273" y="0.0" type="line"/>
      <point x="853.0909090909091" y="232.54545454545456" type="line"/>
      <point x="366.6666666666667" y="232.54545454545456" type="line"/>
      <point x="437.939393939394" y="296.6969696969697" type="line"/>
      <point x="984.5757575757576" y="1067.560606060606" type="line"/>
      <point x="947.0909090909091" y="1114.0" type="line"/>
      <point x="172.96969696969697" y="1114.0" type="line"/>
      <point x="141.15151515151516" y="883.7121212121212" type="line"/>
      <point x="591.2121212121212" y="883.7121212121212" type="line"/>
      <point x="509.8484848484849" y="810.0757575757576" type="line"/>
      <point x="-39.46969696969697" y="47.833333333333336" type="line"/>
    </contour>
  </outline>
</glyph>
<glyph name="braceleft" format="2">
  <advance width="445.25757575757575"/>
  <unicode hex="007B"/>
  <note>
braceleft
</note>
  <outline>
    <contour>
      <point x="191.28787878787878" y="-121.5" type="curve" smooth="yes"/>
      <point x="244.54545454545456" y="-121.5"/>
      <point x="295.1818181818182" y="-109.8939393939394"/>
      <point x="356.3939393939394" y="-87.68181818181819" type="curve"/>
      <point x="366.0" y="-18.484848484848484" type="line"/>
      <point x="231.0" y="-18.484848484848484" type="line"/>
      <point x="275.0" y="297.6060606060606" type="line" smooth="yes"/>
      <point x="280.6515151515152" y="336.2121212121212"/>
      <point x="232.06060606060606" y="359.6060606060606"/>
      <point x="170.06060606060606" y="386.3030303030303" type="curve"/>
      <point x="250.21212121212122" y="408.3030303030303"/>
      <point x="294.56060606060606" y="427.8636363636364"/>
      <point x="301.56060606060606" y="479.6515151515151" type="curve" smooth="yes"/>
      <point x="340.90909090909093" y="774.1363636363636" type="line"/>
      <point x="477.6515151515152" y="774.1363636363636" type="line"/>
      <point x="490.21212121212125" y="847.5909090909091" type="line"/>
      <point x="455.22727272727275" y="859.7575757575758"/>
      <point x="379.4848484848485" y="873.8484848484849"/>
      <point x="338.27272727272725" y="873.8484848484849" type="curve" smooth="yes"/>
      <point x="276.71212121212125" y="873.8484848484849"/>
      <point x="221.33333333333334" y="839.7272727272727"/>
      <point x="207.9848484848485" y="747.5909090909091" type="curve" smooth="yes"/>
      <point x="173.03030303030303" y="496.9848484848485" type="line" smooth="yes"/>
      <point x="169.03030303030303" y="467.6363636363636"/>
      <point x="129.1818181818182" y="452.8484848484849"/>
      <point x="49.77272727272727" y="434.6363636363636" type="curve"/>
      <point x="35.86363636363636" y="346.7878787878788" type="line"/>
      <point x="80.51515151515152" y="336.09090909090907"/>
      <point x="145.46969696969697" y="314.6969696969697"/>
      <point x="140.8181818181818" y="280.7878787878788" type="curve" smooth="yes"/>
      <point x="99.12121212121212" y="-38.727272727272734" type="line" smooth="yes"/>
      <point x="92.12121212121212" y="-93.03030303030303"/>
      <point x="124.72727272727272" y="-121.5"/>
    </contour>
  </outline>
</glyph>
<glyph name="braceright" format="2">
  <advance width="445.16174242424245"/>
  <unicode hex="007D"/>
  <note>
braceleft
</note>
  <outline>
    <contour>
      <point x="276.64166666666665" y="873.9094696969697" type="curve" smooth="yes"/>
      <point x="223.28825757575757" y="873.9094696969697"/>
      <point x="172.69545454545454" y="862.5473484848485"/>
      <point x="111.48333333333333" y="840.3439393939394" type="curve"/>
      <point x="101.88598484848485" y="771.0859848484848" type="line"/>
      <point x="236.65075757575758" y="771.0859848484848" type="line"/>
      <point x="192.64204545454544" y="454.95151515151514" type="line" smooth="yes"/>
      <point x="187.10378787878787" y="416.2060606060606"/>
      <point x="235.76439393939393" y="392.83825757575755"/>
      <point x="297.89507575757574" y="366.36780303030304" type="curve"/>
      <point x="217.63901515151514" y="344.12386363636364"/>
      <point x="173.32537878787878" y="324.8333333333333"/>
      <point x="166.09015151515152" y="272.89734848484846" type="curve" smooth="yes"/>
      <point x="126.75037878787879" y="-21.570075757575758" type="line"/>
      <point x="-9.765530303030303" y="-21.570075757575758" type="line"/>
      <point x="-22.317424242424238" y="-94.84166666666667" type="line"/>
      <point x="12.423484848484847" y="-107.12159090909091"/>
      <point x="88.28787878787878" y="-121.32575757575758"/>
      <point x="129.3780303030303" y="-121.32575757575758" type="curve" smooth="yes"/>
      <point x="191.0431818181818" y="-121.32575757575758"/>
      <point x="246.60492424242426" y="-87.14356060606062"/>
      <point x="259.72689393939396" y="5.158333333333331" type="curve" smooth="yes"/>
      <point x="294.7859848484849" y="255.72083333333333" type="line" smooth="yes"/>
      <point x="298.7859848484849" y="284.8253787878788"/>
      <point x="338.6257575757576" y="299.6306818181818"/>
      <point x="417.9041666666667" y="318.0693181818182" type="curve"/>
      <point x="431.80454545454546" y="405.630303030303" type="line"/>
      <point x="387.275" y="416.3272727272727"/>
      <point x="322.2159090909091" y="437.72992424242426"/>
      <point x="326.98068181818184" y="471.630303030303" type="curve" smooth="yes"/>
      <point x="368.5556818181818" y="791.1628787878788" type="line" smooth="yes"/>
      <point x="375.6689393939394" y="845.5791666666667"/>
      <point x="343.0715909090909" y="873.9094696969697"/>
    </contour>
  </outline>
</glyph>
<glyph name="asciitilde" format="2">
  <advance width="1110.0"/>
  <unicode hex="007E"/>
  <note>
asciitilde
</note>
  <outline>
    <contour>
      <point x="769.6212121212121" y="669.9393939393939" type="curve" smooth="yes"/>
      <point x="905.2727272727273" y="669.9393939393939"/>
      <point x="1057.6969696969697" y="774.3636363636364"/>
      <point x="1087.6969696969697" y="888.0151515151515" type="curve"/>
      <point x="974.1666666666666" y="1005.5454545454545" type="line"/>
      <point x="924.1666666666666" y="933.8030303030303"/>
      <point x="863.3787878787879" y="898.4090909090909"/>
      <point x="790.5909090909091" y="898.4090909090909" type="curve" smooth="yes"/>
      <point x="741.9848484848485" y="898.4090909090909"/>
      <point x="705.3787878787879" y="921.1060606060606"/>
      <point x="640.0757575757576" y="971.1060606060606" type="curve" smooth="yes"/>
      <point x="567.9848484848485" y="1023.9848484848485"/>
      <point x="503.6515151515151" y="1066.409090909091"/>
      <point x="415.3181818181818" y="1066.409090909091" type="curve" smooth="yes"/>
      <point x="284.27272727272725" y="1066.409090909091"/>
      <point x="122.81818181818181" y="959.1969696969697"/>
      <point x="90.03030303030303" y="854.8484848484849" type="curve"/>
      <point x="212.07575757575756" y="736.0151515151515" type="line"/>
      <point x="266.3333333333333" y="807.7575757575758"/>
      <point x="325.469696969697" y="845.1515151515151"/>
      <point x="389.1363636363636" y="845.1515151515151" type="curve" smooth="yes"/>
      <point x="446.25757575757575" y="845.1515151515151"/>
      <point x="483.56060606060606" y="819.1515151515151"/>
      <point x="550.7727272727273" y="766.5454545454545" type="curve" smooth="yes"/>
      <point x="617.469696969697" y="712.1060606060606"/>
      <point x="680.5909090909091" y="669.9393939393939"/>
    </contour>
  </outline>
</glyph>
<glyph name="exclamdown" format="2">
  <advance width="670.0"/>
  <unicode hex="00A1"/>
  <note>
exclamdown
</note>
  <outline>
    <contour>
      <point x="38.90909090909091" y="-424.0" type="line"/>
      <point x="355.1818181818182" y="-424.0" type="line"/>
      <point x="493.1060606060606" y="836.0" type="line"/>
      <point x="270.030303030303" y="836.0" type="line"/>
    </contour>
    <contour>
      <point x="406.25757575757575" y="1007.0909090909091" type="curve" smooth="yes"/>
      <point x="515.8939393939394" y="1007.0909090909091"/>
      <point x="599.8939393939394" y="1098.121212121212"/>
      <point x="599.8939393939394" y="1202.8030303030303" type="curve" smooth="yes"/>
      <point x="599.8939393939394" y="1283.4848484848485"/>
      <point x="543.9848484848485" y="1338.2575757575758"/>
      <point x="458.0" y="1338.2575757575758" type="curve" smooth="yes"/>
      <point x="343.75757575757575" y="1338.2575757575758"/>
      <point x="260.45454545454544" y="1260.1818181818182"/>
      <point x="260.45454545454544" y="1140.5454545454545" type="curve" smooth="yes"/>
      <point x="260.45454545454544" y="1062.2121212121212"/>
      <point x="305.3181818181818" y="1007.0909090909091"/>
    </contour>
  </outline>
</glyph>
<glyph name="cent" format="2">
  <advance width="1046.0757575757575"/>
  <unicode hex="00A2"/>
  <note>
cent
</note>
  <outline>
    <contour>
      <point x="306.8181818181818" y="-251.27272727272728" type="line"/>
      <point x="515.3787878787879" y="-251.27272727272728" type="line"/>
      <point x="558.5909090909091" y="-11.045454545454545" type="line"/>
      <point x="713.969696969697" y="4.863636363636365"/>
      <point x="829.969696969697" y="89.56060606060606"/>
      <point x="888.6666666666666" y="174.77272727272728" type="curve"/>
      <point x="807.9848484848485" y="323.9545454545455" type="line"/>
      <point x="745.3484848484849" y="259.06060606060606"/>
      <point x="649.3636363636364" y="204.9848484848485"/>
      <point x="569.969696969697" y="204.9848484848485" type="curve" smooth="yes"/>
      <point x="449.6969696969697" y="204.9848484848485"/>
      <point x="410.1969696969697" y="294.8939393939394"/>
      <point x="410.1969696969697" y="473.8030303030303" type="curve" smooth="yes"/>
      <point x="410.1969696969697" y="674.0151515151515"/>
      <point x="508.40909090909093" y="895.2878787878788"/>
      <point x="672.530303030303" y="895.2878787878788" type="curve" smooth="yes"/>
      <point x="740.2727272727273" y="895.2878787878788"/>
      <point x="821.9090909090909" y="843.2272727272727"/>
      <point x="864.3484848484849" y="803.2272727272727" type="curve"/>
      <point x="938.5909090909091" y="1087.7424242424242" type="line"/>
      <point x="898.5" y="1105.4848484848485"/>
      <point x="841.0151515151515" y="1117.4848484848485"/>
      <point x="770.0606060606061" y="1125.0454545454545" type="curve"/>
      <point x="828.5757575757576" y="1374.1363636363637" type="line"/>
      <point x="620.0151515151515" y="1374.1363636363637" type="line"/>
      <point x="559.1515151515151" y="1113.0454545454545" type="line"/>
      <point x="271.93939393939394" y="1042.530303030303"/>
      <point x="101.5909090909091" y="748.5909090909091"/>
      <point x="101.5909090909091" y="429.56060606060606" type="curve" smooth="yes"/>
      <point x="101.5909090909091" y="227.36363636363637"/>
      <point x="184.37878787878788" y="63.63636363636364"/>
      <point x="353.3333333333333" y="6.166666666666668" type="curve"/>
    </contour>
  </outline>
</glyph>
<glyph name="sterling" format="2">
  <advance width="714.4090909090909"/>
  <unicode hex="00A3"/>
  <note>
sterling
</note>
  <outline>
    <contour>
      <point x="53.42424242424242" y="-10.0" type="curve" smooth="yes"/>
      <point x="89.46969696969697" y="-10.0"/>
      <point x="134.46969696969697" y="12.045454545454545"/>
      <point x="160.16666666666669" y="44.43939393939394" type="curve"/>
      <point x="248.15151515151516" y="25.424242424242426"/>
      <point x="331.56060606060606" y="-10.0"/>
      <point x="450.22727272727275" y="-10.0" type="curve" smooth="yes"/>
      <point x="624.8636363636364" y="-10.0"/>
      <point x="682.0909090909091" y="74.42424242424242"/>
      <point x="682.0909090909091" y="179.8181818181818" type="curve" smooth="yes"/>
      <point x="682.0909090909091" y="230.8181818181818"/>
      <point x="649.1818181818182" y="291.45454545454544"/>
      <point x="603.2727272727273" y="316.5909090909091" type="curve"/>
      <point x="508.93939393939394" y="240.56060606060606" type="line"/>
      <point x="526.0757575757576" y="231.8181818181818"/>
      <point x="547.0757575757576" y="203.46969696969697"/>
      <point x="547.0757575757576" y="179.72727272727272" type="curve" smooth="yes"/>
      <point x="547.0757575757576" y="125.96969696969697"/>
      <point x="503.469696969697" y="98.62121212121212"/>
      <point x="417.5909090909091" y="98.62121212121212" type="curve" smooth="yes"/>
      <point x="366.40909090909093" y="98.62121212121212"/>
      <point x="291.75757575757575" y="111.22727272727273"/>
      <point x="252.22727272727275" y="130.24242424242425" type="curve"/>
      <point x="276.40909090909093" y="159.95454545454547"/>
      <point x="294.6212121212121" y="201.12121212121212"/>
      <point x="306.6666666666667" y="263.1666666666667" type="curve" smooth="yes"/>
      <point x="311.0151515151515" y="289.07575757575756"/>
      <point x="316.3636363636364" y="319.5151515151515"/>
      <point x="321.75757575757575" y="354.4848484848485" type="curve"/>
      <point x="476.1060606060606" y="354.4848484848485" type="line"/>
      <point x="488.0151515151515" y="453.1969696969697" type="line"/>
      <point x="338.6666666666667" y="453.1969696969697" type="line"/>
      <point x="347.6212121212121" y="509.6666666666667" type="line" smooth="yes"/>
      <point x="362.0151515151515" y="604.1212121212121"/>
      <point x="401.2878787878788" y="654.2424242424242"/>
      <point x="468.6060606060606" y="654.2424242424242" type="curve" smooth="yes"/>
      <point x="517.5151515151515" y="654.2424242424242"/>
      <point x="566.1212121212121" y="617.8181818181818"/>
      <point x="574.1212121212121" y="592.9545454545455" type="curve"/>
      <point x="646.6212121212121" y="701.2272727272727" type="line"/>
      <point x="612.0606060606061" y="731.2727272727273"/>
      <point x="556.6666666666666" y="754.0"/>
      <point x="466.57575757575756" y="754.0" type="curve" smooth="yes"/>
      <point x="321.3939393939394" y="754.0"/>
      <point x="226.43939393939394" y="660.8484848484849"/>
      <point x="203.13636363636363" y="517.8333333333334" type="curve" smooth="yes"/>
      <point x="192.53030303030303" y="453.1969696969697" type="line"/>
      <point x="104.18181818181819" y="453.1969696969697" type="line"/>
      <point x="91.57575757575758" y="354.4848484848485" type="line"/>
      <point x="174.96969696969697" y="354.4848484848485" type="line"/>
      <point x="154.62121212121212" y="236.74242424242425" type="line" smooth="yes"/>
      <point x="147.62121212121212" y="194.3030303030303"/>
      <point x="133.22727272727272" y="161.54545454545456"/>
      <point x="115.6969696969697" y="143.15151515151516" type="curve"/>
      <point x="58.27272727272727" y="141.84848484848484"/>
      <point x="-12.72727272727273" y="106.5909090909091"/>
      <point x="-13.075757575757578" y="48.287878787878796" type="curve" smooth="yes"/>
      <point x="-13.424242424242426" y="14.121212121212123"/>
      <point x="10.393939393939394" y="-10.0"/>
    </contour>
  </outline>
</glyph>
<glyph name="currency" format="2">
  <advance width="741.9848484848485"/>
  <unicode hex="00A4"/>
  <note>
currency
</note>
  <outline>
    <contour>
      <point x="164.8181818181818" y="53.83333333333333" type="line"/>
      <point x="265.3787878787879" y="154.3939393939394" type="line"/>
      <point x="298.72727272727275" y="133.6969696969697"/>
      <point x="337.1212121212121" y="123.0"/>
      <point x="377.8181818181818" y="123.0" type="curve" smooth="yes"/>
      <point x="419.8636363636364" y="123.0"/>
      <point x="458.56060606060606" y="134.6969696969697"/>
      <point x="493.25757575757575" y="156.74242424242425" type="curve"/>
      <point x="593.8181818181819" y="56.18181818181818" type="line"/>
      <point x="658.9848484848485" y="121.0" type="line"/>
      <point x="558.4242424242424" y="221.56060606060606" type="line"/>
      <point x="581.1212121212121" y="255.9090909090909"/>
      <point x="592.8181818181819" y="294.95454545454544"/>
      <point x="592.8181818181819" y="337.0" type="curve" smooth="yes"/>
      <point x="592.8181818181819" y="377.04545454545456"/>
      <point x="582.1212121212121" y="415.09090909090907"/>
      <point x="561.4242424242424" y="448.43939393939394" type="curve"/>
      <point x="659.9848484848485" y="548.0" type="line"/>
      <point x="595.8181818181819" y="613.1666666666666" type="line"/>
      <point x="497.25757575757575" y="515.2575757575758" type="line"/>
      <point x="460.90909090909093" y="538.9545454545455"/>
      <point x="420.8636363636364" y="551.0"/>
      <point x="377.8181818181818" y="551.0" type="curve" smooth="yes"/>
      <point x="336.42424242424244" y="551.0"/>
      <point x="298.72727272727275" y="540.3030303030303"/>
      <point x="263.3787878787879" y="518.6060606060606" type="curve"/>
      <point x="162.8181818181818" y="619.8181818181819" type="line"/>
      <point x="98.0" y="554.0" type="line"/>
      <point x="198.21212121212122" y="454.43939393939394" type="line"/>
      <point x="174.86363636363637" y="419.43939393939394"/>
      <point x="162.8181818181818" y="380.04545454545456"/>
      <point x="162.8181818181818" y="337.0" type="curve" smooth="yes"/>
      <point x="162.8181818181818" y="293.3030303030303"/>
      <point x="175.5151515151515" y="252.25757575757575"/>
      <point x="199.21212121212122" y="218.21212121212122" type="curve"/>
      <point x="99.65151515151516" y="119.0" type="line"/>
    </contour>
    <contour>
      <point x="377.8181818181818" y="218.45454545454547" type="curve" smooth="yes"/>
      <point x="315.54545454545456" y="218.45454545454547"/>
      <point x="264.6212121212121" y="272.3333333333333"/>
      <point x="264.6212121212121" y="337.0" type="curve" smooth="yes"/>
      <point x="264.6212121212121" y="400.27272727272725"/>
      <point x="314.1515151515151" y="454.8939393939394"/>
      <point x="377.8181818181818" y="454.8939393939394" type="curve" smooth="yes"/>
      <point x="439.74242424242425" y="454.8939393939394"/>
      <point x="490.0151515151515" y="402.3181818181818"/>
      <point x="490.0151515151515" y="337.0" type="curve" smooth="yes"/>
      <point x="490.0151515151515" y="273.3787878787879"/>
      <point x="440.09090909090907" y="218.45454545454547"/>
    </contour>
  </outline>
</glyph>
<glyph name="yen" format="2">
  <advance width="1518.2121212121212"/>
  <unicode hex="00A5"/>
  <note>
yen
</note>
  <outline>
    <contour>
      <point x="524.560606060606" y="0.0" type="line"/>
      <point x="828.5454545454545" y="0.0" type="line"/>
      <point x="871.8484848484849" y="331.3333333333333" type="line"/>
      <point x="1281.1515151515152" y="331.3333333333333" type="line"/>
      <point x="1297.1515151515152" y="494.0" type="line"/>
      <point x="893.7575757575758" y="494.0" type="line"/>
      <point x="919.4090909090909" y="678.6363636363636" type="line"/>
      <point x="1323.2424242424242" y="678.6363636363636" type="line"/>
      <point x="1340.5454545454545" y="842.0" type="line"/>
      <point x="1029.2121212121212" y="842.0" type="line"/>
      <point x="1489.6666666666667" y="1494.0" type="line"/>
      <point x="1142.8333333333333" y="1494.0" type="line"/>
      <point x="847.0454545454545" y="951.4848484848485" type="line"/>
      <point x="796.4242424242424" y="842.3484848484849" type="line"/>
      <point x="765.2878787878788" y="949.0454545454545" type="line"/>
      <point x="577.8484848484849" y="1494.0" type="line"/>
      <point x="276.54545454545456" y="1494.0" type="line"/>
      <point x="546.9242424242424" y="842.0" type="line"/>
      <point x="228.56060606060606" y="842.0" type="line"/>
      <point x="209.6060606060606" y="678.6363636363636" type="line"/>
      <point x="608.560606060606" y="678.6363636363636" type="line"/>
      <point x="585.8636363636364" y="494.0" type="line"/>
      <point x="187.16666666666666" y="494.0" type="line"/>
      <point x="169.16666666666666" y="331.3333333333333" type="line"/>
      <point x="565.2575757575758" y="331.3333333333333" type="line"/>
    </contour>
  </outline>
</glyph>
<glyph name="brokenbar" format="2">
  <advance width="417.0"/>
  <unicode hex="00A6"/>
  <note>
brokenbar
</note>
  <outline>
    <contour>
      <point x="161.0181818181818" y="319.6549242424243" type="line"/>
      <point x="273.34393939393937" y="319.6549242424243" type="line"/>
      <point x="273.34393939393937" y="745.9761363636364" type="line"/>
      <point x="161.0181818181818" y="745.9761363636364" type="line"/>
    </contour>
    <contour>
      <point x="161.0181818181818" y="32.2590909090909" type="line"/>
      <point x="273.34393939393937" y="32.2590909090909" type="line"/>
      <point x="273.34393939393937" y="458.3450757575757" type="line"/>
      <point x="161.0181818181818" y="458.3450757575757" type="line"/>
    </contour>
  </outline>
</glyph>
<glyph name="section" format="2">
  <advance width="1360.8484848484848"/>
  <unicode hex="00A7"/>
  <outline>
    <contour>
      <point x="312.6060606060606" y="1295.0454545454545" type="curve" smooth="yes"/>
      <point x="252.95454545454547" y="872.7878787878788"/>
      <point x="948.439393939394" y="913.9242424242424"/>
      <point x="906.0" y="614.7727272727273" type="curve" smooth="yes"/>
      <point x="894.3484848484849" y="532.7727272727273"/>
      <point x="798.4545454545455" y="396.0"/>
      <point x="751.1515151515151" y="344.0" type="curve"/>
      <point x="865.1363636363636" y="294.1666666666667" type="line"/>
      <point x="1025.4545454545455" y="384.77272727272725"/>
      <point x="1153.2575757575758" y="512.0757575757576"/>
      <point x="1176.2121212121212" y="674.6666666666666" type="curve" smooth="yes"/>
      <point x="1234.2121212121212" y="1087.2727272727273"/>
      <point x="580.8787878787879" y="1094.4848484848485"/>
      <point x="608.7121212121212" y="1293.1515151515152" type="curve" smooth="yes"/>
      <point x="621.7575757575758" y="1378.2121212121212"/>
      <point x="711.0" y="1407.090909090909"/>
      <point x="814.1515151515151" y="1407.439393939394" type="curve" smooth="yes"/>
      <point x="978.3333333333334" y="1408.7424242424242"/>
      <point x="1063.8181818181818" y="1359.8787878787878"/>
      <point x="1101.2121212121212" y="1329.530303030303" type="curve"/>
      <point x="1180.2424242424242" y="1562.0" type="line"/>
      <point x="1125.2878787878788" y="1596.0"/>
      <point x="1010.6818181818181" y="1634.0"/>
      <point x="824.4242424242424" y="1634.0" type="curve" smooth="yes"/>
      <point x="601.5757575757576" y="1634.0"/>
      <point x="347.3030303030303" y="1540.3636363636363"/>
    </contour>
    <contour>
      <point x="1061.1060606060605" y="166.5909090909091" type="curve" smooth="yes"/>
      <point x="1122.060606060606" y="598.8333333333334"/>
      <point x="422.5757575757576" y="519.530303030303"/>
      <point x="461.969696969697" y="801.3787878787879" type="curve" smooth="yes"/>
      <point x="473.969696969697" y="883.3787878787879"/>
      <point x="565.2575757575758" y="984.0"/>
      <point x="611.6060606060606" y="1036.0" type="curve"/>
      <point x="486.06060606060606" y="1094.0" type="line"/>
      <point x="331.04545454545456" y="1012.0"/>
      <point x="207.84848484848484" y="889.3030303030303"/>
      <point x="186.54545454545453" y="739.5757575757576" type="curve" smooth="yes"/>
      <point x="128.89393939393938" y="327.75757575757575"/>
      <point x="790.2272727272727" y="345.8484848484849"/>
      <point x="763.0909090909091" y="161.45454545454547" type="curve" smooth="yes"/>
      <point x="751.3484848484849" y="72.65151515151516"/>
      <point x="654.0151515151515" y="41.166666666666686"/>
      <point x="542.4242424242424" y="39.863636363636374" type="curve" smooth="yes"/>
      <point x="374.93939393939394" y="39.166666666666686"/>
      <point x="258.75757575757575" y="97.77272727272728"/>
      <point x="215.01515151515153" y="135.77272727272728" type="curve"/>
      <point x="134.33333333333334" y="-98.0" type="line"/>
      <point x="189.63636363636363" y="-140.0"/>
      <point x="346.24242424242425" y="-188.0"/>
      <point x="531.1969696969697" y="-188.0" type="curve" smooth="yes"/>
      <point x="760.8333333333334" y="-188.0"/>
      <point x="1024.1515151515152" y="-90.36363636363636"/>
    </contour>
  </outline>
</glyph>
<glyph name="dieresis" format="2">
  <advance width="795.560606060606"/>
  <unicode hex="00A8"/>
  <note>
dieresis
</note>
  <outline>
    <contour>
      <point x="594.7727272727274" y="1320.6363636363637" type="curve" smooth="yes"/>
      <point x="703.530303030303" y="1320.6363636363637"/>
      <point x="770.9242424242425" y="1401.1515151515152"/>
      <point x="770.9242424242425" y="1506.9545454545455" type="curve" smooth="yes"/>
      <point x="770.9242424242425" y="1581.7272727272727"/>
      <point x="708.8484848484849" y="1647.3636363636365"/>
      <point x="625.7272727272727" y="1647.3636363636365" type="curve" smooth="yes"/>
      <point x="529.1363636363636" y="1647.3636363636365"/>
      <point x="459.4848484848485" y="1564.590909090909"/>
      <point x="459.4848484848485" y="1466.3484848484848" type="curve" smooth="yes"/>
      <point x="459.4848484848485" y="1391.9242424242425"/>
      <point x="522.9545454545455" y="1320.6363636363637"/>
    </contour>
    <contour>
      <point x="148.71212121212113" y="1320.6363636363637" type="curve" smooth="yes"/>
      <point x="258.16666666666663" y="1320.6363636363637"/>
      <point x="322.95454545454544" y="1399.8484848484848"/>
      <point x="322.95454545454544" y="1506.9545454545455" type="curve" smooth="yes"/>
      <point x="322.95454545454544" y="1581.7272727272727"/>
      <point x="261.48484848484844" y="1647.3636363636365"/>
      <point x="180.0151515151515" y="1647.3636363636365" type="curve" smooth="yes"/>
      <point x="83.42424242424238" y="1647.3636363636365"/>
      <point x="12.818181818181756" y="1565.8939393939395"/>
      <point x="12.818181818181756" y="1466.3484848484848" type="curve" smooth="yes"/>
      <point x="12.818181818181756" y="1393.2272727272727"/>
      <point x="76.63636363636357" y="1320.6363636363637"/>
    </contour>
  </outline>
</glyph>
<glyph name="copyright" format="2">
  <advance width="1025.5825757575758"/>
  <unicode hex="00A9"/>
  <outline>
    <contour>
      <point x="87.4655303030303" y="470.0" type="curve" smooth="yes"/>
      <point x="87.4655303030303" y="232.0"/>
      <point x="275.11704545454546" y="40.65151515151515"/>
      <point x="512.4655303030303" y="40.65151515151515" type="curve" smooth="yes"/>
      <point x="750.1170454545455" y="40.65151515151515"/>
      <point x="938.1170454545455" y="232.0"/>
      <point x="938.1170454545455" y="470.0" type="curve" smooth="yes"/>
      <point x="938.1170454545455" y="708.0"/>
      <point x="750.1170454545455" y="897.3484848484849"/>
      <point x="512.4655303030303" y="897.3484848484849" type="curve" smooth="yes"/>
      <point x="275.11704545454546" y="897.3484848484849"/>
      <point x="87.4655303030303" y="708.0"/>
    </contour>
    <contour>
      <point x="157.11704545454546" y="470.0" type="curve" smooth="yes"/>
      <point x="157.11704545454546" y="672.0"/>
      <point x="308.11704545454546" y="836.3484848484849"/>
      <point x="512.4655303030303" y="836.3484848484849" type="curve" smooth="yes"/>
      <point x="717.1170454545455" y="836.3484848484849"/>
      <point x="868.1170454545455" y="672.0"/>
      <point x="868.1170454545455" y="470.0" type="curve" smooth="yes"/>
      <point x="868.1170454545455" y="268.0"/>
      <point x="717.1170454545455" y="103.65151515151516"/>
      <point x="512.4655303030303" y="103.65151515151516" type="curve" smooth="yes"/>
      <point x="308.11704545454546" y="103.65151515151516"/>
      <point x="157.11704545454546" y="268.0"/>
    </contour>
    <contour>
      <point x="294.92727272727274" y="466.0087121212121" type="curve" smooth="yes"/>
      <point x="295.57878787878786" y="340.4200757575758"/>
      <point x="379.9409090909091" y="231.16742424242423"/>
      <point x="514.0628787878787" y="231.16742424242423" type="curve" smooth="yes"/>
      <point x="579.0628787878787" y="231.16742424242423"/>
      <point x="639.2806818181818" y="254.10454545454544"/>
      <point x="669.864393939394" y="280.33977272727276" type="curve"/>
      <point x="647.7511363636363" y="358.5530303030303" type="line"/>
      <point x="626.8867424242424" y="344.9015151515151"/>
      <point x="587.3621212121212" y="328.0234848484848"/>
      <point x="535.8151515151516" y="328.0234848484848" type="curve" smooth="yes"/>
      <point x="462.60227272727275" y="328.0234848484848"/>
      <point x="409.6700757575758" y="373.77840909090907"/>
      <point x="410.3215909090909" y="481.76098484848484" type="curve" smooth="yes"/>
      <point x="411.0863636363636" y="561.0367424242424"/>
      <point x="460.0776515151515" y="615.1662878787879"/>
      <point x="535.6602272727273" y="615.1662878787879" type="curve" smooth="yes"/>
      <point x="577.7772727272727" y="615.1662878787879"/>
      <point x="619.3117424242424" y="602.817803030303"/>
      <point x="641.0715909090909" y="587.3473484848485" type="curve"/>
      <point x="659.0541666666667" y="683.4075757575757" type="line"/>
      <point x="639.7598484848485" y="693.9371212121213"/>
      <point x="593.8090909090909" y="709.3030303030303"/>
      <point x="536.9272727272727" y="709.3030303030303" type="curve" smooth="yes"/>
      <point x="378.51098484848484" y="709.3030303030303"/>
      <point x="294.81401515151515" y="603.8867424242424"/>
    </contour>
  </outline>
</glyph>
<glyph name="ordfeminine" format="2">
  <advance width="454.58825757575755"/>
  <unicode hex="00AA"/>
  <note>
ordfeminine
</note>
  <outline>
    <contour>
      <point x="170.0814393939394" y="356.68333333333334" type="curve" smooth="yes"/>
      <point x="225.03598484848484" y="356.68333333333334"/>
      <point x="272.95" y="385.7056818181818"/>
      <point x="313.09924242424245" y="428.25757575757575" type="curve"/>
      <point x="312.00454545454545" y="356.68333333333334" type="line"/>
      <point x="411.6515151515151" y="356.68333333333334" type="line"/>
      <point x="487.66515151515154" y="768.3484848484849" type="line"/>
      <point x="418.18560606060606" y="755.2352272727272" type="line"/>
      <point x="392.4662878787879" y="763.3484848484849"/>
      <point x="354.6424242424242" y="770.0"/>
      <point x="324.5746212121212" y="770.0" type="curve" smooth="yes"/>
      <point x="219.525" y="770.0"/>
      <point x="130.49772727272727" y="713.4162878787879"/>
      <point x="81.83257575757575" y="628.8189393939394" type="curve" smooth="yes"/>
      <point x="57.65151515151515" y="586.4026515151515"/>
      <point x="45.23522727272727" y="541.1537878787879"/>
      <point x="45.23522727272727" y="493.18560606060606" type="curve" smooth="yes"/>
      <point x="45.23522727272727" y="408.9185606060606"/>
      <point x="90.24886363636364" y="356.68333333333334"/>
    </contour>
    <contour>
      <point x="221.07689393939395" y="439.17651515151516" type="curve" smooth="yes"/>
      <point x="185.1719696969697" y="439.17651515151516"/>
      <point x="173.48863636363637" y="460.4977272727273"/>
      <point x="173.48863636363637" y="506.5022727272727" type="curve" smooth="yes"/>
      <point x="173.48863636363637" y="560.8912878787879"/>
      <point x="195.00454545454545" y="629.3530303030303"/>
      <point x="239.23977272727274" y="672.7693181818181" type="curve" smooth="yes"/>
      <point x="260.82348484848484" y="694.4208333333333"/>
      <point x="287.58825757575755" y="705.185606060606"/>
      <point x="319.00454545454545" y="705.185606060606" type="curve" smooth="yes"/>
      <point x="330.1041666666667" y="705.185606060606"/>
      <point x="340.9094696969697" y="702.5477272727272"/>
      <point x="349.7738636363636" y="697.9776515151515" type="curve"/>
      <point x="308.28977272727275" y="495.74280303030304" type="line"/>
      <point x="277.1727272727273" y="461.4621212121212"/>
      <point x="245.83295454545456" y="439.17651515151516"/>
    </contour>
  </outline>
</glyph>
<glyph name="registered" format="2">
  <advance width="1025.5825757575758"/>
  <unicode hex="00AE"/>
  <outline>
    <contour>
      <point x="85.93598484848485" y="470.0" type="curve" smooth="yes"/>
      <point x="85.93598484848485" y="232.0"/>
      <point x="275.11704545454546" y="40.65151515151515"/>
      <point x="512.4655303030303" y="40.65151515151515" type="curve" smooth="yes"/>
      <point x="750.1170454545455" y="40.65151515151515"/>
      <point x="939.646590909091" y="232.0"/>
      <point x="939.646590909091" y="470.0" type="curve" smooth="yes"/>
      <point x="939.646590909091" y="707.2352272727272"/>
      <point x="750.1170454545455" y="897.3484848484849"/>
      <point x="512.4655303030303" y="897.3484848484849" type="curve" smooth="yes"/>
      <point x="275.11704545454546" y="897.3484848484849"/>
      <point x="85.93598484848485" y="707.2352272727272"/>
    </contour>
    <contour>
      <point x="155.5875" y="470.0" type="curve" smooth="yes"/>
      <point x="155.5875" y="671.2352272727272"/>
      <point x="309.6465909090909" y="835.5837121212121"/>
      <point x="512.4655303030303" y="835.5837121212121" type="curve" smooth="yes"/>
      <point x="715.5875" y="835.5837121212121"/>
      <point x="869.646590909091" y="671.2352272727272"/>
      <point x="869.646590909091" y="470.0" type="curve" smooth="yes"/>
      <point x="869.646590909091" y="268.0"/>
      <point x="715.5875" y="103.65151515151516"/>
      <point x="512.4655303030303" y="103.65151515151516" type="curve" smooth="yes"/>
      <point x="309.6465909090909" y="103.65151515151516"/>
      <point x="155.5875" y="268.0"/>
    </contour>
    <contour>
      <point x="346.6871212121212" y="236.06780303030303" type="line"/>
      <point x="450.5973484848485" y="236.06780303030303" type="line"/>
      <point x="450.5973484848485" y="408.5333333333333" type="line"/>
      <point x="464.655303030303" y="408.5333333333333"/>
      <point x="490.8363636363636" y="408.5333333333333"/>
      <point x="498.2477272727273" y="409.4200757575758" type="curve"/>
      <point x="544.230303030303" y="391.52840909090907"/>
      <point x="563.1257575757576" y="325.3598484848485"/>
      <point x="582.7094696969697" y="284.83522727272725" type="curve" smooth="yes"/>
      <point x="592.4151515151515" y="265.06666666666666"/>
      <point x="598.5912878787879" y="250.0715909090909"/>
      <point x="610.1159090909091" y="236.71931818181818" type="curve"/>
      <point x="728.6689393939394" y="236.71931818181818" type="line"/>
      <point x="708.0814393939394" y="263.89431818181816"/>
      <point x="700.905303030303" y="275.71325757575755"/>
      <point x="691.6700757575758" y="291.8893939393939" type="curve" smooth="yes"/>
      <point x="665.3079545454545" y="337.4780303030303"/>
      <point x="648.2625" y="394.34356060606063"/>
      <point x="602.9041666666667" y="421.4200757575758" type="curve"/>
      <point x="673.4337121212121" y="441.8818181818182"/>
      <point x="696.6776515151515" y="503.4162878787879"/>
      <point x="696.6776515151515" y="574.9545454545455" type="curve" smooth="yes"/>
      <point x="696.6776515151515" y="651.126893939394"/>
      <point x="639.6640151515152" y="709.067803030303"/>
      <point x="519.2981060606061" y="709.067803030303" type="curve" smooth="yes"/>
      <point x="459.7674242424242" y="709.067803030303"/>
      <point x="430.2526515151515" y="706.7193181818182"/>
      <point x="391.23030303030305" y="706.7193181818182" type="curve" smooth="yes"/>
      <point x="376.04924242424244" y="706.7193181818182"/>
      <point x="361.8681818181818" y="706.7193181818182"/>
      <point x="346.6871212121212" y="706.7193181818182" type="curve"/>
    </contour>
    <contour>
      <point x="450.5973484848485" y="484.55189393939395" type="curve"/>
      <point x="450.5973484848485" y="627.7094696969697" type="line"/>
      <point x="467.83257575757574" y="632.8227272727273"/>
      <point x="481.71931818181815" y="632.7094696969697"/>
      <point x="500.425" y="632.944696969697" type="curve" smooth="yes"/>
      <point x="569.4189393939394" y="634.1799242424242"/>
      <point x="591.7219696969697" y="607.1848484848484"/>
      <point x="591.7219696969697" y="561.6602272727273" type="curve" smooth="yes"/>
      <point x="591.7219696969697" y="506.9594696969697"/>
      <point x="563.5371212121212" y="481.7871212121212"/>
      <point x="509.66022727272724" y="481.7871212121212" type="curve" smooth="yes"/>
      <point x="492.1306818181818" y="481.7871212121212"/>
      <point x="464.5973484848485" y="481.7871212121212"/>
    </contour>
  </outline>
</glyph>
<glyph name="macron" format="2">
  <advance width="302.067803030303"/>
  <unicode hex="00AF"/>
  <note>
macron
</note>
  <outline>
    <contour>
      <point x="16.546590909090906" y="682.1325757575758" type="line"/>
      <point x="294.4871212121212" y="682.1325757575758" type="line"/>
      <point x="301.6227272727273" y="778.869696969697" type="line"/>
      <point x="23.446969696969695" y="778.869696969697" type="line"/>
    </contour>
  </outline>
</glyph>
<glyph name="degree" format="2">
  <advance width="458.8280303030303"/>
  <unicode hex="00B0"/>
  <note>
degree
</note>
  <outline>
    <contour>
      <point x="259.9909090909091" y="452.60189393939396" type="curve" smooth="yes"/>
      <point x="328.65606060606063" y="452.60189393939396"/>
      <point x="385.7916666666667" y="484.669696969697"/>
      <point x="416.9727272727273" y="537.9185606060606" type="curve" smooth="yes"/>
      <point x="432.6242424242424" y="564.3348484848485"/>
      <point x="440.3890151515152" y="594.1674242424242"/>
      <point x="440.3890151515152" y="626.3484848484849" type="curve" smooth="yes"/>
      <point x="440.3890151515152" y="687.2488636363637"/>
      <point x="408.9727272727273" y="740.8462121212121"/>
      <point x="356.83712121212125" y="770.9140151515152" type="curve" smooth="yes"/>
      <point x="330.7693181818182" y="785.4435606060606"/>
      <point x="301.58825757575755" y="793.0950757575757"/>
      <point x="270.407196969697" y="793.0950757575757" type="curve" smooth="yes"/>
      <point x="201.9685606060606" y="793.0950757575757"/>
      <point x="145.60643939393938" y="760.9140151515152"/>
      <point x="115.31212121212121" y="708.0136363636364" type="curve" smooth="yes"/>
      <point x="99.66060606060606" y="681.5973484848485"/>
      <point x="91.89583333333334" y="651.7647727272728"/>
      <point x="91.89583333333334" y="619.6969696969697" type="curve" smooth="yes"/>
      <point x="91.89583333333334" y="558.6833333333334"/>
      <point x="122.96363636363637" y="504.97272727272724"/>
      <point x="174.56098484848485" y="475.0181818181818" type="curve" smooth="yes"/>
      <point x="200.3935606060606" y="460.2534090909091"/>
      <point x="228.8098484848485" y="452.60189393939396"/>
    </contour>
    <contour>
      <point x="263.7556818181818" y="534.2625" type="curve" smooth="yes"/>
      <point x="218.30757575757576" y="534.2625"/>
      <point x="182.1401515151515" y="573.9003787878788"/>
      <point x="182.1401515151515" y="621.3484848484849" type="curve" smooth="yes"/>
      <point x="182.1401515151515" y="672.5700757575758"/>
      <point x="217.7693181818182" y="712.0859848484848"/>
      <point x="267.6424242424242" y="712.0859848484848" type="curve" smooth="yes"/>
      <point x="313.20378787878786" y="712.0859848484848"/>
      <point x="349.4931818181818" y="672.448106060606"/>
      <point x="349.4931818181818" y="625.2352272727272" type="curve" smooth="yes"/>
      <point x="349.4931818181818" y="574.2488636363637"/>
      <point x="313.97727272727275" y="534.2625"/>
    </contour>
  </outline>
</glyph>
<glyph name="plusminus" format="2">
  <advance width="663.5159090909091"/>
  <unicode hex="00B1"/>
  <note>
plusminus
</note>
  <outline>
    <contour>
      <point x="251.17196969696968" y="128.42083333333335" type="line"/>
      <point x="370.7465909090909" y="128.42083333333335" type="line"/>
      <point x="386.57916666666665" y="258.4026515151515" type="line"/>
      <point x="390.1628787878788" y="328.6018939393939" type="line"/>
      <point x="439.4977272727273" y="324.6018939393939" type="line"/>
      <point x="570.814393939394" y="324.6018939393939" type="line"/>
      <point x="585.2443181818181" y="438.660606060606" type="line"/>
      <point x="453.5113636363636" y="438.660606060606" type="line"/>
      <point x="403.8280303030303" y="433.660606060606" type="line"/>
      <point x="416.41174242424245" y="504.39810606060604" type="line"/>
      <point x="429.41174242424245" y="633.5068181818182" type="line"/>
      <point x="309.8371212121212" y="633.5068181818182" type="line"/>
      <point x="295.42083333333335" y="504.39810606060604" type="line"/>
      <point x="290.4886363636364" y="432.660606060606" type="line"/>
      <point x="230.3348484848485" y="438.660606060606" type="line"/>
      <point x="111.83712121212122" y="438.660606060606" type="line"/>
      <point x="97.52045454545454" y="324.6018939393939" type="line"/>
      <point x="215.2534090909091" y="324.6018939393939" type="line"/>
      <point x="278.3530303030303" y="328.6018939393939" type="line"/>
      <point x="266.23977272727274" y="258.4026515151515" type="line"/>
    </contour>
    <contour>
      <point x="81.16742424242425" y="4.32121212121212" type="line"/>
      <point x="517.9140151515152" y="4.32121212121212" type="line"/>
      <point x="526.1492424242424" y="97.2625" type="line"/>
      <point x="89.16742424242425" y="97.2625" type="line"/>
    </contour>
  </outline>
</glyph>
<glyph name="acute" format="2">
  <advance width="550.2575757575758"/>
  <unicode hex="00B4"/>
  <note>
acute
</note>
  <outline>
    <contour>
      <point x="141.04545454545456" y="1207.060606060606" type="line"/>
      <point x="236.34848484848484" y="1241.060606060606"/>
      <point x="498.06060606060606" y="1461.7424242424242"/>
      <point x="537.5454545454545" y="1542.878787878788" type="curve"/>
      <point x="349.92424242424244" y="1719.4545454545455" type="line"/>
      <point x="31.590909090909086" y="1294.6969696969697" type="line"/>
    </contour>
  </outline>
</glyph>
